<svg width="51" height="48" viewBox="0 0 51 48" fill="none" xmlns="http://www.w3.org/2000/svg">
<rect x="0.692749" y="4.00916" width="46" height="44" rx="15" transform="rotate(-5 0.692749 4.00916)" fill="#00EB9A"/>
<rect x="1.23442" y="4.46367" width="45" height="43" rx="14.5" transform="rotate(-5 1.23442 4.46367)" stroke="url(#paint0_linear_4195_844)" stroke-opacity="0.4"/>
<path d="M32.6496 16.1943L32.9295 19.3941L32.1005 19.5108C31.1362 19.5951 30.47 19.889 30.1018 20.3923C29.7628 20.8931 29.6278 21.538 29.6968 22.327L29.8311 23.8611L32.6363 23.6157L33.154 29.5331L26.9737 30.0738L26.2949 22.3154C26.1185 20.2991 26.462 18.841 27.3255 17.9409C28.2183 17.0384 29.4524 16.5034 31.0278 16.3362L32.6496 16.1943ZM23.0941 17.0303L23.374 20.2301L22.545 20.3467C21.5807 20.4311 20.9145 20.725 20.5463 21.2283C20.2073 21.7291 20.0723 22.374 20.1413 23.163L20.2756 24.6971L23.0808 24.4517L23.5985 30.3691L17.4182 30.9098L16.7394 23.1514C16.563 21.1351 16.9065 19.677 17.77 18.7769C18.6628 17.8744 19.8969 17.3394 21.4723 17.1722L23.0941 17.0303Z" fill="black"/>
<defs>
<linearGradient id="paint0_linear_4195_844" x1="8.35942" y1="6.94249" x2="36.2313" y2="45.3527" gradientUnits="userSpaceOnUse">
<stop stop-color="#00EB9A"/>
<stop offset="1" stop-color="#00EB9A" stop-opacity="0"/>
</linearGradient>
</defs>
</svg>
