<svg width="45" height="45" viewBox="0 0 45 45" fill="none" xmlns="http://www.w3.org/2000/svg">
<g clip-path="url(#clip0_48_18243)">
<path d="M13.662 20.4022L14.2414 20.7537L14.5859 20.1172C15.3627 18.8164 17.7397 15.7812 23 15.7812C28.3906 15.7812 30.6875 19.0775 31.4422 20.1622L31.8247 20.7575L33.0256 20L32.6253 19.3737C32.2091 18.7714 31.3353 17.5208 29.7763 16.4159C27.882 15.0697 25.6016 14.3867 23 14.3867C16.9967 14.3867 14.2489 17.9075 13.3438 19.4141L12.9983 20L13.5313 20.3216C13.5555 20.3405 13.581 20.3577 13.6077 20.3731C13.6253 20.3838 13.6434 20.3935 13.662 20.4022Z" fill="#00EB9A"/>
<path d="M28.7759 19.0775C27.11 17.7214 25.1141 17.0033 23 17.0033C18.4288 17.0033 15.3917 20.097 14.4064 23.166C13.5041 26 14.6009 30.1067 14.6469 30.2825L14.8522 30.9299L16.2552 30.6285L16.033 29.9253C16.0231 29.8902 14.997 26.038 15.7794 23.5874C16.2013 22.2711 17.0792 20.9905 18.1864 20.0816C19.5224 18.987 21.1883 18.4063 23 18.4063C27.2459 18.4063 29.653 21.7161 30.3336 23.4739C30.8619 24.83 30.74 26.3717 30.0392 27.3177C29.78 27.6641 29.323 28.071 28.6274 28.0358C27.0425 27.9552 26.7683 27.1719 26.3872 25.6803C26.2044 24.9622 26.0169 24.2188 25.5495 23.6178C24.9805 22.8795 24.1527 22.5228 23.0052 22.5228C21.7709 22.5228 20.8363 22.9297 20.2217 23.7285C18.8811 25.476 19.753 28.4595 19.79 28.5852L19.8003 28.625C19.8664 28.806 21.4916 33.1555 25.8439 34.235L26.5363 34.3855L26.9155 33.0397L26.1997 32.8789C22.7206 32.015 21.268 28.4544 21.1564 28.1731C21.0307 27.7167 20.9506 27.249 20.9174 26.7767C20.8667 26.0989 20.9024 25.1647 21.3594 24.567C21.6945 24.1302 22.2331 23.9192 23 23.9192C24.3964 23.9192 24.6303 24.6022 24.9959 26.0188C25.3513 27.3997 25.8397 29.293 28.551 29.4289C29.592 29.4791 30.5319 29.0169 31.1919 28.1328C32.1824 26.8072 32.3703 24.778 31.6695 22.97C31.122 21.5469 30.066 20.1322 28.7759 19.0775Z" fill="#00EB9A"/>
<path d="M18.2271 27.088C18.0645 25.7623 18.2932 23.7598 19.4717 22.4577C20.2892 21.5534 21.4774 21.0983 22.9962 21.0983C24.7535 21.0983 26.0839 21.882 26.9576 23.4238C27.3876 24.1974 27.6717 25.0435 27.7957 25.9198L27.8628 26.6084L29.269 26.5053C29.2703 26.2608 29.2547 26.0164 29.2221 25.7741C29.217 25.7141 29.0548 24.2525 28.2378 22.7858C27.1099 20.765 25.302 19.6953 22.9999 19.6953C21.0546 19.6953 19.5054 20.3131 18.4034 21.5286C16.9104 23.1758 16.6057 25.5716 16.8139 27.2637V27.2792C17.1874 29.8353 18.1718 31.8795 19.9132 33.7077L20.457 34.2336L21.439 33.2122L20.9543 32.7533C19.4206 31.1464 18.552 29.3483 18.2271 27.088Z" fill="#00EB9A"/>
<path d="M17.2095 14.4059C17.7289 14.0909 19.5659 13.1511 23 13.1511C27.1034 13.1511 28.9269 14.4973 28.947 14.5072L29.5986 14.9225L30.3594 13.7408L29.7397 13.3395C29.7153 13.3217 29.69 13.3039 29.6647 13.287C29.0703 12.9003 26.9628 11.75 23 11.75C18.8886 11.75 16.7773 12.9912 16.2777 13.3302L15.6406 13.7431L16.4 14.9248L17.2095 14.4059Z" fill="#00EB9A"/>
<path d="M29.3089 30.4629C27.7447 30.6387 26.4753 30.3378 25.5257 29.5793C23.9207 28.2936 23.7125 26.0586 23.7074 26.0168L23.6497 25.3193L22.2186 25.4239L22.28 26.127C22.2903 26.2423 22.5238 28.9746 24.606 30.6523C25.6424 31.4909 26.9375 31.9128 28.461 31.9128C28.7987 31.9121 29.1362 31.8919 29.4716 31.8523L30.2493 31.7543L29.9633 30.3617L29.3089 30.4629Z" fill="#00EB9A"/>
</g>
<defs>
<clipPath id="clip0_48_18243">
<rect width="24" height="24" fill="white" transform="translate(11 11)"/>
</clipPath>
</defs>
</svg>
