<svg width="1175" height="726" viewBox="0 0 1175 726" fill="none" xmlns="http://www.w3.org/2000/svg">
<g opacity="0.5" filter="url(#filter0_dddddd_4195_563)">
<path d="M629.709 128.482L630.435 129.216L631.887 131.126L633.775 134.064L635.227 136.707L636.97 140.086L638.567 143.611L641.471 150.955L643.359 156.096L644.375 159.474L645.101 162.853L645.392 164.468L647.86 162.999L650.328 161.824L653.378 160.796L657.008 160.062L658.315 159.915H663.252L666.882 160.502L669.931 161.384L672.109 162.265L674.433 163.44L676.611 164.909L678.643 166.525L681.257 169.169L683 171.519L683.871 172.841L683.726 173.134L682.128 171.225L680.676 169.756L679.079 168.434L676.756 166.818L673.997 165.35L670.076 164.028L667.317 163.44L664.268 163.146H662.816L660.493 163.44L658.75 164.321L658.024 165.056L657.153 166.378L656.572 167.993L655.991 171.225L655.12 175.778L653.813 181.066L652.071 187.235L650.764 191.054L649.167 194.873L647.86 197.664L645.972 201.042L644.52 203.539L642.923 205.889L641.181 208.239L639.583 210.296L637.696 212.499L635.518 214.849L633.63 216.759L632.468 217.787L630.29 219.696L627.822 221.606L625.208 223.515L622.449 225.278L619.109 227.187L615.334 229.097L611.123 230.859L605.896 232.622L601.83 233.65L597.038 234.531L593.408 234.972L591.375 235.119H582.663L578.162 234.678L573.805 233.944L569.885 233.063L565.529 231.741L561.899 230.419L558.559 228.95L555.51 227.481L552.17 225.572L548.975 223.515L546.362 221.606L544.329 219.99L542.441 218.374L541.28 217.346L539.537 215.73L536.923 213.086L535.907 211.911L534.165 209.855L532.277 207.358L530.389 204.714L528.502 201.63L527.195 199.279L525.452 195.901L523.855 192.229L522.258 187.823L520.806 182.682L519.208 176.513L518.337 172.253L517.611 167.993L516.885 166.084L516.014 164.909L514.997 164.028L513.545 163.44L511.222 163.146L508.028 163.293L505.269 163.734L502.074 164.615L499.315 165.79L497.137 166.965L495.104 168.434L493.217 170.05L491.329 171.959L490.603 172.841V172.4L492.055 170.344L493.362 168.728L495.83 166.231L497.718 164.762L499.751 163.44L503.381 161.678L506.576 160.649L509.625 160.062L510.932 159.915H516.014L519.644 160.502L522.693 161.384L525.743 162.706L527.921 163.881L528.937 164.468L529.082 162.706L529.808 159.327L531.115 155.068L533.729 148.164L535.907 142.877L538.23 138.029L539.682 135.239L541.425 132.448L543.022 130.098L544.184 128.629V129.07L542.296 132.007L540.554 135.092L539.247 137.589L537.649 141.261L536.052 145.667L534.891 149.78L534.019 153.599L533.293 158.446L533.003 161.824V169.022L533.148 170.49L534.455 168.434L535.907 166.818L537.795 165.35L540.118 164.175L542.586 163.44L543.458 163.293H546.652L548.54 163.734L550.282 164.615L551.734 165.937L552.606 167.7L553.041 169.903V171.372L554.638 170.637L556.09 170.344H557.688L559.866 170.784L562.044 171.666L563.496 172.694L565.093 174.163L566.545 176.219L567.707 178.716L566.69 170.931L566.11 167.259L565.964 165.643V163.881H566.11L566.69 168.14L567.852 174.163L568.288 178.128L568.433 180.479V183.269L568.288 185.766L568.433 185.619L569.595 183.857L570.901 182.388L571.918 181.36L573.515 180.332L575.258 179.45L576.129 179.157H576.855L576.274 175.631V170.49L576.564 170.197L577.29 176.953L577.871 180.772V182.976L577.436 186.06L576.419 189.732L575.548 193.257L574.822 197.517L574.386 202.07V207.946L574.677 211.177L575.258 214.262L576.274 217.346L577.871 220.431L579.033 222.046L580.775 224.103L582.227 225.425L584.26 226.893L586.293 228.068L588.181 228.95L587.6 228.656L585.131 227.334L583.534 226.159L582.082 224.837L580.63 223.368L579.178 221.312L578.016 219.109L577.145 216.465L576.564 213.527L576.274 210.736V206.036L576.71 202.658L577.436 199.426L578.307 196.489L579.468 193.404L581.356 188.998L582.663 184.885L583.679 180.625L583.97 179.45L584.115 180.038L583.534 183.416L582.663 187.235L581.356 191.201L579.904 195.02L578.888 198.398L578.162 201.63L577.726 205.008V209.855L578.162 213.38L578.742 215.877L579.614 218.08L580.63 219.99L582.082 221.899L583.97 223.809L586.148 225.425L589.197 227.04L592.247 228.068L594.425 228.509L595.731 228.656H599.652L600.959 228.509L602.556 227.628L603.863 226.6L605.17 225.425L606.477 223.662L607.783 221.165L608.509 218.962L608.945 216.171L608.8 213.674L608.219 211.471L607.203 208.974L605.751 206.477L604.008 204.127L602.411 202.217L600.814 200.455L599.362 198.692L598.49 197.076L598.055 195.754V193.257L598.636 191.495V191.201L597.91 192.523L597.619 193.992V195.461L598.055 197.664L598.781 199.426L599.942 201.483L602.556 205.449L603.718 207.799L604.444 210.296L604.734 212.205V215.143L604.299 217.199L603.718 218.668L602.411 220.577L601.104 221.753L599.362 222.634L598.2 222.928H595.151L592.827 222.34L590.504 221.165L588.616 219.843L587.31 218.521L586.003 216.465L585.131 214.262L584.551 211.618L584.405 210.443V204.127L584.986 200.748L585.712 198.251L587.164 194.726L588.762 191.642L589.923 190.026L591.956 187.382L593.699 184.444L595.151 181.066L596.312 177.541L597.183 173.575L597.619 170.637L597.91 170.344V175.484L597.474 178.128L597.183 179.01L598.781 179.45L601.104 180.625L602.701 181.8L604.153 183.269L605.17 184.738L605.751 185.766V180.185L606.041 176.219L606.622 172.4L607.783 166.231L607.929 165.203H608.074V167.112L606.912 175.044L606.477 178.716L607.057 177.247L608.219 175.338L609.526 173.722L610.978 172.4L612.72 171.372L614.898 170.637L616.496 170.344H617.948L619.981 170.784L621.142 171.372V169.756L621.578 167.553L622.449 165.937L623.466 164.909L624.918 164.028L626.805 163.44L627.531 163.293H630.581L632.759 163.734L634.646 164.468L636.534 165.496L637.841 166.525L639.003 167.553L640.309 169.315L640.89 170.344V170.637H641.181V162.118L640.745 157.418L640.019 153.158L639.003 148.752L637.696 144.492L636.244 140.673L634.646 137.148L632.613 133.182L630.581 129.951L629.709 128.776V128.482Z" fill="#00EB9A"/>
<path d="M584.551 97.3429H589.488L595.296 97.7835L600.668 98.6648L604.444 99.5461L609.235 101.015L613.446 102.631L616.931 104.246L620.561 106.156L623.466 107.918L625.208 109.094L627.677 110.856L630.29 112.912L632.468 114.822L634.356 116.585L637.26 119.522L638.276 120.697L640.019 122.754L641.907 125.251L643.649 127.748L645.682 130.979L646.844 133.035L646.698 133.329L644.811 131.86L642.197 129.951L638.857 127.748L635.953 125.985L632.904 124.222L629.274 122.313L624.482 120.11L619.4 118.053L614.027 116.144L608.8 114.528L609.381 114.822L611.414 115.703L612.43 116.585L613.011 117.906V118.935L613.882 119.228L615.77 120.55L617.077 121.725L618.674 123.782L619.981 125.838L621.142 128.041L622.594 131.86L623.32 134.798L623.611 136.707L623.756 139.792L623.466 142.436L622.885 144.639L622.159 146.402L621.142 148.164L619.545 149.927L618.238 151.102L616.06 152.424L613.301 153.452L611.849 153.746H608.074L606.912 153.599L604.444 154.921L602.12 155.802L599.797 156.39H597.474L595.005 155.949L591.956 155.068L589.778 154.187L590.359 154.04L593.263 154.921L595.151 155.215L594.279 153.893L593.699 152.277L593.553 150.514L593.844 149.339L594.57 148.164L595.877 147.43L596.603 147.136L595.877 146.402L596.603 146.695L598.781 147.871L599.652 148.605L600.523 150.074L600.959 150.955V151.249L601.685 151.543L602.846 151.396L604.008 151.102L603.282 150.808L602.992 150.074L602.266 149.78L601.249 147.871L599.216 146.695L599.071 146.402L599.942 146.695L601.83 147.43L605.025 148.164L606.912 148.899L607.203 149.046L606.912 149.927L606.331 150.514H606.041V150.808L607.638 150.514L608.364 150.074L608.655 149.633L609.962 149.927L610.107 149.486V148.164L609.962 146.842H608.509L608.074 146.549V145.961L609.962 146.402L609.526 144.198L608.8 145.227L607.638 145.374L606.477 144.492L604.879 144.198L604.008 143.611L603.572 142.73L604.299 143.023L606.186 143.758L605.751 142.583L600.814 139.058L599.071 137.883L597.329 135.973L595.441 134.504L593.408 133.182L591.956 132.007L591.085 130.832L590.504 129.804L590.649 130.979L591.52 132.742L592.682 133.77L594.134 134.798L595.005 135.532L595.151 136.414L594.425 136.707L592.537 136.12L589.778 135.239L586.874 134.651L585.712 134.504L579.178 134.357L577.29 133.917L575.984 133.182L576.564 133.917L578.307 134.945L579.614 135.386L581.356 135.679L585.277 135.826L588.036 136.12L589.778 136.707L591.375 137.736L591.956 138.47V139.351L591.23 139.939L587.164 140.82L585.422 141.555L586.584 142.142V142.73L583.099 144.052L582.082 144.639L583.389 145.08L583.534 145.667L582.518 146.402L580.049 147.577L579.033 148.311L578.888 148.605L579.614 148.752L580.194 149.339L580.049 150.074L577.436 151.983L574.967 153.746L574.386 154.04L575.112 154.48L575.258 155.068L574.677 155.508L573.225 155.949H570.901L569.159 155.068L567.562 153.893L566.836 153.599L566.11 153.746H562.479L560.447 153.305L558.123 152.424L556.236 151.249L554.784 150.074L553.332 148.605L551.88 146.255L551.008 143.905L550.573 141.701L550.427 140.38V137.883L550.863 134.651L551.734 131.42L552.896 128.335L554.493 125.251L555.945 123.194L557.252 121.725L558.704 120.257L560.737 118.935L561.027 118.788L561.463 117.025L562.334 115.997L564.367 114.969L565.384 114.528L560.156 116.144L555.51 117.76L551.444 119.375L547.814 120.991L544.184 122.754L540.989 124.369L537.649 126.279L534.165 128.482L530.97 130.685L528.211 132.742L527.34 133.329L527.63 132.448L529.082 129.951L530.825 127.307L532.277 125.251L533.729 123.341L535.326 121.432L536.633 119.963L537.649 118.788L540.989 115.409L542.151 114.381L544.184 112.619L547.088 110.415L549.847 108.506L552.896 106.597L556.09 104.834L559.721 103.071L564.512 101.162L568.723 99.8399L572.789 98.8117L577.871 97.9304L582.082 97.4898L584.551 97.3429Z" fill="#00EB9A"/>
</g>
<g filter="url(#filter1_f_4195_563)">
<path d="M637.105 158.167L637.962 158.773L639.675 160.348L641.902 162.77L643.615 164.951L645.67 167.737L647.554 170.645L650.98 176.701L653.207 180.941L654.406 183.728L655.263 186.514L655.606 187.846L658.518 186.635L661.43 185.666L665.027 184.818L669.31 184.212L670.851 184.091H676.675L680.958 184.576L684.555 185.302L687.125 186.029L689.865 186.998L692.435 188.21L694.833 189.542L697.917 191.723L699.972 193.661L701 194.751L700.829 194.993L698.944 193.419L697.231 192.207L695.347 191.117L692.606 189.785L689.352 188.573L684.727 187.483L681.472 186.998L677.875 186.756H676.162L673.421 186.998L671.365 187.725L670.509 188.331L669.481 189.421L668.796 190.754L668.11 193.419L667.083 197.174L665.541 201.535L663.485 206.623L661.944 209.772L660.059 212.922L658.518 215.224L656.291 218.01L654.578 220.069L652.693 222.008L650.638 223.946L648.754 225.642L646.527 227.459L643.957 229.397L641.73 230.972L640.36 231.82L637.79 233.395L634.878 234.969L631.795 236.544L628.54 237.998L624.6 239.573L620.146 241.148L615.179 242.601L609.012 244.055L604.216 244.903L598.563 245.63L594.28 245.993L591.882 246.114H581.604L576.294 245.751L571.155 245.145L566.53 244.418L561.391 243.328L557.108 242.238L553.168 241.026L549.571 239.815L545.631 238.24L541.863 236.544L538.779 234.969L536.381 233.637L534.154 232.304L532.784 231.456L530.728 230.124L527.645 227.943L526.446 226.974L524.39 225.278L522.163 223.219L519.936 221.038L517.709 218.495L516.168 216.556L514.112 213.77L512.228 210.742L510.343 207.107L508.63 202.868L506.746 197.78L505.718 194.267L504.862 190.754L504.005 189.179L502.977 188.21L501.778 187.483L500.065 186.998L497.325 186.756L493.556 186.877L490.301 187.241L486.533 187.967L483.278 188.937L480.708 189.906L478.31 191.117L476.083 192.45L473.856 194.024L473 194.751V194.388L474.713 192.692L476.255 191.359L479.167 189.3L481.394 188.089L483.792 186.998L488.074 185.545L491.843 184.697L495.44 184.212L496.982 184.091H502.977L507.26 184.576L510.857 185.302L514.455 186.393L517.024 187.362L518.223 187.846L518.394 186.393L519.251 183.606L520.793 180.093L523.876 174.4L526.446 170.039L529.186 166.041L530.899 163.74L532.955 161.438L534.839 159.5L536.21 158.288V158.652L533.983 161.075L531.927 163.618L530.385 165.678L528.501 168.706L526.617 172.34L525.246 175.732L524.219 178.882L523.362 182.88L523.02 185.666V191.602L523.191 192.813L524.733 191.117L526.446 189.785L528.672 188.573L531.413 187.604L534.325 186.998L535.353 186.877H539.122L541.349 187.241L543.404 187.967L545.117 189.058L546.145 190.511L546.659 192.328V193.54L548.543 192.934L550.256 192.692H552.14L554.71 193.055L557.279 193.782L558.992 194.63L560.877 195.841L562.59 197.537L563.96 199.597L562.761 193.176L562.076 190.148L561.905 188.815V187.362H562.076L562.761 190.875L564.131 195.841L564.645 199.112L564.817 201.05V203.352L564.645 205.411L564.817 205.29L566.187 203.837L567.729 202.625L568.928 201.777L570.812 200.929L572.868 200.202L573.896 199.96H574.752L574.067 197.053V192.813L574.409 192.571L575.266 198.143L575.951 201.293V203.11L575.437 205.654L574.238 208.682L573.21 211.59L572.354 215.103L571.84 218.858V223.703L572.183 226.369L572.868 228.912L574.067 231.456L575.951 234L577.322 235.333L579.377 237.029L581.09 238.119L583.488 239.33L585.887 240.3L588.113 241.026L587.428 240.784L584.516 239.694L582.632 238.725L580.919 237.634L579.206 236.423L577.493 234.727L576.122 232.91L575.095 230.73L574.409 228.307L574.067 226.005V222.129L574.581 219.342L575.437 216.677L576.465 214.255L577.835 211.711L580.062 208.077L581.604 204.685L582.803 201.172L583.146 200.202L583.317 200.687L582.632 203.473L581.604 206.623L580.062 209.894L578.349 213.043L577.15 215.829L576.294 218.495L575.78 221.281V225.278L576.294 228.186L576.979 230.245L578.007 232.062L579.206 233.637L580.919 235.212L583.146 236.787L585.715 238.119L589.313 239.452L592.91 240.3L595.479 240.663L597.021 240.784H601.646L603.188 240.663L605.072 239.936L606.614 239.088L608.156 238.119L609.697 236.665L611.239 234.606L612.095 232.789L612.609 230.487L612.438 228.428L611.753 226.611L610.554 224.551L608.841 222.492L606.785 220.554L604.901 218.979L603.017 217.525L601.304 216.072L600.276 214.739L599.762 213.649V211.59L600.447 210.136V209.894L599.591 210.984L599.248 212.195V213.407L599.762 215.224L600.618 216.677L601.989 218.373L605.072 221.644L606.443 223.582L607.299 225.642L607.642 227.217V229.639L607.128 231.335L606.443 232.547L604.901 234.121L603.359 235.091L601.304 235.817L599.933 236.06H596.336L593.595 235.575L590.854 234.606L588.627 233.516L587.086 232.426L585.544 230.73L584.516 228.912L583.831 226.732L583.66 225.763V220.554L584.345 217.768L585.201 215.708L586.914 212.801L588.799 210.257L590.169 208.925L592.567 206.744L594.623 204.321L596.336 201.535L597.706 198.628L598.734 195.357L599.248 192.934L599.591 192.692V196.932L599.077 199.112L598.734 199.839L600.618 200.202L603.359 201.172L605.243 202.141L606.956 203.352L608.156 204.563L608.841 205.411V200.808L609.183 197.537L609.869 194.388L611.239 189.3L611.41 188.452H611.581V190.027L610.211 196.568L609.697 199.597L610.382 198.385L611.753 196.811L613.295 195.478L615.008 194.388L617.063 193.54L619.633 192.934L621.517 192.692H623.23L625.628 193.055L626.998 193.54V192.207L627.512 190.39L628.54 189.058L629.739 188.21L631.452 187.483L633.679 186.998L634.536 186.877H638.133L640.702 187.241L642.929 187.846L645.156 188.694L646.698 189.542L648.068 190.39L649.61 191.844L650.295 192.692V192.934H650.638V185.908L650.124 182.032L649.267 178.519L648.068 174.884L646.527 171.371L644.814 168.222L642.929 165.314L640.531 162.044L638.133 159.379L637.105 158.409V158.167Z" fill="url(#paint0_linear_4195_563)"/>
<path d="M583.831 132.486H589.655L596.507 132.849L602.845 133.576L607.299 134.303L612.952 135.514L617.92 136.847L622.031 138.179L626.313 139.754L629.739 141.208L631.795 142.177L634.707 143.63L637.79 145.326L640.36 146.901L642.587 148.355L646.013 150.778L647.212 151.747L649.267 153.443L651.494 155.502L653.55 157.561L655.948 160.227L657.319 161.922L657.147 162.165L654.92 160.953L651.837 159.379L647.897 157.561L644.471 156.108L640.874 154.654L636.591 153.079L630.938 151.262L624.943 149.566L618.605 147.991L612.438 146.659L613.123 146.901L615.521 147.628L616.721 148.355L617.406 149.445V150.293L618.434 150.535L620.66 151.626L622.202 152.595L624.086 154.291L625.628 155.987L626.999 157.804L628.711 160.953L629.568 163.376L629.911 164.951L630.082 167.495L629.739 169.675L629.054 171.492L628.198 172.946L626.999 174.4L625.114 175.854L623.573 176.823L621.003 177.913L617.748 178.761L616.035 179.003H611.582L610.211 178.882L607.299 179.972L604.558 180.699L601.817 181.184H599.077L596.165 180.82L592.567 180.093L589.998 179.367L590.683 179.245L594.109 179.972L596.336 180.215L595.308 179.124L594.623 177.792L594.452 176.338L594.794 175.369L595.651 174.4L597.192 173.794L598.049 173.552L597.192 172.946L598.049 173.188L600.618 174.158L601.646 174.763L602.674 175.975L603.188 176.701V176.944L604.044 177.186L605.415 177.065L606.785 176.823L605.929 176.58L605.586 175.975L604.73 175.732L603.53 174.158L601.132 173.188L600.961 172.946L601.989 173.188L604.216 173.794L607.984 174.4L610.211 175.006L610.554 175.127L610.211 175.854L609.526 176.338H609.183V176.58L611.068 176.338L611.924 175.975L612.267 175.611L613.808 175.854L613.98 175.49V174.4L613.808 173.31H612.095L611.582 173.067V172.583L613.808 172.946L613.295 171.129L612.438 171.977L611.068 172.098L609.697 171.371L607.813 171.129L606.785 170.645L606.271 169.918L607.128 170.16L609.355 170.766L608.841 169.797L603.017 166.889L600.961 165.92L598.905 164.345L596.678 163.134L594.28 162.044L592.567 161.075L591.539 160.105L590.854 159.257L591.026 160.227L592.053 161.68L593.424 162.528L595.137 163.376L596.165 163.982L596.336 164.709L595.479 164.951L593.252 164.466L589.998 163.74L586.572 163.255L585.201 163.134L577.493 163.013L575.266 162.649L573.724 162.044L574.409 162.649L576.465 163.497L578.007 163.861L580.062 164.103L584.687 164.224L587.942 164.466L589.998 164.951L591.882 165.799L592.567 166.405V167.131L591.711 167.616L586.914 168.343L584.859 168.949L586.229 169.433V169.918L582.118 171.008L580.919 171.492L582.461 171.856L582.632 172.34L581.433 172.946L578.521 173.915L577.322 174.521L577.15 174.763L578.007 174.884L578.692 175.369L578.521 175.975L575.437 177.549L572.525 179.003L571.84 179.245L572.696 179.609L572.868 180.093L572.183 180.457L570.47 180.82H567.729L565.673 180.093L563.789 179.124L562.932 178.882L562.076 179.003H557.793L555.395 178.64L552.654 177.913L550.427 176.944L548.715 175.975L547.001 174.763L545.289 172.825L544.261 170.887L543.747 169.07L543.576 167.979V165.92L544.089 163.255L545.117 160.59L546.488 158.046L548.372 155.502L550.085 153.806L551.627 152.595L553.34 151.383L555.738 150.293L556.08 150.172L556.594 148.718L557.622 147.87L560.02 147.022L561.219 146.659L555.053 147.991L549.571 149.324L544.775 150.657L540.492 151.989L536.21 153.443L532.441 154.775L528.501 156.35L524.39 158.167L520.621 159.984L517.367 161.68L516.339 162.165L516.681 161.438L518.394 159.379L520.45 157.198L522.163 155.502L523.876 153.927L525.76 152.353L527.302 151.141L528.501 150.172L532.441 147.386L533.811 146.538L536.21 145.084L539.636 143.267L542.89 141.692L546.488 140.117L550.256 138.664L554.539 137.21L560.192 135.635L565.159 134.545L569.956 133.697L575.951 132.97L580.919 132.607L583.831 132.486Z" fill="url(#paint1_linear_4195_563)"/>
</g>
<g filter="url(#filter2_f_4195_563)">
<path d="M629.709 152.363L630.435 153.098L631.887 155.007L633.775 157.945L635.227 160.589L636.97 163.967L638.567 167.492L641.471 174.836L643.359 179.977L644.375 183.355L645.101 186.734L645.392 188.349L647.86 186.881L650.328 185.706L653.378 184.677L657.008 183.943L658.315 183.796H663.252L666.882 184.384L669.931 185.265L672.109 186.146L674.433 187.321L676.611 188.79L678.643 190.406L681.257 193.05L683 195.4L683.871 196.722L683.726 197.015L682.128 195.106L680.676 193.637L679.079 192.315L676.756 190.7L673.997 189.231L670.076 187.909L667.317 187.321L664.268 187.027H662.816L660.493 187.321L658.75 188.203L658.024 188.937L657.153 190.259L656.572 191.875L655.991 195.106L655.12 199.659L653.813 204.947L652.071 211.116L650.764 214.935L649.167 218.754L647.86 221.545L645.972 224.923L644.52 227.42L642.923 229.77L641.181 232.12L639.583 234.177L637.696 236.38L635.518 238.73L633.63 240.64L632.468 241.668L630.29 243.577L627.822 245.487L625.208 247.396L622.449 249.159L619.109 251.068L615.334 252.978L611.123 254.74L605.896 256.503L601.83 257.531L597.038 258.412L593.408 258.853L591.375 259H582.663L578.162 258.559L573.805 257.825L569.885 256.944L565.529 255.622L561.899 254.3L558.559 252.831L555.51 251.362L552.17 249.453L548.975 247.396L546.362 245.487L544.329 243.871L542.441 242.255L541.28 241.227L539.537 239.611L536.923 236.968L535.907 235.793L534.165 233.736L532.277 231.239L530.389 228.595L528.502 225.511L527.195 223.161L525.452 219.782L523.855 216.11L522.258 211.704L520.806 206.563L519.208 200.394L518.337 196.134L517.611 191.875L516.885 189.965L516.014 188.79L514.997 187.909L513.545 187.321L511.222 187.027L508.028 187.174L505.269 187.615L502.074 188.496L499.315 189.671L497.137 190.846L495.104 192.315L493.217 193.931L491.329 195.84L490.603 196.722V196.281L492.055 194.225L493.362 192.609L495.83 190.112L497.718 188.643L499.751 187.321L503.381 185.559L506.576 184.53L509.625 183.943L510.932 183.796H516.014L519.644 184.384L522.693 185.265L525.743 186.587L527.921 187.762L528.937 188.349L529.082 186.587L529.808 183.209L531.115 178.949L533.729 172.045L535.907 166.758L538.23 161.911L539.682 159.12L541.425 156.329L543.022 153.979L544.184 152.51V152.951L542.296 155.888L540.554 158.973L539.247 161.47L537.649 165.142L536.052 169.548L534.891 173.661L534.019 177.48L533.293 182.327L533.003 185.706V192.903L533.148 194.372L534.455 192.315L535.907 190.7L537.795 189.231L540.118 188.056L542.586 187.321L543.458 187.174H546.652L548.54 187.615L550.282 188.496L551.734 189.818L552.606 191.581L553.041 193.784V195.253L554.638 194.518L556.09 194.225H557.688L559.866 194.665L562.044 195.547L563.496 196.575L565.093 198.044L566.545 200.1L567.707 202.597L566.69 194.812L566.11 191.14L565.964 189.524V187.762H566.11L566.69 192.021L567.852 198.044L568.288 202.009L568.433 204.36V207.15L568.288 209.647L568.433 209.501L569.595 207.738L570.901 206.269L571.918 205.241L573.515 204.213L575.258 203.331L576.129 203.038H576.855L576.274 199.512V194.372L576.564 194.078L577.29 200.834L577.871 204.653V206.857L577.436 209.941L576.419 213.613L575.548 217.138L574.822 221.398L574.386 225.951V231.827L574.677 235.058L575.258 238.143L576.274 241.227L577.871 244.312L579.033 245.927L580.775 247.984L582.227 249.306L584.26 250.775L586.293 251.95L588.181 252.831L587.6 252.537L585.131 251.215L583.534 250.04L582.082 248.718L580.63 247.249L579.178 245.193L578.016 242.99L577.145 240.346L576.564 237.408L576.274 234.617V229.917L576.71 226.539L577.436 223.307L578.307 220.37L579.468 217.285L581.356 212.879L582.663 208.766L583.679 204.507L583.97 203.331L584.115 203.919L583.534 207.297L582.663 211.116L581.356 215.082L579.904 218.901L578.888 222.279L578.162 225.511L577.726 228.889V233.736L578.162 237.261L578.742 239.758L579.614 241.962L580.63 243.871L582.082 245.781L583.97 247.69L586.148 249.306L589.197 250.921L592.247 251.95L594.425 252.39L595.731 252.537H599.652L600.959 252.39L602.556 251.509L603.863 250.481L605.17 249.306L606.477 247.543L607.783 245.046L608.509 242.843L608.945 240.052L608.8 237.555L608.219 235.352L607.203 232.855L605.751 230.358L604.008 228.008L602.411 226.098L600.814 224.336L599.362 222.573L598.49 220.957L598.055 219.635V217.138L598.636 215.376V215.082L597.91 216.404L597.619 217.873V219.342L598.055 221.545L598.781 223.307L599.942 225.364L602.556 229.33L603.718 231.68L604.444 234.177L604.734 236.086V239.024L604.299 241.08L603.718 242.549L602.411 244.459L601.104 245.634L599.362 246.515L598.2 246.809H595.151L592.827 246.221L590.504 245.046L588.616 243.724L587.31 242.402L586.003 240.346L585.131 238.143L584.551 235.499L584.405 234.324V228.008L584.986 224.629L585.712 222.132L587.164 218.607L588.762 215.523L589.923 213.907L591.956 211.263L593.699 208.325L595.151 204.947L596.312 201.422L597.183 197.456L597.619 194.518L597.91 194.225V199.366L597.474 202.009L597.183 202.891L598.781 203.331L601.104 204.507L602.701 205.682L604.153 207.15L605.17 208.619L605.751 209.647V204.066L606.041 200.1L606.622 196.281L607.783 190.112L607.929 189.084H608.074V190.993L606.912 198.925L606.477 202.597L607.057 201.128L608.219 199.219L609.526 197.603L610.978 196.281L612.72 195.253L614.898 194.518L616.496 194.225H617.948L619.981 194.665L621.142 195.253V193.637L621.578 191.434L622.449 189.818L623.466 188.79L624.918 187.909L626.805 187.321L627.531 187.174H630.581L632.759 187.615L634.646 188.349L636.534 189.378L637.841 190.406L639.003 191.434L640.309 193.197L640.89 194.225V194.518H641.181V185.999L640.745 181.299L640.019 177.039L639.003 172.633L637.696 168.373L636.244 164.554L634.646 161.029L632.613 157.063L630.581 153.832L629.709 152.657V152.363Z" fill="#00EB9A"/>
<path d="M584.551 121.224H589.488L595.296 121.665L600.668 122.546L604.444 123.427L609.235 124.896L613.446 126.512L616.931 128.127L620.561 130.037L623.466 131.8L625.208 132.975L627.677 134.737L630.29 136.794L632.468 138.703L634.356 140.466L637.26 143.403L638.276 144.578L640.019 146.635L641.907 149.132L643.649 151.629L645.682 154.86L646.844 156.917L646.698 157.21L644.811 155.741L642.197 153.832L638.857 151.629L635.953 149.866L632.904 148.104L629.274 146.194L624.482 143.991L619.4 141.934L614.027 140.025L608.8 138.409L609.381 138.703L611.414 139.584L612.43 140.466L613.011 141.788V142.816L613.882 143.11L615.77 144.431L617.077 145.607L618.674 147.663L619.981 149.719L621.142 151.922L622.594 155.741L623.32 158.679L623.611 160.589L623.756 163.673L623.466 166.317L622.885 168.52L622.159 170.283L621.142 172.045L619.545 173.808L618.238 174.983L616.06 176.305L613.301 177.333L611.849 177.627H608.074L606.912 177.48L604.444 178.802L602.12 179.683L599.797 180.271H597.474L595.005 179.83L591.956 178.949L589.778 178.068L590.359 177.921L593.263 178.802L595.151 179.096L594.279 177.774L593.699 176.158L593.553 174.396L593.844 173.22L594.57 172.045L595.877 171.311L596.603 171.017L595.877 170.283L596.603 170.577L598.781 171.752L599.652 172.486L600.523 173.955L600.959 174.836V175.13L601.685 175.424L602.846 175.277L604.008 174.983L603.282 174.689L602.992 173.955L602.266 173.661L601.249 171.752L599.216 170.577L599.071 170.283L599.942 170.577L601.83 171.311L605.025 172.045L606.912 172.78L607.203 172.927L606.912 173.808L606.331 174.396H606.041V174.689L607.638 174.396L608.364 173.955L608.655 173.514L609.962 173.808L610.107 173.367V172.045L609.962 170.723H608.509L608.074 170.43V169.842L609.962 170.283L609.526 168.08L608.8 169.108L607.638 169.255L606.477 168.373L604.879 168.08L604.008 167.492L603.572 166.611L604.299 166.905L606.186 167.639L605.751 166.464L600.814 162.939L599.071 161.764L597.329 159.854L595.441 158.385L593.408 157.063L591.956 155.888L591.085 154.713L590.504 153.685L590.649 154.86L591.52 156.623L592.682 157.651L594.134 158.679L595.005 159.414L595.151 160.295L594.425 160.589L592.537 160.001L589.778 159.12L586.874 158.532L585.712 158.385L579.178 158.238L577.29 157.798L575.984 157.063L576.564 157.798L578.307 158.826L579.614 159.267L581.356 159.56L585.277 159.707L588.036 160.001L589.778 160.589L591.375 161.617L591.956 162.351V163.232L591.23 163.82L587.164 164.701L585.422 165.436L586.584 166.023V166.611L583.099 167.933L582.082 168.52L583.389 168.961L583.534 169.548L582.518 170.283L580.049 171.458L579.033 172.192L578.888 172.486L579.614 172.633L580.194 173.22L580.049 173.955L577.436 175.864L574.967 177.627L574.386 177.921L575.112 178.361L575.258 178.949L574.677 179.39L573.225 179.83H570.901L569.159 178.949L567.562 177.774L566.836 177.48L566.11 177.627H562.479L560.447 177.186L558.123 176.305L556.236 175.13L554.784 173.955L553.332 172.486L551.88 170.136L551.008 167.786L550.573 165.583L550.427 164.261V161.764L550.863 158.532L551.734 155.301L552.896 152.216L554.493 149.132L555.945 147.075L557.252 145.607L558.704 144.138L560.737 142.816L561.027 142.669L561.463 140.906L562.334 139.878L564.367 138.85L565.384 138.409L560.156 140.025L555.51 141.641L551.444 143.256L547.814 144.872L544.184 146.635L540.989 148.25L537.649 150.16L534.165 152.363L530.97 154.566L528.211 156.623L527.34 157.21L527.63 156.329L529.082 153.832L530.825 151.188L532.277 149.132L533.729 147.222L535.326 145.313L536.633 143.844L537.649 142.669L540.989 139.291L542.151 138.262L544.184 136.5L547.088 134.297L549.847 132.387L552.896 130.478L556.09 128.715L559.721 126.952L564.512 125.043L568.723 123.721L572.789 122.693L577.871 121.812L582.082 121.371L584.551 121.224Z" fill="#00EB9A"/>
</g>
<path d="M629.709 128.482L630.435 129.216L631.887 131.126L633.775 134.064L635.227 136.707L636.97 140.086L638.567 143.611L641.471 150.955L643.359 156.096L644.375 159.474L645.101 162.853L645.392 164.468L647.86 162.999L650.328 161.824L653.378 160.796L657.008 160.062L658.315 159.915H663.252L666.882 160.502L669.931 161.384L672.109 162.265L674.433 163.44L676.611 164.909L678.643 166.525L681.257 169.169L683 171.519L683.871 172.841L683.726 173.134L682.128 171.225L680.676 169.756L679.079 168.434L676.756 166.818L673.997 165.35L670.076 164.028L667.317 163.44L664.268 163.146H662.816L660.493 163.44L658.75 164.321L658.024 165.056L657.153 166.378L656.572 167.993L655.991 171.225L655.12 175.778L653.813 181.066L652.071 187.235L650.764 191.054L649.167 194.873L647.86 197.664L645.972 201.042L644.52 203.539L642.923 205.889L641.181 208.239L639.583 210.296L637.696 212.499L635.518 214.849L633.63 216.759L632.468 217.787L630.29 219.696L627.822 221.606L625.208 223.515L622.449 225.278L619.109 227.187L615.334 229.097L611.123 230.859L605.896 232.622L601.83 233.65L597.038 234.531L593.408 234.972L591.375 235.119H582.663L578.162 234.678L573.805 233.944L569.885 233.063L565.529 231.741L561.899 230.419L558.559 228.95L555.51 227.481L552.17 225.572L548.975 223.515L546.362 221.606L544.329 219.99L542.441 218.374L541.28 217.346L539.537 215.73L536.923 213.086L535.907 211.911L534.165 209.855L532.277 207.358L530.389 204.714L528.502 201.63L527.195 199.279L525.452 195.901L523.855 192.229L522.258 187.823L520.806 182.682L519.208 176.513L518.337 172.253L517.611 167.993L516.885 166.084L516.014 164.909L514.997 164.028L513.545 163.44L511.222 163.146L508.028 163.293L505.269 163.734L502.074 164.615L499.315 165.79L497.137 166.965L495.104 168.434L493.217 170.05L491.329 171.959L490.603 172.841V172.4L492.055 170.344L493.362 168.728L495.83 166.231L497.718 164.762L499.751 163.44L503.381 161.678L506.576 160.649L509.625 160.062L510.932 159.915H516.014L519.644 160.502L522.693 161.384L525.743 162.706L527.921 163.881L528.937 164.468L529.082 162.706L529.808 159.327L531.115 155.068L533.729 148.164L535.907 142.877L538.23 138.029L539.682 135.239L541.425 132.448L543.022 130.098L544.184 128.629V129.07L542.296 132.007L540.554 135.092L539.247 137.589L537.649 141.261L536.052 145.667L534.891 149.78L534.019 153.599L533.293 158.446L533.003 161.824V169.022L533.148 170.49L534.455 168.434L535.907 166.818L537.795 165.35L540.118 164.175L542.586 163.44L543.458 163.293H546.652L548.54 163.734L550.282 164.615L551.734 165.937L552.606 167.7L553.041 169.903V171.372L554.638 170.637L556.09 170.344H557.688L559.866 170.784L562.044 171.666L563.496 172.694L565.093 174.163L566.545 176.219L567.707 178.716L566.69 170.931L566.11 167.259L565.964 165.643V163.881H566.11L566.69 168.14L567.852 174.163L568.288 178.128L568.433 180.479V183.269L568.288 185.766L568.433 185.619L569.595 183.857L570.901 182.388L571.918 181.36L573.515 180.332L575.258 179.45L576.129 179.157H576.855L576.274 175.631V170.49L576.564 170.197L577.29 176.953L577.871 180.772V182.976L577.436 186.06L576.419 189.732L575.548 193.257L574.822 197.517L574.386 202.07V207.946L574.677 211.177L575.258 214.262L576.274 217.346L577.871 220.431L579.033 222.046L580.775 224.103L582.227 225.425L584.26 226.893L586.293 228.068L588.181 228.95L587.6 228.656L585.131 227.334L583.534 226.159L582.082 224.837L580.63 223.368L579.178 221.312L578.016 219.109L577.145 216.465L576.564 213.527L576.274 210.736V206.036L576.71 202.658L577.436 199.426L578.307 196.489L579.468 193.404L581.356 188.998L582.663 184.885L583.679 180.625L583.97 179.45L584.115 180.038L583.534 183.416L582.663 187.235L581.356 191.201L579.904 195.02L578.888 198.398L578.162 201.63L577.726 205.008V209.855L578.162 213.38L578.742 215.877L579.614 218.08L580.63 219.99L582.082 221.899L583.97 223.809L586.148 225.425L589.197 227.04L592.247 228.068L594.425 228.509L595.731 228.656H599.652L600.959 228.509L602.556 227.628L603.863 226.6L605.17 225.425L606.477 223.662L607.783 221.165L608.509 218.962L608.945 216.171L608.8 213.674L608.219 211.471L607.203 208.974L605.751 206.477L604.008 204.127L602.411 202.217L600.814 200.455L599.362 198.692L598.49 197.076L598.055 195.754V193.257L598.636 191.495V191.201L597.91 192.523L597.619 193.992V195.461L598.055 197.664L598.781 199.426L599.942 201.483L602.556 205.449L603.718 207.799L604.444 210.296L604.734 212.205V215.143L604.299 217.199L603.718 218.668L602.411 220.577L601.104 221.753L599.362 222.634L598.2 222.928H595.151L592.827 222.34L590.504 221.165L588.616 219.843L587.31 218.521L586.003 216.465L585.131 214.262L584.551 211.618L584.405 210.443V204.127L584.986 200.748L585.712 198.251L587.164 194.726L588.762 191.642L589.923 190.026L591.956 187.382L593.699 184.444L595.151 181.066L596.312 177.541L597.183 173.575L597.619 170.637L597.91 170.344V175.484L597.474 178.128L597.183 179.01L598.781 179.45L601.104 180.625L602.701 181.8L604.153 183.269L605.17 184.738L605.751 185.766V180.185L606.041 176.219L606.622 172.4L607.783 166.231L607.929 165.203H608.074V167.112L606.912 175.044L606.477 178.716L607.057 177.247L608.219 175.338L609.526 173.722L610.978 172.4L612.72 171.372L614.898 170.637L616.496 170.344H617.948L619.981 170.784L621.142 171.372V169.756L621.578 167.553L622.449 165.937L623.466 164.909L624.918 164.028L626.805 163.44L627.531 163.293H630.581L632.759 163.734L634.646 164.468L636.534 165.496L637.841 166.525L639.003 167.553L640.309 169.315L640.89 170.344V170.637H641.181V162.118L640.745 157.418L640.019 153.158L639.003 148.752L637.696 144.492L636.244 140.673L634.646 137.148L632.613 133.182L630.581 129.951L629.709 128.776V128.482Z" fill="#121212"/>
<path d="M584.551 97.3429H589.488L595.296 97.7835L600.668 98.6648L604.444 99.5461L609.235 101.015L613.446 102.631L616.931 104.246L620.561 106.156L623.466 107.918L625.208 109.094L627.677 110.856L630.29 112.912L632.468 114.822L634.356 116.585L637.26 119.522L638.276 120.697L640.019 122.754L641.907 125.251L643.649 127.748L645.682 130.979L646.844 133.035L646.698 133.329L644.811 131.86L642.197 129.951L638.857 127.748L635.953 125.985L632.904 124.222L629.274 122.313L624.482 120.11L619.4 118.053L614.027 116.144L608.8 114.528L609.381 114.822L611.414 115.703L612.43 116.585L613.011 117.906V118.935L613.882 119.228L615.77 120.55L617.077 121.725L618.674 123.782L619.981 125.838L621.142 128.041L622.594 131.86L623.32 134.798L623.611 136.707L623.756 139.792L623.466 142.436L622.885 144.639L622.159 146.402L621.142 148.164L619.545 149.927L618.238 151.102L616.06 152.424L613.301 153.452L611.849 153.746H608.074L606.912 153.599L604.444 154.921L602.12 155.802L599.797 156.39H597.474L595.005 155.949L591.956 155.068L589.778 154.187L590.359 154.04L593.263 154.921L595.151 155.215L594.279 153.893L593.699 152.277L593.553 150.514L593.844 149.339L594.57 148.164L595.877 147.43L596.603 147.136L595.877 146.402L596.603 146.695L598.781 147.871L599.652 148.605L600.523 150.074L600.959 150.955V151.249L601.685 151.543L602.846 151.396L604.008 151.102L603.282 150.808L602.992 150.074L602.266 149.78L601.249 147.871L599.216 146.695L599.071 146.402L599.942 146.695L601.83 147.43L605.025 148.164L606.912 148.899L607.203 149.046L606.912 149.927L606.331 150.514H606.041V150.808L607.638 150.514L608.364 150.074L608.655 149.633L609.962 149.927L610.107 149.486V148.164L609.962 146.842H608.509L608.074 146.549V145.961L609.962 146.402L609.526 144.198L608.8 145.227L607.638 145.374L606.477 144.492L604.879 144.198L604.008 143.611L603.572 142.73L604.299 143.023L606.186 143.758L605.751 142.583L600.814 139.058L599.071 137.883L597.329 135.973L595.441 134.504L593.408 133.182L591.956 132.007L591.085 130.832L590.504 129.804L590.649 130.979L591.52 132.742L592.682 133.77L594.134 134.798L595.005 135.532L595.151 136.414L594.425 136.707L592.537 136.12L589.778 135.239L586.874 134.651L585.712 134.504L579.178 134.357L577.29 133.917L575.984 133.182L576.564 133.917L578.307 134.945L579.614 135.386L581.356 135.679L585.277 135.826L588.036 136.12L589.778 136.707L591.375 137.736L591.956 138.47V139.351L591.23 139.939L587.164 140.82L585.422 141.555L586.584 142.142V142.73L583.099 144.052L582.082 144.639L583.389 145.08L583.534 145.667L582.518 146.402L580.049 147.577L579.033 148.311L578.888 148.605L579.614 148.752L580.194 149.339L580.049 150.074L577.436 151.983L574.967 153.746L574.386 154.04L575.112 154.48L575.258 155.068L574.677 155.508L573.225 155.949H570.901L569.159 155.068L567.562 153.893L566.836 153.599L566.11 153.746H562.479L560.447 153.305L558.123 152.424L556.236 151.249L554.784 150.074L553.332 148.605L551.88 146.255L551.008 143.905L550.573 141.701L550.427 140.38V137.883L550.863 134.651L551.734 131.42L552.896 128.335L554.493 125.251L555.945 123.194L557.252 121.725L558.704 120.257L560.737 118.935L561.027 118.788L561.463 117.025L562.334 115.997L564.367 114.969L565.384 114.528L560.156 116.144L555.51 117.76L551.444 119.375L547.814 120.991L544.184 122.754L540.989 124.369L537.649 126.279L534.165 128.482L530.97 130.685L528.211 132.742L527.34 133.329L527.63 132.448L529.082 129.951L530.825 127.307L532.277 125.251L533.729 123.341L535.326 121.432L536.633 119.963L537.649 118.788L540.989 115.409L542.151 114.381L544.184 112.619L547.088 110.415L549.847 108.506L552.896 106.597L556.09 104.834L559.721 103.071L564.512 101.162L568.723 99.8399L572.789 98.8117L577.871 97.9304L582.082 97.4898L584.551 97.3429Z" fill="#121212"/>
<path fill-rule="evenodd" clip-rule="evenodd" d="M629.782 125.227L632.203 127.676L633.803 129.78L635.785 132.863L637.29 135.605L639.074 139.063L640.72 142.695L643.656 150.119L645.577 155.353L646.641 158.889L647.05 160.791L649.451 159.648L652.771 158.529L656.645 157.745L658.184 157.572H663.439L667.394 158.212L670.695 159.166L673.076 160.129L675.617 161.415L677.992 163.016L680.206 164.776L683.035 167.638L684.915 170.174L686.563 172.673L684.232 177.388L680.398 172.804L679.097 171.488L677.665 170.303L675.536 168.822L673.069 167.509L669.458 166.291L666.961 165.759L664.156 165.489H662.963L661.186 165.714L660.144 166.241L659.848 166.54L659.258 167.435L658.839 168.602L658.29 171.653L657.405 176.281L656.074 181.667L654.304 187.934L652.951 191.888L651.305 195.824L649.941 198.735L648.003 202.204L646.499 204.79L644.829 207.248L643.042 209.657L641.394 211.779L639.44 214.06L637.205 216.471L635.236 218.463L634.008 219.55L631.776 221.507L629.225 223.48L626.527 225.451L623.658 227.284L620.216 229.252L616.313 231.226L611.948 233.053L606.556 234.871L602.328 235.94L597.39 236.849L593.633 237.305L591.459 237.462H582.549L577.853 237.002L573.355 236.244L569.289 235.33L564.79 233.964L561.028 232.594L557.582 231.079L554.422 229.557L550.957 227.576L547.653 225.449L544.945 223.471L542.842 221.799L540.907 220.143L539.711 219.084L537.911 217.415L535.207 214.68L534.132 213.437L532.34 211.322L530.393 208.747L528.439 206.01L526.482 202.812L525.134 200.388L523.339 196.908L521.682 193.098L520.031 188.542L518.548 183.295L516.93 177.042L516.038 172.685L515.344 168.613L514.815 167.221L514.289 166.512L513.761 166.054L512.951 165.726L511.128 165.496L508.266 165.628L505.765 166.027L502.845 166.832L500.329 167.904L498.381 168.955L496.55 170.278L494.81 171.768L493.065 173.532L488.264 179.36V171.655L490.19 168.928L491.618 167.162L494.276 164.474L496.362 162.851L498.6 161.395L502.509 159.497L505.995 158.375L509.273 157.744L510.801 157.572H516.201L520.156 158.212L523.485 159.174L526.763 160.595L527.104 160.779L527.543 158.736L528.902 154.307L531.554 147.302L533.77 141.922L536.139 136.98L537.651 134.074L539.466 131.167L541.137 128.709L546.522 121.899V129.758L544.298 133.219L542.607 136.213L541.357 138.602L539.822 142.129L538.279 146.387L537.157 150.36L536.319 154.034L535.617 158.721L535.341 161.925V164.292L536.539 163.36L539.251 161.988L542.057 161.153L543.262 160.95H546.921L549.343 161.516L551.62 162.667L553.634 164.501L554.839 166.939L555.08 168.158L555.857 168.001H557.921L560.541 168.531L563.171 169.595L564.23 170.345L563.787 167.548L563.626 165.749V161.538H568.15L568.998 167.759L570.166 173.812L570.618 177.928L570.706 179.355L572.353 178.295L574.189 177.366L573.935 175.823V169.527L578.363 165.048L579.61 176.651L580.21 180.595V183.14L579.767 186.276L580.408 184.256L581.407 180.071L581.7 178.887L586.24 178.887L586.503 179.951L585.828 183.876L584.918 187.865L583.56 191.986L582.119 195.776L581.151 198.994L580.467 202.038L580.064 205.159V209.71L580.467 212.969L580.98 215.176L581.739 217.095L582.604 218.721L583.85 220.359L585.505 222.033L587.397 223.436L590.123 224.88L592.853 225.801L594.787 226.192L595.862 226.313H599.521L600.237 226.233L601.261 225.667L602.358 224.805L603.433 223.838L604.49 222.412L605.623 220.248L605.763 219.822L604.181 222.134L602.435 223.704L600.184 224.842L598.49 225.27H594.86L592.004 224.548L589.301 223.181L587.103 221.642L585.471 219.991L583.91 217.535L582.888 214.949L582.243 212.014L582.067 210.587V203.926L582.704 200.22L583.502 197.475L585.041 193.738L586.764 190.411L588.048 188.626L590.018 186.064L591.611 183.378L592.962 180.234L594.054 176.92L594.882 173.15L595.418 169.534L600.248 164.649V175.677L599.96 177.422L602.331 178.622L603.459 179.452L603.715 175.956L604.316 172.006L605.475 165.849L605.898 162.86H610.412V167.283L609.974 170.273L611.743 169.229L614.311 168.363L616.283 168.001H618.198L619.068 168.189L619.352 166.75L620.551 164.527L622.007 163.055L623.951 161.875L626.225 161.167L627.297 160.95H630.814L633.418 161.477L635.632 162.338L637.824 163.532L638.842 164.333V162.227L638.425 157.724L637.725 153.62L636.743 149.361L635.483 145.254L634.084 141.575L632.54 138.168L630.58 134.344L628.65 131.276L627.371 129.551V124.016L623.556 122.262L619.035 120.433L620.587 122.43L622.004 124.66L623.277 127.074L624.83 131.159L625.616 134.339L625.941 136.475L626.1 139.865L625.771 142.865L625.106 145.388L624.261 147.439L623.042 149.553L621.196 151.59L619.637 152.992L617.082 154.542L613.944 155.712L612.083 156.089H607.927L607.781 156.07M619.4 118.053L624.482 120.11L629.274 122.313L632.904 124.222L635.953 125.985L638.857 127.748L642.197 129.951L644.811 131.86L646.698 133.329L646.843 133.035L645.682 130.979L643.649 127.748L641.906 125.251L640.019 122.754L638.276 120.697L637.26 119.522L634.356 116.584L632.468 114.822L630.29 112.912L627.676 110.856L625.208 109.093L623.465 107.918L620.561 106.156L616.931 104.246L613.446 102.631L609.235 101.015L604.444 99.5461L600.668 98.6648L595.296 97.7835L589.487 97.3429H584.55L582.082 97.4897L577.871 97.9304L572.789 98.8117L568.723 99.8399L564.512 101.162L559.72 103.071L556.09 104.834L552.896 106.596L549.846 108.506L547.088 110.415L544.184 112.619L542.151 114.381L540.989 115.409L537.649 118.788L536.633 119.963L535.326 121.432L533.729 123.341L532.277 125.251L530.825 127.307L529.082 129.951L527.63 132.448L527.34 133.329L526.178 131.6M528.211 132.742L527.34 133.329L529.073 133.902M619.98 125.838L618.674 123.782L617.076 121.725L615.77 120.55L613.882 119.228L613.011 118.935V117.906L612.43 116.584L611.413 115.703L609.381 114.822L608.8 114.528L614.027 116.144L619.4 118.053M621.142 148.164L619.545 149.927L618.238 151.102L616.06 152.424L613.301 153.452L611.849 153.746H608.074L606.912 153.599L604.444 154.921L602.12 155.802L599.797 156.39H597.474L595.005 155.949L591.956 155.068L589.778 154.186L590.359 154.04L593.263 154.921L595.15 155.215L594.279 153.893L593.698 152.277L593.553 150.514L593.844 149.339L594.57 148.164L595.876 147.43L596.603 147.136L595.876 146.402L596.603 146.695L598.781 147.87L599.652 148.605L600.523 150.074L600.959 150.955V151.249L601.685 151.543L602.846 151.396L604.008 151.102L603.282 150.808L602.992 150.074L602.265 149.78L601.249 147.87L599.216 146.695L599.071 146.402L599.942 146.695L601.83 147.43L605.024 148.164L606.912 148.899L607.202 149.046L606.912 149.927L606.331 150.514H606.041V150.808L607.638 150.514L608.364 150.074L608.655 149.633L609.961 149.927L610.107 149.486V148.164L609.961 146.842H608.509L608.074 146.549V145.961L609.961 146.402L609.526 144.198L608.8 145.227L607.638 145.373L606.476 144.492L604.879 144.198L604.008 143.611L603.572 142.73L604.298 143.023L606.186 143.758L605.75 142.583L600.813 139.058L599.071 137.882L597.329 135.973L595.441 134.504L593.408 133.182L591.956 132.007L591.085 130.832L590.504 129.804L590.649 130.979L591.52 132.742L592.682 133.77L594.134 134.798L595.005 135.532L595.15 136.414L594.424 136.707L592.537 136.12L589.778 135.239L586.874 134.651L585.712 134.504L579.178 134.357L577.29 133.917L575.983 133.182L576.564 133.917L578.307 134.945L579.614 135.385L581.356 135.679L585.277 135.826L588.035 136.12L589.778 136.707L591.375 137.736L591.956 138.47V139.351L591.23 139.939L587.164 140.82L585.422 141.555L586.583 142.142V142.73L583.098 144.052L582.082 144.639L583.389 145.08L583.534 145.667L582.518 146.402L580.049 147.577L579.033 148.311L578.887 148.605L579.614 148.752L580.194 149.339L580.049 150.074L577.435 151.983L574.967 153.746L574.386 154.04L575.112 154.48L575.257 155.068L574.677 155.508L573.224 155.949H570.901L569.159 155.068L567.562 153.893L566.835 153.599L566.109 153.746H562.479L560.446 153.305L558.123 152.424L556.236 151.249L554.783 150.074L553.331 148.605L551.879 146.255L551.008 143.905L550.573 141.701L550.427 140.379V137.882L550.863 134.651L551.734 131.42L552.896 128.335L554.493 125.251L555.945 123.194L557.252 121.725L558.704 120.257L560.737 118.935L561.027 118.788L561.463 117.025L562.334 115.997L564.367 114.969L565.383 114.528L560.156 116.144L555.509 117.76L551.444 119.375L547.814 120.991L544.184 122.754L540.989 124.369L537.649 126.279L534.164 128.482L530.97 130.685L528.211 132.742M566.541 156.049L566.343 156.089H562.229L559.782 155.558L557.082 154.534L554.879 153.162L553.213 151.815L551.483 150.064L549.768 147.289L548.751 144.544L548.259 142.058L548.089 140.508V137.725L548.566 134.187L549.506 130.699L550.757 127.379L552.491 124.029L554.112 121.734L555.547 120.12L557.22 118.429L559.57 116.9L559.683 116.843M611.961 151.333L612.445 149.863V149.387L612.959 149.507L612.166 145.494L612.057 144.499H611.969L610.762 138.392L608.093 142.172L607.692 141.092L602.145 137.131L602.119 137.114M610.997 151.403L610.439 151.177L610.997 151.403ZM600.291 145.797L600.071 145.906L600.291 145.797ZM598.407 148.933L598.788 148.778L598.407 148.933ZM596.269 146.012L595.876 146.402L595.636 146.999M622.159 146.402L622.885 144.639L623.465 142.436L623.756 139.792L623.611 136.707L623.32 134.798L622.594 131.86L621.142 128.041L619.98 125.838M643.404 133.732L640.864 131.877L637.608 129.729L634.763 128.002L631.775 126.275L629.782 125.227M643.404 133.732L647.524 136.938L649.489 132.962L647.69 129.777L645.597 126.451L643.797 123.872L641.844 121.287L640.051 119.172L638.976 117.929L635.984 114.903L634.036 113.083L631.783 111.108L629.078 108.98L626.54 107.167L624.725 105.944L621.712 104.115L617.966 102.145L614.357 100.471L609.996 98.7982L605.052 97.2824L601.123 96.3653L595.573 95.455L589.576 95H584.481L581.891 95.1541L577.55 95.6084L572.303 96.5183L568.087 97.5844L563.729 98.9524L558.777 100.926L555.016 102.752L551.711 104.575L548.562 106.548L545.717 108.517L542.711 110.797L540.611 112.618L539.382 113.705L535.933 117.194L535.882 117.253M640.745 157.418L641.18 162.118V170.637H640.89V170.344L640.309 169.315L639.002 167.553L637.841 166.525L636.534 165.496L634.646 164.468L632.759 163.734L630.58 163.293H627.531L626.805 163.44L624.917 164.028L623.465 164.909L622.449 165.937L621.578 167.553L621.142 169.756V171.372L619.98 170.784L617.948 170.344H616.496L614.898 170.637L612.72 171.372L610.978 172.4L609.526 173.722L608.219 175.338L607.057 177.247L606.476 178.716L606.912 175.044L608.074 167.112V165.203H607.928L607.783 166.231L606.622 172.4L606.041 176.219L605.75 180.185V185.766L605.17 184.738L604.153 183.269L602.701 181.8L601.104 180.625L598.781 179.45L597.183 179.01L597.474 178.128L597.909 175.484V170.344L597.619 170.637L597.183 173.575L596.312 177.541L595.15 181.066L593.698 184.444L591.956 187.382L589.923 190.026L588.761 191.642L587.164 194.726L585.712 198.251L584.986 200.748L584.405 204.127V210.443L584.55 211.618L585.131 214.261L586.003 216.465L587.309 218.521L588.616 219.843L590.504 221.165L592.827 222.34L595.15 222.928H598.2L599.361 222.634L601.104 221.752L602.411 220.577L603.718 218.668L604.298 217.199L604.734 215.143V212.205L604.444 210.296L603.718 207.799L602.556 205.449L599.942 201.483L598.781 199.426L598.055 197.664L597.619 195.46V193.992L597.909 192.523L598.635 191.201V191.495L598.055 193.257V195.754L598.49 197.076L599.361 198.692L600.813 200.454L602.411 202.217L604.008 204.127L605.75 206.477L607.202 208.974L608.219 211.471L608.8 213.674L608.945 216.171L608.509 218.962L607.783 221.165L606.476 223.662L605.17 225.425L603.863 226.6L602.556 227.628L600.959 228.509L599.652 228.656H595.731L594.424 228.509L592.246 228.068L589.197 227.04L589.157 227.019L589.154 227.018L586.148 225.425L583.97 223.809L582.082 221.899L580.63 219.99L579.614 218.08L578.742 215.877L578.161 213.38L577.726 209.855V205.008L578.161 201.63L578.887 198.398L579.904 195.02L581.356 191.201L582.663 187.235L583.534 183.416L584.115 180.038L583.97 179.45L583.679 180.625L582.663 184.885L581.356 188.998L579.468 193.404L578.307 196.489L577.435 199.426L576.709 202.658L576.274 206.036V210.736L576.564 213.527L577.145 216.465L578.016 219.109L579.178 221.312L580.63 223.368L582.082 224.837L583.534 226.159L585.131 227.334L587.6 228.656L588.181 228.95L587.591 228.674L586.293 228.068L585.106 227.382L584.26 226.893L582.227 225.425L580.775 224.103L579.033 222.046L577.871 220.431L576.274 217.346L575.257 214.261L574.677 211.177L574.386 207.946V202.07L574.822 197.517L575.548 193.257L576.419 189.732L577.435 186.06L577.871 182.975V180.772L577.29 176.953L576.564 170.197L576.274 170.49V175.631L576.855 179.157H576.129L575.257 179.45L573.515 180.332L571.918 181.36L570.901 182.388L569.594 183.857L568.433 185.619L568.288 185.766L568.433 183.269V180.478L568.288 178.128L567.852 174.162L566.69 168.14L566.109 163.881H565.964V165.643L566.109 167.259L566.69 170.931L567.707 178.716L566.545 176.219L565.093 174.162L563.496 172.694L562.044 171.665L559.866 170.784L557.688 170.344H556.09L554.638 170.637L553.041 171.372V169.903L552.605 167.7L551.734 165.937L550.282 164.615L548.54 163.734L546.652 163.293H543.457L542.586 163.44L540.118 164.174L537.794 165.35L535.907 166.818L534.455 168.434L533.148 170.49L533.003 169.022V161.824L533.293 158.446L534.019 153.599L534.89 149.78L536.052 145.667L537.649 141.261L539.247 137.589L540.553 135.092L542.296 132.007L544.183 129.07V128.629L543.022 130.098L541.425 132.448L539.682 135.239L538.23 138.029L535.907 142.876L533.729 148.164L531.115 155.068L529.808 159.327L529.082 162.706L528.937 164.468L527.921 163.881L525.742 162.706L522.693 161.384L519.644 160.502L516.014 159.915H510.932L509.625 160.062L506.575 160.649L503.381 161.677L499.751 163.44L497.718 164.762L495.83 166.231L493.362 168.728L492.055 170.344L490.603 172.4V172.841L491.329 171.959L493.217 170.05L495.104 168.434L497.137 166.965L499.315 165.79L502.074 164.615L505.269 163.734L508.027 163.293L511.222 163.146L513.545 163.44L514.997 164.028L516.014 164.909L516.885 166.084L517.611 167.993L518.337 172.253L519.208 176.513L520.805 182.682L522.258 187.823L523.855 192.229L525.452 195.901L527.195 199.279L528.501 201.63L530.389 204.714L532.277 207.358L534.164 209.855L535.907 211.911L536.923 213.086L539.537 215.73L541.279 217.346L542.441 218.374L544.329 219.99L546.362 221.606L548.975 223.515L552.17 225.571L555.509 227.481L558.559 228.95L561.899 230.419L565.529 231.741L569.885 233.062L573.805 233.944L578.161 234.678L582.663 235.119H591.375L593.408 234.972L597.038 234.531L601.83 233.65L605.896 232.622L611.123 230.859L615.334 229.097L619.109 227.187L622.449 225.278L625.208 223.515L627.822 221.606L630.29 219.696L632.468 217.787L633.63 216.758L635.517 214.849L637.695 212.499L639.583 210.296L641.18 208.239L642.923 205.889L644.52 203.539L645.972 201.042L647.86 197.664L649.167 194.873L650.764 191.054L652.071 187.235L653.813 181.066L655.12 175.778L655.991 171.225L656.572 167.993L657.153 166.378L658.024 165.056L658.75 164.321L660.493 163.44L662.816 163.146H664.268L667.317 163.44L670.076 164.028L673.997 165.35L676.756 166.818L679.079 168.434L680.676 169.756L682.128 171.225L683.725 173.134L683.871 172.841L682.999 171.519L681.257 169.168L678.643 166.525L676.61 164.909L674.432 163.44L672.109 162.265L669.931 161.384L666.882 160.502L663.252 159.915H658.315L657.008 160.062L653.378 160.796L650.328 161.824L647.86 162.999L645.391 164.468L645.101 162.853L644.375 159.474L643.358 156.096L641.471 150.955L638.567 143.611L636.969 140.086L635.227 136.707L633.775 134.064L631.887 131.126L630.435 129.216L629.709 128.482V128.776L630.58 129.951L632.613 133.182L634.646 137.148L636.243 140.673L637.695 144.492L639.002 148.752L640.019 153.158L640.745 157.418ZM605.413 157.058L602.823 158.041L600.088 158.733H597.267L594.475 158.234L591.192 157.285L582.26 153.671L590.416 151.609L593.204 152.455M605.413 157.058L605.546 156.987L605.413 157.058ZM529.563 134.654L522.977 139.095L525.486 131.48L527.095 128.715L528.894 125.985L530.392 123.864L531.902 121.878L533.557 119.899L533.58 119.873M529.563 134.654L529.607 134.621L529.563 134.654ZM605.546 156.987L607.819 155.77L605.546 156.987ZM607.819 155.77L608.014 155.665L607.819 155.77ZM590.158 153.243L589.778 154.186L590.158 153.243ZM589.778 154.186L590.35 156.458L589.778 154.186ZM555.595 120.246L555.714 120.199L555.595 120.246ZM555.714 120.199L556.372 119.937L555.714 120.199ZM529.607 134.621L532.366 132.565L529.607 134.621ZM622.159 146.402L621.142 148.164L622.159 146.402Z" fill="url(#paint2_linear_4195_563)" style="mix-blend-mode:plus-lighter"/>
<defs>
<filter id="filter0_dddddd_4195_563" x="0.331573" y="-392.929" width="1173.81" height="1118.32" filterUnits="userSpaceOnUse" color-interpolation-filters="sRGB">
<feFlood flood-opacity="0" result="BackgroundImageFix"/>
<feColorMatrix in="SourceAlpha" type="matrix" values="0 0 0 0 0 0 0 0 0 0 0 0 0 0 0 0 0 0 127 0" result="hardAlpha"/>
<feOffset/>
<feGaussianBlur stdDeviation="5.83656"/>
<feColorMatrix type="matrix" values="0 0 0 0 0 0 0 0 0 0.921569 0 0 0 0 0.603922 0 0 0 1 0"/>
<feBlend mode="normal" in2="BackgroundImageFix" result="effect1_dropShadow_4195_563"/>
<feColorMatrix in="SourceAlpha" type="matrix" values="0 0 0 0 0 0 0 0 0 0 0 0 0 0 0 0 0 0 127 0" result="hardAlpha"/>
<feOffset/>
<feGaussianBlur stdDeviation="11.6731"/>
<feColorMatrix type="matrix" values="0 0 0 0 0 0 0 0 0 0.921569 0 0 0 0 0.603922 0 0 0 1 0"/>
<feBlend mode="normal" in2="effect1_dropShadow_4195_563" result="effect2_dropShadow_4195_563"/>
<feColorMatrix in="SourceAlpha" type="matrix" values="0 0 0 0 0 0 0 0 0 0 0 0 0 0 0 0 0 0 127 0" result="hardAlpha"/>
<feOffset/>
<feGaussianBlur stdDeviation="40.856"/>
<feColorMatrix type="matrix" values="0 0 0 0 0 0 0 0 0 0.921569 0 0 0 0 0.603922 0 0 0 1 0"/>
<feBlend mode="normal" in2="effect2_dropShadow_4195_563" result="effect3_dropShadow_4195_563"/>
<feColorMatrix in="SourceAlpha" type="matrix" values="0 0 0 0 0 0 0 0 0 0 0 0 0 0 0 0 0 0 127 0" result="hardAlpha"/>
<feOffset/>
<feGaussianBlur stdDeviation="81.7119"/>
<feColorMatrix type="matrix" values="0 0 0 0 0 0 0 0 0 0.921569 0 0 0 0 0.603922 0 0 0 1 0"/>
<feBlend mode="normal" in2="effect3_dropShadow_4195_563" result="effect4_dropShadow_4195_563"/>
<feColorMatrix in="SourceAlpha" type="matrix" values="0 0 0 0 0 0 0 0 0 0 0 0 0 0 0 0 0 0 127 0" result="hardAlpha"/>
<feOffset/>
<feGaussianBlur stdDeviation="140.078"/>
<feColorMatrix type="matrix" values="0 0 0 0 0 0 0 0 0 0.921569 0 0 0 0 0.603922 0 0 0 1 0"/>
<feBlend mode="normal" in2="effect4_dropShadow_4195_563" result="effect5_dropShadow_4195_563"/>
<feColorMatrix in="SourceAlpha" type="matrix" values="0 0 0 0 0 0 0 0 0 0 0 0 0 0 0 0 0 0 127 0" result="hardAlpha"/>
<feOffset/>
<feGaussianBlur stdDeviation="245.136"/>
<feColorMatrix type="matrix" values="0 0 0 0 0 0 0 0 0 0.921569 0 0 0 0 0.603922 0 0 0 1 0"/>
<feBlend mode="normal" in2="effect5_dropShadow_4195_563" result="effect6_dropShadow_4195_563"/>
<feBlend mode="normal" in="SourceGraphic" in2="effect6_dropShadow_4195_563" result="shape"/>
</filter>
<filter id="filter1_f_4195_563" x="449.271" y="108.757" width="275.457" height="161.086" filterUnits="userSpaceOnUse" color-interpolation-filters="sRGB">
<feFlood flood-opacity="0" result="BackgroundImageFix"/>
<feBlend mode="normal" in="SourceGraphic" in2="BackgroundImageFix" result="shape"/>
<feGaussianBlur stdDeviation="11.8643" result="effect1_foregroundBlur_4195_563"/>
</filter>
<filter id="filter2_f_4195_563" x="364.051" y="-5.32805" width="446.372" height="390.88" filterUnits="userSpaceOnUse" color-interpolation-filters="sRGB">
<feFlood flood-opacity="0" result="BackgroundImageFix"/>
<feBlend mode="normal" in="SourceGraphic" in2="BackgroundImageFix" result="shape"/>
<feGaussianBlur stdDeviation="63.276" result="effect1_foregroundBlur_4195_563"/>
</filter>
<linearGradient id="paint0_linear_4195_563" x1="586.415" y1="162.943" x2="586.415" y2="303.514" gradientUnits="userSpaceOnUse">
<stop stop-color="#00EB9A"/>
<stop offset="0.675291" stop-color="#00D58C" stop-opacity="0.973099"/>
<stop offset="1" stop-opacity="0.71"/>
</linearGradient>
<linearGradient id="paint1_linear_4195_563" x1="586.415" y1="162.943" x2="586.415" y2="303.514" gradientUnits="userSpaceOnUse">
<stop stop-color="#00EB9A"/>
<stop offset="0.675291" stop-color="#00D58C" stop-opacity="0.973099"/>
<stop offset="1" stop-opacity="0.71"/>
</linearGradient>
<linearGradient id="paint2_linear_4195_563" x1="587.584" y1="181.686" x2="587.235" y2="235.119" gradientUnits="userSpaceOnUse">
<stop stop-color="#53FF87" stop-opacity="0"/>
<stop offset="1" stop-color="#6D6FC7"/>
</linearGradient>
</defs>
</svg>
