<svg width="65" height="46" viewBox="0 0 65 46" fill="none" xmlns="http://www.w3.org/2000/svg">
<g clip-path="url(#clip0_4195_735)">
<rect width="65" height="46" rx="10" fill="url(#paint0_linear_4195_735)" fill-opacity="0.3"/>
<path d="M7.52492 19.9222V19.6264L9.90553 18.4139V18.8871L8.07941 19.7669L8.09419 19.7373V19.8113L8.07941 19.7817L9.90553 20.6615V21.1346L7.52492 19.9222Z" fill="#00EB9A"/>
<path d="M15.5789 19.0498L15.187 19.1607C15.1624 19.0953 15.1261 19.0319 15.078 18.9703C15.0312 18.9074 14.9671 18.8557 14.8858 18.815C14.8044 18.7744 14.7003 18.754 14.5734 18.754C14.3997 18.754 14.2549 18.7941 14.1391 18.8742C14.0245 18.953 13.9672 19.0535 13.9672 19.1754C13.9672 19.2839 14.0066 19.3695 14.0855 19.4324C14.1643 19.4952 14.2875 19.5476 14.4551 19.5895L14.8765 19.693C15.1304 19.7546 15.3195 19.8488 15.444 19.9758C15.5684 20.1014 15.6306 20.2635 15.6306 20.4619C15.6306 20.6245 15.5838 20.7699 15.4902 20.8981C15.3978 21.0262 15.2684 21.1272 15.102 21.2012C14.9357 21.2751 14.7422 21.3121 14.5217 21.3121C14.2321 21.3121 13.9924 21.2492 13.8027 21.1235C13.6129 20.9979 13.4928 20.8143 13.4422 20.5728L13.8563 20.4692C13.8957 20.622 13.9702 20.7366 14.0799 20.813C14.1908 20.8894 14.3356 20.9276 14.5143 20.9276C14.7176 20.9276 14.879 20.8845 14.9985 20.7982C15.1193 20.7108 15.1797 20.606 15.1797 20.484C15.1797 20.3855 15.1452 20.3029 15.0761 20.2364C15.0071 20.1686 14.9012 20.1181 14.7582 20.0848L14.2851 19.9739C14.0251 19.9123 13.8341 19.8168 13.7121 19.6874C13.5913 19.5568 13.531 19.3935 13.531 19.1976C13.531 19.0374 13.5759 18.8957 13.6659 18.7725C13.7571 18.6493 13.8809 18.5526 14.0374 18.4823C14.1951 18.4121 14.3738 18.377 14.5734 18.377C14.8544 18.377 15.0749 18.4386 15.2351 18.5618C15.3965 18.685 15.5111 18.8477 15.5789 19.0498ZM17.4406 21.3121C17.1744 21.3121 16.9452 21.2492 16.753 21.1235C16.5608 20.9979 16.4129 20.8247 16.3094 20.6042C16.2059 20.3836 16.1542 20.1316 16.1542 19.8482C16.1542 19.5599 16.2072 19.3054 16.3131 19.0849C16.4203 18.8631 16.5694 18.69 16.7604 18.5655C16.9526 18.4398 17.1769 18.377 17.4332 18.377C17.6328 18.377 17.8127 18.4139 17.9729 18.4879C18.1331 18.5618 18.2643 18.6653 18.3666 18.7984C18.4689 18.9315 18.5323 19.0867 18.557 19.2642H18.1208C18.0875 19.1348 18.0136 19.0202 17.899 18.9204C17.7856 18.8193 17.6328 18.7688 17.4406 18.7688C17.2705 18.7688 17.1214 18.8132 16.9933 18.9019C16.8664 18.9894 16.7672 19.1132 16.6957 19.2734C16.6255 19.4324 16.5904 19.619 16.5904 19.8334C16.5904 20.0528 16.6249 20.2438 16.6939 20.4064C16.7641 20.5691 16.8627 20.6954 16.9896 20.7853C17.1178 20.8753 17.2681 20.9202 17.4406 20.9202C17.554 20.9202 17.6568 20.9005 17.7493 20.8611C17.8417 20.8217 17.9199 20.765 17.984 20.691C18.0481 20.6171 18.0937 20.5284 18.1208 20.4249H18.557C18.5323 20.5925 18.4713 20.7434 18.374 20.8777C18.2779 21.0108 18.1503 21.1168 17.9914 21.1956C17.8337 21.2733 17.6501 21.3121 17.4406 21.3121ZM19.1946 21.2529V18.4139H19.616V18.8427H19.6456C19.6974 18.7023 19.791 18.5883 19.9266 18.5008C20.0621 18.4133 20.2149 18.3696 20.3849 18.3696C20.417 18.3696 20.457 18.3702 20.5051 18.3714C20.5531 18.3727 20.5895 18.3745 20.6141 18.377V18.8206C20.5993 18.8169 20.5655 18.8113 20.5125 18.8039C20.4607 18.7953 20.4059 18.791 20.348 18.791C20.21 18.791 20.0867 18.8199 19.9783 18.8779C19.8711 18.9345 19.7861 19.0134 19.7232 19.1144C19.6616 19.2143 19.6308 19.3282 19.6308 19.4564V21.2529H19.1946ZM21.1312 21.2529V18.4139H21.5674V21.2529H21.1312ZM21.353 17.9408C21.268 17.9408 21.1946 17.9118 21.133 17.8539C21.0727 17.796 21.0425 17.7264 21.0425 17.645C21.0425 17.5637 21.0727 17.4941 21.133 17.4362C21.1946 17.3783 21.268 17.3493 21.353 17.3493C21.438 17.3493 21.5107 17.3783 21.5711 17.4362C21.6327 17.4941 21.6635 17.5637 21.6635 17.645C21.6635 17.7264 21.6327 17.796 21.5711 17.8539C21.5107 17.9118 21.438 17.9408 21.353 17.9408ZM22.3663 22.3176V18.4139H22.7877V18.8649H22.8395C22.8715 18.8156 22.9159 18.7528 22.9726 18.6764C23.0305 18.5988 23.113 18.5298 23.2202 18.4694C23.3287 18.4078 23.4753 18.377 23.6601 18.377C23.8992 18.377 24.1099 18.4367 24.2922 18.5563C24.4746 18.6758 24.6169 18.8452 24.7192 19.0645C24.8215 19.2839 24.8726 19.5426 24.8726 19.8408C24.8726 20.1415 24.8215 20.4021 24.7192 20.6227C24.6169 20.842 24.4752 21.012 24.2941 21.1328C24.113 21.2523 23.9041 21.3121 23.6675 21.3121C23.4852 21.3121 23.3391 21.2819 23.2295 21.2215C23.1198 21.1599 23.0354 21.0903 22.9763 21.0127C22.9171 20.9338 22.8715 20.8685 22.8395 20.8167H22.8025V22.3176H22.3663ZM22.7951 19.8334C22.7951 20.0478 22.8265 20.237 22.8894 20.4009C22.9522 20.5635 23.044 20.691 23.1648 20.7835C23.2855 20.8746 23.4334 20.9202 23.6084 20.9202C23.7907 20.9202 23.9429 20.8722 24.0649 20.7761C24.1881 20.6787 24.2805 20.5481 24.3421 20.3842C24.405 20.2191 24.4364 20.0355 24.4364 19.8334C24.4364 19.6338 24.4056 19.4539 24.344 19.2937C24.2836 19.1323 24.1918 19.0048 24.0686 18.9111C23.9466 18.8163 23.7932 18.7688 23.6084 18.7688C23.4309 18.7688 23.2818 18.8138 23.1611 18.9037C23.0403 18.9925 22.9491 19.1169 22.8875 19.2771C22.8259 19.436 22.7951 19.6215 22.7951 19.8334ZM26.7727 18.4139V18.7836H25.3014V18.4139H26.7727ZM25.7302 17.7338H26.1664V20.4397C26.1664 20.5629 26.1843 20.6553 26.22 20.7169C26.257 20.7773 26.3038 20.818 26.3605 20.8389C26.4184 20.8586 26.4794 20.8685 26.5435 20.8685C26.5915 20.8685 26.631 20.866 26.6618 20.8611C26.6926 20.8549 26.7172 20.85 26.7357 20.8463L26.8244 21.2381C26.7948 21.2492 26.7536 21.2603 26.7006 21.2714C26.6476 21.2837 26.5804 21.2899 26.4991 21.2899C26.3759 21.2899 26.2551 21.2634 26.1369 21.2104C26.0198 21.1574 25.9224 21.0767 25.8448 20.9683C25.7684 20.8599 25.7302 20.7231 25.7302 20.558V17.7338Z" fill="#00EB9A"/>
<path d="M32.2429 19.9222L29.8623 21.1346V20.6615L31.6884 19.7817L31.6737 19.8113V19.7373L31.6884 19.7669L29.8623 18.8871V18.4139L32.2429 19.6264V19.9222Z" fill="#00EB9A"/>
<path d="M16.2909 26.7338C16.2909 27.133 16.2188 27.4781 16.0747 27.7689C15.9305 28.0597 15.7327 28.2839 15.4814 28.4416C15.23 28.5994 14.9429 28.6782 14.6201 28.6782C14.2972 28.6782 14.0101 28.5994 13.7587 28.4416C13.5074 28.2839 13.3096 28.0597 13.1654 27.7689C13.0213 27.4781 12.9492 27.133 12.9492 26.7338C12.9492 26.3346 13.0213 25.9896 13.1654 25.6988C13.3096 25.408 13.5074 25.1837 13.7587 25.026C14.0101 24.8683 14.2972 24.7894 14.6201 24.7894C14.9429 24.7894 15.23 24.8683 15.4814 25.026C15.7327 25.1837 15.9305 25.408 16.0747 25.6988C16.2188 25.9896 16.2909 26.3346 16.2909 26.7338ZM15.8473 26.7338C15.8473 26.406 15.7925 26.1294 15.6828 25.9039C15.5744 25.6784 15.4271 25.5078 15.2411 25.3919C15.0563 25.2761 14.8492 25.2182 14.6201 25.2182C14.3909 25.2182 14.1832 25.2761 13.9972 25.3919C13.8123 25.5078 13.6651 25.6784 13.5554 25.9039C13.447 26.1294 13.3928 26.406 13.3928 26.7338C13.3928 27.0616 13.447 27.3382 13.5554 27.5637C13.6651 27.7892 13.8123 27.9598 13.9972 28.0757C14.1832 28.1915 14.3909 28.2494 14.6201 28.2494C14.8492 28.2494 15.0563 28.1915 15.2411 28.0757C15.4271 27.9598 15.5744 27.7892 15.6828 27.5637C15.7925 27.3382 15.8473 27.0616 15.8473 26.7338ZM17.0025 29.6911V25.7875H17.4239V26.2385H17.4757C17.5077 26.1892 17.5521 26.1263 17.6088 26.0499C17.6667 25.9723 17.7492 25.9033 17.8564 25.8429C17.9649 25.7813 18.1115 25.7505 18.2963 25.7505C18.5354 25.7505 18.7461 25.8103 18.9284 25.9298C19.1108 26.0493 19.2531 26.2187 19.3554 26.4381C19.4577 26.6574 19.5088 26.9162 19.5088 27.2144C19.5088 27.515 19.4577 27.7756 19.3554 27.9962C19.2531 28.2155 19.1114 28.3856 18.9303 28.5063C18.7492 28.6258 18.5403 28.6856 18.3037 28.6856C18.1214 28.6856 17.9753 28.6554 17.8657 28.595C17.756 28.5334 17.6716 28.4638 17.6125 28.3862C17.5533 28.3073 17.5077 28.242 17.4757 28.1903H17.4387V29.6911H17.0025ZM17.4313 27.207C17.4313 27.4214 17.4627 27.6105 17.5256 27.7744C17.5884 27.937 17.6802 28.0646 17.801 28.157C17.9217 28.2482 18.0696 28.2938 18.2446 28.2938C18.4269 28.2938 18.5791 28.2457 18.7011 28.1496C18.8243 28.0523 18.9167 27.9216 18.9783 27.7578C19.0412 27.5926 19.0726 27.409 19.0726 27.207C19.0726 27.0074 19.0418 26.8275 18.9802 26.6673C18.9198 26.5058 18.828 26.3783 18.7048 26.2847C18.5828 26.1898 18.4294 26.1423 18.2446 26.1423C18.0671 26.1423 17.918 26.1873 17.7973 26.2773C17.6765 26.366 17.5853 26.4904 17.5237 26.6506C17.4621 26.8096 17.4313 26.995 17.4313 27.207ZM21.3645 28.6856C21.091 28.6856 20.855 28.6252 20.6566 28.5045C20.4595 28.3825 20.3073 28.2124 20.2001 27.9943C20.0941 27.775 20.0411 27.5199 20.0411 27.2291C20.0411 26.9383 20.0941 26.6821 20.2001 26.4603C20.3073 26.2372 20.4564 26.0635 20.6474 25.939C20.8396 25.8133 21.0638 25.7505 21.3201 25.7505C21.468 25.7505 21.614 25.7752 21.7582 25.8244C21.9024 25.8737 22.0336 25.9538 22.1519 26.0647C22.2702 26.1744 22.3644 26.3198 22.4347 26.5009C22.5049 26.6821 22.54 26.9051 22.54 27.17V27.3548H20.3516V26.9778H22.0964C22.0964 26.8176 22.0644 26.6747 22.0003 26.549C21.9375 26.4233 21.8475 26.3241 21.7305 26.2514C21.6146 26.1787 21.4779 26.1423 21.3201 26.1423C21.1464 26.1423 20.9961 26.1855 20.8692 26.2717C20.7435 26.3567 20.6467 26.4676 20.579 26.6044C20.5112 26.7412 20.4773 26.8878 20.4773 27.0443V27.2957C20.4773 27.5101 20.5143 27.6918 20.5882 27.8409C20.6634 27.9888 20.7675 28.1015 20.9006 28.1792C21.0337 28.2556 21.1883 28.2938 21.3645 28.2938C21.4791 28.2938 21.5826 28.2778 21.675 28.2457C21.7687 28.2124 21.8494 28.1632 21.9171 28.0979C21.9849 28.0313 22.0373 27.9488 22.0743 27.8502L22.4957 27.9685C22.4513 28.1114 22.3768 28.2371 22.272 28.3455C22.1673 28.4527 22.0379 28.5365 21.8839 28.5969C21.7299 28.656 21.5567 28.6856 21.3645 28.6856ZM23.6398 26.9186V28.6265H23.2036V25.7875H23.625V26.2311H23.6619C23.7285 26.0869 23.8295 25.9711 23.9651 25.8836C24.1006 25.7949 24.2756 25.7505 24.49 25.7505C24.6822 25.7505 24.8504 25.7899 24.9946 25.8688C25.1387 25.9464 25.2509 26.0647 25.331 26.2237C25.4111 26.3814 25.4511 26.581 25.4511 26.8225V28.6265H25.0149V26.8521C25.0149 26.6291 24.957 26.4553 24.8412 26.3309C24.7253 26.2052 24.5664 26.1423 24.3643 26.1423C24.2251 26.1423 24.1006 26.1725 23.9909 26.2329C23.8825 26.2933 23.7969 26.3814 23.734 26.4972C23.6712 26.613 23.6398 26.7535 23.6398 26.9186ZM29.8413 25.7875C29.8191 25.6002 29.7292 25.4548 29.5714 25.3513C29.4137 25.2478 29.2203 25.196 28.9911 25.196C28.8235 25.196 28.6769 25.2231 28.5512 25.2773C28.4267 25.3316 28.3294 25.4061 28.2591 25.501C28.1901 25.5959 28.1556 25.7037 28.1556 25.8244C28.1556 25.9255 28.1797 26.0123 28.2277 26.085C28.277 26.1565 28.3398 26.2163 28.4162 26.2643C28.4926 26.3112 28.5727 26.35 28.6565 26.3808C28.7403 26.4104 28.8173 26.4344 28.8876 26.4529L29.272 26.5564C29.3706 26.5822 29.4802 26.618 29.601 26.6636C29.723 26.7092 29.8394 26.7714 29.9503 26.8502C30.0625 26.9279 30.1549 27.0277 30.2276 27.1497C30.3003 27.2717 30.3366 27.4214 30.3366 27.5988C30.3366 27.8034 30.283 27.9882 30.1758 28.1533C30.0699 28.3184 29.9146 28.4496 29.7101 28.547C29.5067 28.6443 29.2597 28.693 28.9689 28.693C28.6978 28.693 28.4631 28.6493 28.2647 28.5618C28.0675 28.4743 27.9123 28.3523 27.7989 28.1958C27.6868 28.0393 27.6233 27.8576 27.6085 27.6506H28.0817C28.094 27.7935 28.1421 27.9118 28.2259 28.0054C28.3109 28.0979 28.4181 28.1669 28.5475 28.2124C28.6781 28.2568 28.8186 28.279 28.9689 28.279C29.1439 28.279 29.301 28.2506 29.4402 28.194C29.5794 28.136 29.6897 28.056 29.771 27.9537C29.8524 27.8502 29.893 27.7294 29.893 27.5914C29.893 27.4657 29.8579 27.3635 29.7877 27.2846C29.7174 27.2057 29.625 27.1417 29.5104 27.0924C29.3958 27.0431 29.272 27 29.1389 26.963L28.6732 26.8299C28.3774 26.7449 28.1433 26.6235 27.9708 26.4658C27.7983 26.3081 27.712 26.1017 27.712 25.8466C27.712 25.6347 27.7693 25.4498 27.8839 25.2921C27.9998 25.1332 28.155 25.01 28.3497 24.9225C28.5456 24.8337 28.7643 24.7894 29.0058 24.7894C29.2498 24.7894 29.4667 24.8331 29.6565 24.9206C29.8462 25.0069 29.9965 25.1252 30.1074 25.2755C30.2196 25.4258 30.2787 25.5965 30.2849 25.7875H29.8413ZM32.1845 28.6856C31.9282 28.6856 31.7033 28.6246 31.5098 28.5026C31.3176 28.3806 31.1673 28.21 31.0589 27.9906C30.9516 27.7713 30.898 27.515 30.898 27.2218C30.898 26.926 30.9516 26.6679 31.0589 26.4473C31.1673 26.2268 31.3176 26.0555 31.5098 25.9335C31.7033 25.8115 31.9282 25.7505 32.1845 25.7505C32.4408 25.7505 32.665 25.8115 32.8572 25.9335C33.0507 26.0555 33.201 26.2268 33.3082 26.4473C33.4167 26.6679 33.4709 26.926 33.4709 27.2218C33.4709 27.515 33.4167 27.7713 33.3082 27.9906C33.201 28.21 33.0507 28.3806 32.8572 28.5026C32.665 28.6246 32.4408 28.6856 32.1845 28.6856ZM32.1845 28.2938C32.3792 28.2938 32.5393 28.2439 32.665 28.1441C32.7907 28.0442 32.8837 27.913 32.9441 27.7504C33.0045 27.5877 33.0347 27.4115 33.0347 27.2218C33.0347 27.032 33.0045 26.8552 32.9441 26.6913C32.8837 26.5274 32.7907 26.3949 32.665 26.2939C32.5393 26.1929 32.3792 26.1423 32.1845 26.1423C31.9898 26.1423 31.8296 26.1929 31.7039 26.2939C31.5782 26.3949 31.4852 26.5274 31.4248 26.6913C31.3644 26.8552 31.3342 27.032 31.3342 27.2218C31.3342 27.4115 31.3644 27.5877 31.4248 27.7504C31.4852 27.913 31.5782 28.0442 31.7039 28.1441C31.8296 28.2439 31.9898 28.2938 32.1845 28.2938ZM35.9259 27.4657V25.7875H36.3621V28.6265H35.9259V28.1459H35.8963C35.8298 28.2901 35.7263 28.4127 35.5858 28.5137C35.4453 28.6135 35.2679 28.6634 35.0535 28.6634C34.8761 28.6634 34.7183 28.6246 34.5803 28.547C34.4423 28.4681 34.3339 28.3498 34.255 28.1921C34.1762 28.0332 34.1367 27.8329 34.1367 27.5914V25.7875H34.5729V27.5618C34.5729 27.7689 34.6308 27.934 34.7467 28.0572C34.8637 28.1804 35.0128 28.242 35.194 28.242C35.3024 28.242 35.4127 28.2143 35.5248 28.1588C35.6382 28.1034 35.7331 28.0184 35.8094 27.9038C35.8871 27.7892 35.9259 27.6432 35.9259 27.4657ZM37.161 28.6265V25.7875H37.5824V26.2163H37.612C37.6638 26.0758 37.7574 25.9618 37.8929 25.8743C38.0285 25.7869 38.1813 25.7431 38.3513 25.7431C38.3834 25.7431 38.4234 25.7437 38.4715 25.745C38.5195 25.7462 38.5559 25.748 38.5805 25.7505V26.1941C38.5657 26.1904 38.5318 26.1849 38.4789 26.1775C38.4271 26.1688 38.3723 26.1645 38.3144 26.1645C38.1764 26.1645 38.0531 26.1935 37.9447 26.2514C37.8375 26.3081 37.7525 26.3869 37.6896 26.488C37.628 26.5878 37.5972 26.7018 37.5972 26.8299V28.6265H37.161ZM41.1085 26.4233L40.7167 26.5342C40.692 26.4689 40.6557 26.4054 40.6076 26.3438C40.5608 26.281 40.4967 26.2292 40.4154 26.1886C40.3341 26.1479 40.23 26.1276 40.1031 26.1276C39.9293 26.1276 39.7845 26.1676 39.6687 26.2477C39.5541 26.3266 39.4968 26.427 39.4968 26.549C39.4968 26.6574 39.5362 26.743 39.6151 26.8059C39.694 26.8687 39.8172 26.9211 39.9848 26.963L40.4062 27.0665C40.66 27.1281 40.8492 27.2224 40.9736 27.3493C41.0981 27.475 41.1603 27.637 41.1603 27.8354C41.1603 27.998 41.1135 28.1434 41.0198 28.2716C40.9274 28.3997 40.798 28.5008 40.6317 28.5747C40.4653 28.6486 40.2719 28.6856 40.0513 28.6856C39.7617 28.6856 39.5221 28.6228 39.3323 28.4971C39.1426 28.3714 39.0224 28.1878 38.9719 27.9463L39.3859 27.8428C39.4253 27.9956 39.4999 28.1102 39.6096 28.1866C39.7205 28.263 39.8652 28.3012 40.0439 28.3012C40.2472 28.3012 40.4086 28.258 40.5282 28.1718C40.6489 28.0843 40.7093 27.9796 40.7093 27.8576C40.7093 27.759 40.6748 27.6764 40.6058 27.6099C40.5368 27.5421 40.4308 27.4916 40.2879 27.4583L39.8147 27.3474C39.5547 27.2858 39.3637 27.1903 39.2417 27.061C39.121 26.9303 39.0606 26.7671 39.0606 26.5712C39.0606 26.411 39.1056 26.2693 39.1955 26.146C39.2867 26.0228 39.4106 25.9261 39.567 25.8559C39.7248 25.7856 39.9034 25.7505 40.1031 25.7505C40.384 25.7505 40.6046 25.8121 40.7647 25.9353C40.9262 26.0586 41.0408 26.2212 41.1085 26.4233ZM43.0072 28.6856C42.7337 28.6856 42.4977 28.6252 42.2993 28.5045C42.1021 28.3825 41.95 28.2124 41.8428 27.9943C41.7368 27.775 41.6838 27.5199 41.6838 27.2291C41.6838 26.9383 41.7368 26.6821 41.8428 26.4603C41.95 26.2372 42.0991 26.0635 42.2901 25.939C42.4823 25.8133 42.7065 25.7505 42.9628 25.7505C43.1107 25.7505 43.2567 25.7752 43.4009 25.8244C43.5451 25.8737 43.6763 25.9538 43.7946 26.0647C43.9129 26.1744 44.0071 26.3198 44.0774 26.5009C44.1476 26.6821 44.1827 26.9051 44.1827 27.17V27.3548H41.9943V26.9778H43.7391C43.7391 26.8176 43.7071 26.6747 43.643 26.549C43.5802 26.4233 43.4902 26.3241 43.3732 26.2514C43.2573 26.1787 43.1206 26.1423 42.9628 26.1423C42.7891 26.1423 42.6388 26.1855 42.5119 26.2717C42.3862 26.3567 42.2894 26.4676 42.2217 26.6044C42.1539 26.7412 42.12 26.8878 42.12 27.0443V27.2957C42.12 27.5101 42.157 27.6918 42.2309 27.8409C42.3061 27.9888 42.4102 28.1015 42.5433 28.1792C42.6764 28.2556 42.831 28.2938 43.0072 28.2938C43.1218 28.2938 43.2253 28.2778 43.3177 28.2457C43.4114 28.2124 43.4921 28.1632 43.5598 28.0979C43.6276 28.0313 43.68 27.9488 43.7169 27.8502L44.1384 27.9685C44.094 28.1114 44.0195 28.2371 43.9147 28.3455C43.81 28.4527 43.6806 28.5365 43.5266 28.5969C43.3725 28.656 43.1994 28.6856 43.0072 28.6856Z" fill="#00EB9A"/>
<path d="M14.3021 33.1608V33.5304H12.7717V33.1608H14.3021ZM13.2301 35.9998V32.7689C13.2301 32.6063 13.2683 32.4707 13.3447 32.3623C13.4211 32.2539 13.5203 32.1725 13.6423 32.1183C13.7643 32.0641 13.8931 32.037 14.0286 32.037C14.1358 32.037 14.2233 32.0456 14.2911 32.0629C14.3588 32.0801 14.4093 32.0961 14.4426 32.1109L14.3169 32.488C14.2948 32.4806 14.2639 32.4713 14.2245 32.4603C14.1863 32.4492 14.1358 32.4436 14.073 32.4436C13.9288 32.4436 13.8247 32.48 13.7606 32.5527C13.6977 32.6254 13.6663 32.732 13.6663 32.8724V35.9998H13.2301ZM15.9499 36.0589C15.6936 36.0589 15.4687 35.9979 15.2753 35.8759C15.0831 35.7539 14.9327 35.5833 14.8243 35.3639C14.7171 35.1446 14.6635 34.8883 14.6635 34.595C14.6635 34.2993 14.7171 34.0412 14.8243 33.8206C14.9327 33.6 15.0831 33.4288 15.2753 33.3068C15.4687 33.1848 15.6936 33.1238 15.9499 33.1238C16.2062 33.1238 16.4305 33.1848 16.6227 33.3068C16.8161 33.4288 16.9665 33.6 17.0737 33.8206C17.1821 34.0412 17.2363 34.2993 17.2363 34.595C17.2363 34.8883 17.1821 35.1446 17.0737 35.3639C16.9665 35.5833 16.8161 35.7539 16.6227 35.8759C16.4305 35.9979 16.2062 36.0589 15.9499 36.0589ZM15.9499 35.6671C16.1446 35.6671 16.3048 35.6172 16.4305 35.5173C16.5561 35.4175 16.6492 35.2863 16.7096 35.1237C16.7699 34.961 16.8001 34.7848 16.8001 34.595C16.8001 34.4053 16.7699 34.2285 16.7096 34.0646C16.6492 33.9007 16.5561 33.7682 16.4305 33.6672C16.3048 33.5662 16.1446 33.5156 15.9499 33.5156C15.7552 33.5156 15.595 33.5662 15.4693 33.6672C15.3437 33.7682 15.2506 33.9007 15.1903 34.0646C15.1299 34.2285 15.0997 34.4053 15.0997 34.595C15.0997 34.7848 15.1299 34.961 15.1903 35.1237C15.2506 35.2863 15.3437 35.4175 15.4693 35.5173C15.595 35.6172 15.7552 35.6671 15.9499 35.6671ZM17.9022 35.9998V33.1608H18.3236V33.5896H18.3532C18.4049 33.4491 18.4986 33.3351 18.6341 33.2476C18.7696 33.1601 18.9224 33.1164 19.0925 33.1164C19.1245 33.1164 19.1646 33.117 19.2126 33.1183C19.2607 33.1195 19.297 33.1213 19.3217 33.1238V33.5674C19.3069 33.5637 19.273 33.5581 19.22 33.5508C19.1683 33.5421 19.1134 33.5378 19.0555 33.5378C18.9175 33.5378 18.7943 33.5668 18.6859 33.6247C18.5787 33.6814 18.4936 33.7602 18.4308 33.8613C18.3692 33.9611 18.3384 34.0751 18.3384 34.2032V35.9998H17.9022ZM21.4578 34.4028C21.4578 33.9371 21.5182 33.5089 21.639 33.1183C21.761 32.7264 21.9347 32.366 22.1602 32.037H22.5446C22.4559 32.159 22.3728 32.3093 22.2951 32.488C22.2187 32.6654 22.1516 32.8607 22.0937 33.0739C22.0357 33.2858 21.9902 33.5052 21.9569 33.7319C21.9248 33.9586 21.9088 34.1823 21.9088 34.4028C21.9088 34.6961 21.9372 34.9937 21.9939 35.2956C22.0505 35.5974 22.1269 35.8778 22.223 36.1365C22.3192 36.3953 22.4264 36.606 22.5446 36.7686H22.1602C21.9347 36.4397 21.761 36.0798 21.639 35.6892C21.5182 35.2974 21.4578 34.8686 21.4578 34.4028ZM25.5098 33.1608L24.46 35.9998H24.0164L22.9665 33.1608H23.4397L24.2234 35.4231H24.2529L25.0366 33.1608H25.5098ZM26.8346 36.0663C26.6547 36.0663 26.4914 36.0324 26.3448 35.9646C26.1981 35.8956 26.0817 35.7964 25.9954 35.6671C25.9092 35.5364 25.866 35.3787 25.866 35.1939C25.866 35.0312 25.8981 34.8994 25.9622 34.7984C26.0262 34.6961 26.1119 34.616 26.2191 34.5581C26.3263 34.5002 26.4446 34.457 26.5739 34.4287C26.7046 34.3991 26.8358 34.3757 26.9676 34.3585C27.1401 34.3363 27.28 34.3196 27.3872 34.3086C27.4956 34.2962 27.5745 34.2759 27.6238 34.2476C27.6743 34.2192 27.6996 34.1699 27.6996 34.0997V34.0849C27.6996 33.9025 27.6497 33.7608 27.5498 33.6598C27.4513 33.5588 27.3016 33.5082 27.1007 33.5082C26.8925 33.5082 26.7292 33.5538 26.6109 33.645C26.4926 33.7362 26.4094 33.8335 26.3614 33.9371L25.9474 33.7892C26.0213 33.6167 26.1199 33.4824 26.2431 33.3863C26.3676 33.2889 26.5031 33.2211 26.6497 33.1829C26.7976 33.1435 26.943 33.1238 27.0859 33.1238C27.1771 33.1238 27.2818 33.1349 27.4001 33.1571C27.5197 33.178 27.6349 33.2218 27.7458 33.2883C27.8579 33.3548 27.9509 33.4553 28.0249 33.5896C28.0988 33.7239 28.1358 33.9038 28.1358 34.1293V35.9998H27.6996V35.6153H27.6774C27.6478 35.6769 27.5985 35.7428 27.5295 35.8131C27.4605 35.8833 27.3687 35.9431 27.2541 35.9924C27.1395 36.0417 26.9997 36.0663 26.8346 36.0663ZM26.9011 35.6745C27.0736 35.6745 27.219 35.6406 27.3373 35.5728C27.4568 35.505 27.5468 35.4175 27.6071 35.3103C27.6688 35.2031 27.6996 35.0904 27.6996 34.9721V34.5729C27.6811 34.595 27.6404 34.6154 27.5776 34.6339C27.516 34.6511 27.4445 34.6665 27.3632 34.6801C27.2831 34.6924 27.2048 34.7035 27.1284 34.7133C27.0533 34.722 26.9923 34.7294 26.9455 34.7355C26.8321 34.7503 26.7261 34.7743 26.6275 34.8076C26.5302 34.8396 26.4513 34.8883 26.391 34.9536C26.3318 35.0177 26.3022 35.1052 26.3022 35.2161C26.3022 35.3676 26.3583 35.4822 26.4704 35.5599C26.5838 35.6363 26.7274 35.6745 26.9011 35.6745ZM28.9319 35.9998V33.1608H29.3533V33.5896H29.3829C29.4347 33.4491 29.5283 33.3351 29.6638 33.2476C29.7994 33.1601 29.9522 33.1164 30.1222 33.1164C30.1543 33.1164 30.1943 33.117 30.2424 33.1183C30.2904 33.1195 30.3268 33.1213 30.3514 33.1238V33.5674C30.3366 33.5637 30.3027 33.5581 30.2498 33.5508C30.198 33.5421 30.1432 33.5378 30.0853 33.5378C29.9473 33.5378 29.824 33.5668 29.7156 33.6247C29.6084 33.6814 29.5234 33.7602 29.4605 33.8613C29.3989 33.9611 29.3681 34.0751 29.3681 34.2032V35.9998H28.9319ZM34.4616 33.1608C34.4394 32.9735 34.3494 32.8281 34.1917 32.7246C34.034 32.6211 33.8405 32.5693 33.6114 32.5693C33.4438 32.5693 33.2971 32.5964 33.1715 32.6506C33.047 32.7048 32.9497 32.7794 32.8794 32.8743C32.8104 32.9692 32.7759 33.077 32.7759 33.1977C32.7759 33.2988 32.8 33.3856 32.848 33.4583C32.8973 33.5298 32.9601 33.5896 33.0365 33.6376C33.1129 33.6844 33.193 33.7233 33.2768 33.7541C33.3606 33.7836 33.4376 33.8077 33.5079 33.8262L33.8923 33.9297C33.9909 33.9555 34.1005 33.9913 34.2213 34.0369C34.3433 34.0825 34.4597 34.1447 34.5706 34.2235C34.6828 34.3012 34.7752 34.401 34.8479 34.523C34.9206 34.645 34.9569 34.7947 34.9569 34.9721C34.9569 35.1766 34.9033 35.3615 34.7961 35.5266C34.6901 35.6917 34.5349 35.8229 34.3303 35.9203C34.127 36.0176 33.88 36.0663 33.5892 36.0663C33.3181 36.0663 33.0834 36.0226 32.885 35.9351C32.6878 35.8476 32.5326 35.7256 32.4192 35.5691C32.3071 35.4126 32.2436 35.2309 32.2288 35.0239H32.702C32.7143 35.1668 32.7624 35.2851 32.8462 35.3787C32.9312 35.4711 33.0384 35.5401 33.1678 35.5857C33.2984 35.6301 33.4388 35.6523 33.5892 35.6523C33.7641 35.6523 33.9213 35.6239 34.0605 35.5673C34.1997 35.5093 34.31 35.4292 34.3913 35.327C34.4727 35.2235 34.5133 35.1027 34.5133 34.9647C34.5133 34.839 34.4782 34.7367 34.408 34.6579C34.3377 34.579 34.2453 34.515 34.1307 34.4657C34.0161 34.4164 33.8923 34.3732 33.7592 34.3363L33.2934 34.2032C32.9977 34.1182 32.7636 33.9968 32.5911 33.8391C32.4186 33.6814 32.3323 33.475 32.3323 33.2199C32.3323 33.008 32.3896 32.8231 32.5042 32.6654C32.6201 32.5065 32.7753 32.3832 32.97 32.2958C33.1659 32.207 33.3846 32.1627 33.6261 32.1627C33.8701 32.1627 34.087 32.2064 34.2767 32.2939C34.4665 32.3802 34.6168 32.4985 34.7277 32.6488C34.8399 32.7991 34.899 32.9698 34.9052 33.1608H34.4616ZM36.8048 36.0589C36.5485 36.0589 36.3236 35.9979 36.1301 35.8759C35.9379 35.7539 35.7876 35.5833 35.6791 35.3639C35.5719 35.1446 35.5183 34.8883 35.5183 34.595C35.5183 34.2993 35.5719 34.0412 35.6791 33.8206C35.7876 33.6 35.9379 33.4288 36.1301 33.3068C36.3236 33.1848 36.5485 33.1238 36.8048 33.1238C37.0611 33.1238 37.2853 33.1848 37.4775 33.3068C37.671 33.4288 37.8213 33.6 37.9285 33.8206C38.037 34.0412 38.0912 34.2993 38.0912 34.595C38.0912 34.8883 38.037 35.1446 37.9285 35.3639C37.8213 35.5833 37.671 35.7539 37.4775 35.8759C37.2853 35.9979 37.0611 36.0589 36.8048 36.0589ZM36.8048 35.6671C36.9994 35.6671 37.1596 35.6172 37.2853 35.5173C37.411 35.4175 37.504 35.2863 37.5644 35.1237C37.6248 34.961 37.655 34.7848 37.655 34.595C37.655 34.4053 37.6248 34.2285 37.5644 34.0646C37.504 33.9007 37.411 33.7682 37.2853 33.6672C37.1596 33.5662 36.9994 33.5156 36.8048 33.5156C36.6101 33.5156 36.4499 33.5662 36.3242 33.6672C36.1985 33.7682 36.1055 33.9007 36.0451 34.0646C35.9847 34.2285 35.9545 34.4053 35.9545 34.595C35.9545 34.7848 35.9847 34.961 36.0451 35.1237C36.1055 35.2863 36.1985 35.4175 36.3242 35.5173C36.4499 35.6172 36.6101 35.6671 36.8048 35.6671ZM40.5462 34.839V33.1608H40.9824V35.9998H40.5462V35.5192H40.5166C40.4501 35.6634 40.3466 35.786 40.2061 35.887C40.0656 35.9868 39.8882 36.0367 39.6738 36.0367C39.4963 36.0367 39.3386 35.9979 39.2006 35.9203C39.0626 35.8414 38.9542 35.7231 38.8753 35.5654C38.7965 35.4065 38.757 35.2062 38.757 34.9647V33.1608H39.1932V34.9351C39.1932 35.1421 39.2511 35.3073 39.367 35.4305C39.484 35.5537 39.6331 35.6153 39.8143 35.6153C39.9227 35.6153 40.033 35.5876 40.1451 35.5321C40.2585 35.4767 40.3533 35.3917 40.4297 35.2771C40.5074 35.1625 40.5462 35.0165 40.5462 34.839ZM41.7813 35.9998V33.1608H42.2027V33.5896H42.2323C42.2841 33.4491 42.3777 33.3351 42.5132 33.2476C42.6488 33.1601 42.8016 33.1164 42.9716 33.1164C43.0037 33.1164 43.0437 33.117 43.0918 33.1183C43.1398 33.1195 43.1762 33.1213 43.2008 33.1238V33.5674C43.186 33.5637 43.1521 33.5581 43.0992 33.5508C43.0474 33.5421 42.9926 33.5378 42.9347 33.5378C42.7966 33.5378 42.6734 33.5668 42.565 33.6247C42.4578 33.6814 42.3728 33.7602 42.3099 33.8613C42.2483 33.9611 42.2175 34.0751 42.2175 34.2032V35.9998H41.7813ZM45.7288 33.7966L45.337 33.9075C45.3123 33.8422 45.276 33.7787 45.2279 33.7171C45.1811 33.6543 45.117 33.6025 45.0357 33.5618C44.9544 33.5212 44.8503 33.5009 44.7233 33.5009C44.5496 33.5009 44.4048 33.5409 44.289 33.621C44.1744 33.6999 44.1171 33.8003 44.1171 33.9223C44.1171 34.0307 44.1565 34.1163 44.2354 34.1792C44.3143 34.242 44.4375 34.2944 44.6051 34.3363L45.0265 34.4398C45.2803 34.5014 45.4694 34.5957 45.5939 34.7226C45.7184 34.8483 45.7806 35.0103 45.7806 35.2087C45.7806 35.3713 45.7338 35.5167 45.6401 35.6449C45.5477 35.773 45.4183 35.8741 45.252 35.948C45.0856 36.0219 44.8922 36.0589 44.6716 36.0589C44.382 36.0589 44.1424 35.9961 43.9526 35.8704C43.7628 35.7447 43.6427 35.5611 43.5922 35.3196L44.0062 35.2161C44.0456 35.3689 44.1202 35.4835 44.2299 35.5599C44.3407 35.6363 44.4855 35.6745 44.6642 35.6745C44.8675 35.6745 45.0289 35.6313 45.1485 35.5451C45.2692 35.4576 45.3296 35.3529 45.3296 35.2309C45.3296 35.1323 45.2951 35.0497 45.2261 34.9832C45.1571 34.9154 45.0511 34.8649 44.9082 34.8316L44.435 34.7207C44.175 34.6591 43.984 34.5636 43.862 34.4342C43.7413 34.3036 43.6809 34.1404 43.6809 33.9444C43.6809 33.7843 43.7259 33.6426 43.8158 33.5193C43.907 33.3961 44.0309 33.2994 44.1873 33.2292C44.3451 33.1589 44.5237 33.1238 44.7233 33.1238C45.0043 33.1238 45.2249 33.1854 45.385 33.3086C45.5465 33.4318 45.6611 33.5945 45.7288 33.7966ZM47.6275 36.0589C47.3539 36.0589 47.118 35.9985 46.9196 35.8778C46.7224 35.7558 46.5703 35.5857 46.4631 35.3676C46.3571 35.1483 46.3041 34.8932 46.3041 34.6024C46.3041 34.3116 46.3571 34.0553 46.4631 33.8335C46.5703 33.6105 46.7194 33.4368 46.9104 33.3123C47.1026 33.1866 47.3268 33.1238 47.5831 33.1238C47.731 33.1238 47.877 33.1484 48.0212 33.1977C48.1653 33.247 48.2966 33.3271 48.4149 33.438C48.5332 33.5477 48.6274 33.6931 48.6977 33.8742C48.7679 34.0553 48.803 34.2784 48.803 34.5433V34.7281H46.6146V34.3511H48.3594C48.3594 34.1909 48.3274 34.0479 48.2633 33.9223C48.2005 33.7966 48.1105 33.6974 47.9935 33.6247C47.8776 33.552 47.7409 33.5156 47.5831 33.5156C47.4094 33.5156 47.2591 33.5588 47.1321 33.645C47.0065 33.73 46.9097 33.8409 46.842 33.9777C46.7742 34.1145 46.7403 34.2611 46.7403 34.4176V34.669C46.7403 34.8834 46.7773 35.0651 46.8512 35.2142C46.9264 35.3621 47.0305 35.4748 47.1636 35.5525C47.2966 35.6289 47.4513 35.6671 47.6275 35.6671C47.7421 35.6671 47.8456 35.651 47.938 35.619C48.0317 35.5857 48.1124 35.5364 48.1801 35.4711C48.2479 35.4046 48.3003 35.322 48.3372 35.2235L48.7587 35.3418C48.7143 35.4847 48.6397 35.6104 48.535 35.7188C48.4303 35.826 48.3009 35.9098 48.1469 35.9702C47.9928 36.0293 47.8197 36.0589 47.6275 36.0589ZM50.3981 34.4028C50.3981 34.8686 50.3371 35.2974 50.2151 35.6892C50.0944 36.0798 49.9212 36.4397 49.6957 36.7686H49.3113C49.4 36.6467 49.4826 36.4963 49.559 36.3177C49.6366 36.1402 49.7044 35.9455 49.7623 35.7336C49.8202 35.5204 49.8652 35.3005 49.8972 35.0738C49.9305 34.8458 49.9471 34.6222 49.9471 34.4028C49.9471 34.1096 49.9188 33.812 49.8621 33.5101C49.8054 33.2082 49.729 32.9279 49.6329 32.6691C49.5368 32.4104 49.4296 32.1996 49.3113 32.037H49.6957C49.9212 32.366 50.0944 32.7264 50.2151 33.1183C50.3371 33.5089 50.3981 33.9371 50.3981 34.4028Z" fill="#00EB9A"/>
<path d="M18.2425 43.3733V40.5343H18.6787V43.3733H18.2425ZM18.4643 40.0611C18.3793 40.0611 18.306 40.0322 18.2443 39.9743C18.184 39.9163 18.1538 39.8467 18.1538 39.7654C18.1538 39.6841 18.184 39.6145 18.2443 39.5565C18.306 39.4986 18.3793 39.4697 18.4643 39.4697C18.5493 39.4697 18.622 39.4986 18.6824 39.5565C18.744 39.6145 18.7748 39.6841 18.7748 39.7654C18.7748 39.8467 18.744 39.9163 18.6824 39.9743C18.622 40.0322 18.5493 40.0611 18.4643 40.0611ZM20.7419 40.5343V40.904H19.2115V40.5343H20.7419ZM19.6698 43.3733V40.1425C19.6698 39.9798 19.708 39.8443 19.7844 39.7358C19.8608 39.6274 19.96 39.5461 20.082 39.4919C20.204 39.4376 20.3328 39.4105 20.4683 39.4105C20.5755 39.4105 20.663 39.4192 20.7308 39.4364C20.7985 39.4537 20.8491 39.4697 20.8823 39.4845L20.7566 39.8615C20.7345 39.8541 20.7037 39.8449 20.6642 39.8338C20.626 39.8227 20.5755 39.8172 20.5127 39.8172C20.3685 39.8172 20.2644 39.8535 20.2003 39.9262C20.1375 39.9989 20.106 40.1055 20.106 40.246V43.3733H19.6698ZM22.9723 41.7764C22.9723 41.3106 23.0327 40.8824 23.1534 40.4918C23.2754 40.0999 23.4492 39.7395 23.6747 39.4105H24.0591C23.9704 39.5325 23.8872 39.6828 23.8096 39.8615C23.7332 40.039 23.666 40.2343 23.6081 40.4474C23.5502 40.6594 23.5046 40.8787 23.4713 41.1054C23.4393 41.3321 23.4233 41.5558 23.4233 41.7764C23.4233 42.0696 23.4516 42.3672 23.5083 42.6691C23.565 42.971 23.6414 43.2513 23.7375 43.5101C23.8336 43.7688 23.9408 43.9795 24.0591 44.1422H23.6747C23.4492 43.8132 23.2754 43.4534 23.1534 43.0628C23.0327 42.6709 22.9723 42.2421 22.9723 41.7764ZM24.5549 40.7709V40.4382C24.5549 40.3371 24.5728 40.2299 24.6085 40.1166C24.6455 40.002 24.6985 39.8917 24.7675 39.7857C24.8377 39.6785 24.9221 39.5855 25.0207 39.5066L25.2573 39.6989C25.1796 39.8098 25.1119 39.9256 25.054 40.0463C24.9973 40.1659 24.9689 40.294 24.9689 40.4308V40.7709H24.5549ZM25.5012 40.7709V40.4382C25.5012 40.3371 25.5191 40.2299 25.5548 40.1166C25.5918 40.002 25.6448 39.8917 25.7138 39.7857C25.784 39.6785 25.8684 39.5855 25.967 39.5066L26.2036 39.6989C26.126 39.8098 26.0582 39.9256 26.0003 40.0463C25.9436 40.1659 25.9153 40.294 25.9153 40.4308V40.7709H25.5012ZM27.9197 40.5343V40.904H26.4485V40.5343H27.9197ZM26.8773 39.8541H27.3135V42.56C27.3135 42.6833 27.3314 42.7757 27.3671 42.8373C27.4041 42.8977 27.4509 42.9383 27.5076 42.9593C27.5655 42.979 27.6265 42.9888 27.6906 42.9888C27.7386 42.9888 27.778 42.9864 27.8088 42.9815C27.8396 42.9753 27.8643 42.9704 27.8828 42.9667L27.9715 43.3585C27.9419 43.3696 27.9006 43.3807 27.8477 43.3918C27.7947 43.4041 27.7275 43.4103 27.6462 43.4103C27.523 43.4103 27.4022 43.3838 27.2839 43.3308C27.1669 43.2778 27.0695 43.1971 26.9919 43.0887C26.9155 42.9802 26.8773 42.8434 26.8773 42.6783V39.8541ZM28.5759 43.3733V40.5343H28.9973V40.9631H29.0269C29.0786 40.8226 29.1723 40.7087 29.3078 40.6212C29.4434 40.5337 29.5962 40.4899 29.7662 40.4899C29.7982 40.4899 29.8383 40.4906 29.8863 40.4918C29.9344 40.493 29.9707 40.4949 29.9954 40.4973V40.9409C29.9806 40.9372 29.9467 40.9317 29.8937 40.9243C29.842 40.9157 29.7871 40.9114 29.7292 40.9114C29.5912 40.9114 29.468 40.9403 29.3596 40.9982C29.2524 41.0549 29.1673 41.1338 29.1045 41.2348C29.0429 41.3346 29.0121 41.4486 29.0121 41.5767V43.3733H28.5759ZM32.3016 42.2126V40.5343H32.7378V43.3733H32.3016V42.8927H32.272C32.2055 43.0369 32.102 43.1595 31.9615 43.2605C31.821 43.3604 31.6436 43.4103 31.4292 43.4103C31.2518 43.4103 31.094 43.3714 30.956 43.2938C30.818 43.215 30.7096 43.0967 30.6307 42.9389C30.5519 42.78 30.5124 42.5798 30.5124 42.3382V40.5343H30.9486V42.3087C30.9486 42.5157 31.0066 42.6808 31.1224 42.804C31.2394 42.9272 31.3885 42.9888 31.5697 42.9888C31.6781 42.9888 31.7884 42.9611 31.9005 42.9057C32.0139 42.8502 32.1088 42.7652 32.1852 42.6506C32.2628 42.536 32.3016 42.39 32.3016 42.2126ZM34.727 43.4324C34.4535 43.4324 34.2175 43.3721 34.0191 43.2513C33.822 43.1293 33.6698 42.9593 33.5626 42.7412C33.4566 42.5218 33.4037 42.2668 33.4037 41.976C33.4037 41.6852 33.4566 41.4289 33.5626 41.2071C33.6698 40.9841 33.8189 40.8103 34.0099 40.6859C34.2021 40.5602 34.4264 40.4973 34.6827 40.4973C34.8305 40.4973 34.9766 40.522 35.1207 40.5713C35.2649 40.6206 35.3961 40.7006 35.5144 40.8115C35.6327 40.9212 35.727 41.0666 35.7972 41.2477C35.8674 41.4289 35.9026 41.6519 35.9026 41.9168V42.1017H33.7142V41.7246H35.459C35.459 41.5644 35.4269 41.4215 35.3629 41.2958C35.3 41.1701 35.2101 41.0709 35.093 40.9982C34.9772 40.9255 34.8404 40.8892 34.6827 40.8892C34.5089 40.8892 34.3586 40.9323 34.2317 41.0186C34.106 41.1036 34.0093 41.2145 33.9415 41.3512C33.8737 41.488 33.8399 41.6347 33.8399 41.7911V42.0425C33.8399 42.2569 33.8768 42.4387 33.9508 42.5878C34.0259 42.7356 34.13 42.8484 34.2631 42.926C34.3962 43.0024 34.5508 43.0406 34.727 43.0406C34.8416 43.0406 34.9451 43.0246 35.0376 42.9925C35.1312 42.9593 35.2119 42.91 35.2797 42.8447C35.3475 42.7781 35.3998 42.6956 35.4368 42.597L35.8582 42.7153C35.8138 42.8582 35.7393 42.9839 35.6346 43.0923C35.5298 43.1996 35.4004 43.2833 35.2464 43.3437C35.0924 43.4029 34.9193 43.4324 34.727 43.4324ZM36.9505 39.588V39.9207C36.9505 40.0217 36.9321 40.1295 36.8951 40.2441C36.8594 40.3575 36.8064 40.4678 36.7361 40.575C36.6671 40.6809 36.5834 40.7733 36.4848 40.8522L36.2482 40.66C36.3258 40.5491 36.393 40.4339 36.4497 40.3144C36.5076 40.1936 36.5365 40.0648 36.5365 39.9281V39.588H36.9505ZM37.8969 39.588V39.9207C37.8969 40.0217 37.8784 40.1295 37.8414 40.2441C37.8057 40.3575 37.7527 40.4678 37.6825 40.575C37.6135 40.6809 37.5297 40.7733 37.4311 40.8522L37.1945 40.66C37.2722 40.5491 37.3393 40.4339 37.396 40.3144C37.4539 40.1936 37.4829 40.0648 37.4829 39.9281V39.588H37.8969ZM40.1897 41.5472V41.1479H42.4668V41.5472H40.1897ZM40.1897 42.6414V42.2421H42.4668V42.6414H40.1897ZM44.7592 40.7709V40.4382C44.7592 40.3371 44.777 40.2299 44.8128 40.1166C44.8497 40.002 44.9027 39.8917 44.9717 39.7857C45.042 39.6785 45.1264 39.5855 45.2249 39.5066L45.4615 39.6989C45.3839 39.8098 45.3161 39.9256 45.2582 40.0463C45.2015 40.1659 45.1732 40.294 45.1732 40.4308V40.7709H44.7592ZM45.7055 40.7709V40.4382C45.7055 40.3371 45.7234 40.2299 45.7591 40.1166C45.7961 40.002 45.849 39.8917 45.918 39.7857C45.9883 39.6785 46.0727 39.5855 46.1713 39.5066L46.4078 39.6989C46.3302 39.8098 46.2624 39.9256 46.2045 40.0463C46.1479 40.1659 46.1195 40.294 46.1195 40.4308V40.7709H45.7055ZM48.124 40.5343V40.904H46.6527V40.5343H48.124ZM47.0816 39.8541H47.5178V42.56C47.5178 42.6833 47.5356 42.7757 47.5714 42.8373C47.6083 42.8977 47.6551 42.9383 47.7118 42.9593C47.7697 42.979 47.8307 42.9888 47.8948 42.9888C47.9429 42.9888 47.9823 42.9864 48.0131 42.9815C48.0439 42.9753 48.0685 42.9704 48.087 42.9667L48.1757 43.3585C48.1462 43.3696 48.1049 43.3807 48.0519 43.3918C47.9989 43.4041 47.9318 43.4103 47.8504 43.4103C47.7272 43.4103 47.6065 43.3838 47.4882 43.3308C47.3711 43.2778 47.2738 43.1971 47.1961 43.0887C47.1198 42.9802 47.0816 42.8434 47.0816 42.6783V39.8541ZM48.7801 43.3733V40.5343H49.2016V40.9631H49.2311C49.2829 40.8226 49.3765 40.7087 49.5121 40.6212C49.6476 40.5337 49.8004 40.4899 49.9704 40.4899C50.0025 40.4899 50.0425 40.4906 50.0906 40.4918C50.1386 40.493 50.175 40.4949 50.1996 40.4973V40.9409C50.1849 40.9372 50.151 40.9317 50.098 40.9243C50.0462 40.9157 49.9914 40.9114 49.9335 40.9114C49.7955 40.9114 49.6723 40.9403 49.5638 40.9982C49.4566 41.0549 49.3716 41.1338 49.3088 41.2348C49.2471 41.3346 49.2163 41.4486 49.2163 41.5767V43.3733H48.7801ZM52.5059 42.2126V40.5343H52.9421V43.3733H52.5059V42.8927H52.4763C52.4097 43.0369 52.3062 43.1595 52.1658 43.2605C52.0253 43.3604 51.8479 43.4103 51.6335 43.4103C51.456 43.4103 51.2983 43.3714 51.1603 43.2938C51.0223 43.215 50.9139 43.0967 50.835 42.9389C50.7561 42.78 50.7167 42.5798 50.7167 42.3382V40.5343H51.1529V42.3087C51.1529 42.5157 51.2108 42.6808 51.3266 42.804C51.4437 42.9272 51.5928 42.9888 51.7739 42.9888C51.8824 42.9888 51.9926 42.9611 52.1048 42.9057C52.2181 42.8502 52.313 42.7652 52.3894 42.6506C52.467 42.536 52.5059 42.39 52.5059 42.2126ZM54.9313 43.4324C54.6577 43.4324 54.4218 43.3721 54.2234 43.2513C54.0262 43.1293 53.8741 42.9593 53.7669 42.7412C53.6609 42.5218 53.6079 42.2668 53.6079 41.976C53.6079 41.6852 53.6609 41.4289 53.7669 41.2071C53.8741 40.9841 54.0232 40.8103 54.2141 40.6859C54.4064 40.5602 54.6306 40.4973 54.8869 40.4973C55.0348 40.4973 55.1808 40.522 55.325 40.5713C55.4691 40.6206 55.6004 40.7006 55.7187 40.8115C55.837 40.9212 55.9312 41.0666 56.0015 41.2477C56.0717 41.4289 56.1068 41.6519 56.1068 41.9168V42.1017H53.9184V41.7246H55.6632C55.6632 41.5644 55.6312 41.4215 55.5671 41.2958C55.5043 41.1701 55.4143 41.0709 55.2973 40.9982C55.1814 40.9255 55.0447 40.8892 54.8869 40.8892C54.7132 40.8892 54.5629 40.9323 54.4359 41.0186C54.3103 41.1036 54.2135 41.2145 54.1458 41.3512C54.078 41.488 54.0441 41.6347 54.0441 41.7911V42.0425C54.0441 42.2569 54.0811 42.4387 54.155 42.5878C54.2302 42.7356 54.3343 42.8484 54.4674 42.926C54.6004 43.0024 54.7551 43.0406 54.9313 43.0406C55.0459 43.0406 55.1494 43.0246 55.2418 42.9925C55.3355 42.9593 55.4162 42.91 55.4839 42.8447C55.5517 42.7781 55.6041 42.6956 55.641 42.597L56.0625 42.7153C56.0181 42.8582 55.9435 42.9839 55.8388 43.0923C55.7341 43.1996 55.6047 43.2833 55.4507 43.3437C55.2966 43.4029 55.1235 43.4324 54.9313 43.4324ZM57.1548 39.588V39.9207C57.1548 40.0217 57.1363 40.1295 57.0994 40.2441C57.0636 40.3575 57.0106 40.4678 56.9404 40.575C56.8714 40.6809 56.7876 40.7733 56.689 40.8522L56.4524 40.66C56.5301 40.5491 56.5972 40.4339 56.6539 40.3144C56.7118 40.1936 56.7408 40.0648 56.7408 39.9281V39.588H57.1548ZM58.1011 39.588V39.9207C58.1011 40.0217 58.0826 40.1295 58.0457 40.2441C58.0099 40.3575 57.957 40.4678 57.8867 40.575C57.8177 40.6809 57.7339 40.7733 57.6354 40.8522L57.3988 40.66C57.4764 40.5491 57.5436 40.4339 57.6002 40.3144C57.6582 40.1936 57.6871 40.0648 57.6871 39.9281V39.588H58.1011ZM59.6842 41.7764C59.6842 42.2421 59.6232 42.6709 59.5012 43.0628C59.3805 43.4534 59.2073 43.8132 58.9818 44.1422H58.5974C58.6861 44.0202 58.7687 43.8699 58.8451 43.6912C58.9227 43.5138 58.9905 43.3191 59.0484 43.1071C59.1063 42.894 59.1513 42.674 59.1833 42.4473C59.2166 42.2193 59.2332 41.9957 59.2332 41.7764C59.2332 41.4831 59.2049 41.1855 59.1482 40.8836C59.0915 40.5817 59.0151 40.3014 58.919 40.0427C58.8229 39.7839 58.7157 39.5732 58.5974 39.4105H58.9818C59.2073 39.7395 59.3805 40.0999 59.5012 40.4918C59.6232 40.8824 59.6842 41.3106 59.6842 41.7764Z" fill="#00EB9A"/>
<rect width="65" height="12" fill="#00260C"/>
<circle cx="10" cy="7" r="2" fill="#F96057"/>
<circle cx="17" cy="7" r="2" fill="#F8CE52"/>
<circle cx="24" cy="7" r="2" fill="#5FCF65"/>
</g>
<rect x="0.5" y="0.5" width="64" height="45" rx="9.5" stroke="url(#paint1_linear_4195_735)" stroke-opacity="0.4"/>
<defs>
<linearGradient id="paint0_linear_4195_735" x1="54" y1="5.20985e-07" x2="42.974" y2="71.6691" gradientUnits="userSpaceOnUse">
<stop/>
<stop offset="1" stop-color="#53FF87"/>
</linearGradient>
<linearGradient id="paint1_linear_4195_735" x1="10.8333" y1="3.06667" x2="36.3802" y2="50.6516" gradientUnits="userSpaceOnUse">
<stop stop-color="#00EB9A"/>
<stop offset="1" stop-color="#00EB9A" stop-opacity="0"/>
</linearGradient>
<clipPath id="clip0_4195_735">
<rect width="65" height="46" rx="10" fill="white"/>
</clipPath>
</defs>
</svg>
