<svg width="1440" height="279" viewBox="0 0 1440 279" fill="none" xmlns="http://www.w3.org/2000/svg">
<path opacity="0.5" d="M1440 134.102H1335.28C1297.84 134.102 1261.15 123.594 1229.39 103.773L1118.29 34.4402C1086.53 14.6196 1049.85 4.11157 1012.41 4.11157L804.087 4.11157" stroke="url(#paint0_linear_6007_308)" stroke-width="1.19905"/>
<g style="mix-blend-mode:color-dodge">
<ellipse cx="43.6313" cy="3.67844" rx="43.6313" ry="3.67844" transform="matrix(-1 0 0 1 1022.59 0.186523)" fill="url(#paint1_radial_6007_308)"/>
</g>
<g style="mix-blend-mode:color-dodge" opacity="0.3">
<ellipse cx="43.6313" cy="3.67844" rx="43.6313" ry="3.67844" transform="matrix(-1 0 0 1 1022.59 0.186523)" fill="url(#paint2_radial_6007_308)"/>
</g>
<path opacity="0.5" d="M1440 134.102H1319.71C1292.19 134.102 1264.97 128.424 1239.75 117.425L1107.93 59.9329C1082.71 48.9336 1055.49 43.2563 1027.98 43.2563L804.087 43.2563" stroke="url(#paint3_linear_6007_308)" stroke-width="1.19905"/>
<path opacity="0.5" d="M1440 134.101H1301.42C1285.85 134.101 1270.34 132.283 1255.19 128.685L1092.49 90.0314C1077.34 86.4332 1061.83 84.6157 1046.26 84.6157L804.087 84.6157" stroke="url(#paint4_linear_6007_308)" stroke-width="1.19905"/>
<g style="mix-blend-mode:color-dodge">
<ellipse cx="43.6313" cy="3.67844" rx="43.6313" ry="3.67844" transform="matrix(-1 0 0 1 952.5 39.562)" fill="url(#paint5_radial_6007_308)"/>
</g>
<g style="mix-blend-mode:color-dodge" opacity="0.3">
<ellipse cx="43.6313" cy="3.67844" rx="43.6313" ry="3.67844" transform="matrix(-1 0 0 1 952.5 39.562)" fill="url(#paint6_radial_6007_308)"/>
</g>
<g style="mix-blend-mode:color-dodge">
<ellipse cx="42.5567" cy="3.84874" rx="42.5567" ry="3.84874" transform="matrix(-0.972634 -0.232344 -0.421772 0.906702 1185.84 108.727)" fill="url(#paint7_radial_6007_308)"/>
</g>
<g style="mix-blend-mode:color-dodge" opacity="0.3">
<ellipse cx="42.5567" cy="3.84874" rx="42.5567" ry="3.84874" transform="matrix(-0.972634 -0.232344 -0.421772 0.906702 1185.84 108.727)" fill="url(#paint8_radial_6007_308)"/>
</g>
<path opacity="0.5" d="M1440 148.134H1335.28C1297.84 148.134 1261.15 158.642 1229.39 178.462L1118.29 247.795C1086.53 267.616 1049.85 278.124 1012.41 278.124L804.087 278.124" stroke="url(#paint9_linear_6007_308)" stroke-width="1.19905"/>
<path opacity="0.5" d="M1440 148.135H1319.71C1292.19 148.135 1264.97 153.812 1239.75 164.812L1107.93 222.304C1082.71 233.303 1055.49 238.98 1027.98 238.98L804.087 238.98" stroke="url(#paint10_linear_6007_308)" stroke-width="1.19905"/>
<path opacity="0.5" d="M1440 148.134H1301.42C1285.85 148.134 1270.34 149.951 1255.19 153.549L1092.49 192.203C1077.34 195.801 1061.83 197.618 1046.26 197.618L804.087 197.618" stroke="url(#paint11_linear_6007_308)" stroke-width="1.19905"/>
<g style="mix-blend-mode:color-dodge">
<ellipse cx="43.6313" cy="3.67844" rx="43.6313" ry="3.67844" transform="matrix(-1 0 0 1 1022.59 193.926)" fill="url(#paint12_radial_6007_308)"/>
</g>
<g style="mix-blend-mode:color-dodge" opacity="0.3">
<ellipse cx="43.6313" cy="3.67844" rx="43.6313" ry="3.67844" transform="matrix(-1 0 0 1 1022.59 193.926)" fill="url(#paint13_radial_6007_308)"/>
</g>
<g style="mix-blend-mode:color-dodge">
<ellipse cx="43.6313" cy="3.67844" rx="43.6313" ry="3.67844" transform="matrix(-1 0 0 1 932.918 235.286)" fill="url(#paint14_radial_6007_308)"/>
</g>
<g style="mix-blend-mode:color-dodge" opacity="0.3">
<ellipse cx="43.6313" cy="3.67844" rx="43.6313" ry="3.67844" transform="matrix(-1 0 0 1 932.918 235.286)" fill="url(#paint15_radial_6007_308)"/>
</g>
<path opacity="0.5" d="M0 134.102H121.321C156.455 134.102 190.97 124.846 221.39 107.266L353.458 30.9467C383.878 13.3672 418.393 4.11157 453.527 4.11157L686.723 4.11157" stroke="url(#paint16_linear_6007_308)" stroke-width="1.19905"/>
<g style="mix-blend-mode:color-dodge">
<ellipse cx="497.883" cy="3.86497" rx="47.1175" ry="3.67844" fill="url(#paint17_radial_6007_308)"/>
</g>
<g style="mix-blend-mode:color-dodge" opacity="0.3">
<ellipse cx="497.883" cy="3.86497" rx="47.1175" ry="3.67844" fill="url(#paint18_radial_6007_308)"/>
</g>
<path opacity="0.5" d="M0 134.102H136.092C161.76 134.102 187.188 129.161 210.988 119.549L363.86 57.8091C387.66 48.1972 413.088 43.2563 438.756 43.2563L686.723 43.2563" stroke="url(#paint19_linear_6007_308)" stroke-width="1.19905"/>
<path opacity="0.5" d="M0 134.101H153.215C167.665 134.101 182.072 132.534 196.185 129.43L378.663 89.2864C392.775 86.1818 407.183 84.6157 421.633 84.6157L686.723 84.6157" stroke="url(#paint20_linear_6007_308)" stroke-width="1.19905"/>
<g style="mix-blend-mode:color-dodge">
<ellipse cx="573.569" cy="43.2405" rx="47.1175" ry="3.67844" fill="url(#paint21_radial_6007_308)"/>
</g>
<g style="mix-blend-mode:color-dodge" opacity="0.3">
<ellipse cx="573.569" cy="43.2405" rx="47.1175" ry="3.67844" fill="url(#paint22_radial_6007_308)"/>
</g>
<g style="mix-blend-mode:color-dodge">
<ellipse cx="45.7799" cy="3.90522" rx="45.7799" ry="3.90522" transform="matrix(0.976397 -0.215985 0.448884 0.89359 274.465 108.725)" fill="url(#paint23_radial_6007_308)"/>
</g>
<g style="mix-blend-mode:color-dodge" opacity="0.3">
<ellipse cx="45.7799" cy="3.90522" rx="45.7799" ry="3.90522" transform="matrix(0.976397 -0.215985 0.448884 0.89359 274.465 108.725)" fill="url(#paint24_radial_6007_308)"/>
</g>
<path opacity="0.5" d="M0 148.134H121.321C156.455 148.134 190.97 157.389 221.39 174.969L353.458 251.289C383.878 268.868 418.393 278.124 453.527 278.124L686.723 278.124" stroke="url(#paint25_linear_6007_308)" stroke-width="1.19905"/>
<path opacity="0.5" d="M0 148.135H136.092C161.76 148.135 187.188 153.076 210.988 162.688L363.86 224.428C387.66 234.04 413.088 238.98 438.756 238.98L686.723 238.98" stroke="url(#paint26_linear_6007_308)" stroke-width="1.19905"/>
<path opacity="0.5" d="M0 148.134H153.215C167.665 148.134 182.072 149.7 196.185 152.804L378.663 192.948C392.775 196.052 407.183 197.618 421.633 197.618L686.723 197.618" stroke="url(#paint27_linear_6007_308)" stroke-width="1.19905"/>
<g style="mix-blend-mode:color-dodge">
<ellipse cx="497.883" cy="197.604" rx="47.1175" ry="3.67844" fill="url(#paint28_radial_6007_308)"/>
</g>
<g style="mix-blend-mode:color-dodge" opacity="0.3">
<ellipse cx="497.883" cy="197.604" rx="47.1175" ry="3.67844" fill="url(#paint29_radial_6007_308)"/>
</g>
<g style="mix-blend-mode:color-dodge">
<ellipse cx="594.716" cy="238.965" rx="47.1175" ry="3.67844" fill="url(#paint30_radial_6007_308)"/>
</g>
<g style="mix-blend-mode:color-dodge" opacity="0.3">
<ellipse cx="594.716" cy="238.965" rx="47.1175" ry="3.67844" fill="url(#paint31_radial_6007_308)"/>
</g>
<defs>
<linearGradient id="paint0_linear_6007_308" x1="998.037" y1="-3.55023" x2="1008.81" y2="100.917" gradientUnits="userSpaceOnUse">
<stop stop-color="#00EB9A" stop-opacity="0.43"/>
<stop offset="0.255" stop-color="#00EB9A"/>
<stop offset="0.805" stop-color="#00EB9A"/>
<stop offset="1" stop-color="#00EB9A" stop-opacity="0.57"/>
</linearGradient>
<radialGradient id="paint1_radial_6007_308" cx="0" cy="0" r="1" gradientUnits="userSpaceOnUse" gradientTransform="translate(43.6313 3.67844) scale(43.6313 3.67844)">
<stop stop-color="#00EB9A"/>
<stop offset="1"/>
</radialGradient>
<radialGradient id="paint2_radial_6007_308" cx="0" cy="0" r="1" gradientUnits="userSpaceOnUse" gradientTransform="translate(43.6313 3.67844) scale(43.6313 3.67844)">
<stop stop-color="#00EB9A"/>
<stop offset="1"/>
</radialGradient>
<linearGradient id="paint3_linear_6007_308" x1="998.037" y1="37.9018" x2="1003.33" y2="111.305" gradientUnits="userSpaceOnUse">
<stop stop-color="#00EB9A" stop-opacity="0.43"/>
<stop offset="0.255" stop-color="#00EB9A"/>
<stop offset="0.805" stop-color="#00EB9A"/>
<stop offset="1" stop-color="#00EB9A" stop-opacity="0.57"/>
</linearGradient>
<linearGradient id="paint4_linear_6007_308" x1="998.037" y1="81.699" x2="999.613" y2="121.829" gradientUnits="userSpaceOnUse">
<stop stop-color="#00EB9A" stop-opacity="0.43"/>
<stop offset="0.255" stop-color="#00EB9A"/>
<stop offset="0.805" stop-color="#00EB9A"/>
<stop offset="1" stop-color="#00EB9A" stop-opacity="0.57"/>
</linearGradient>
<radialGradient id="paint5_radial_6007_308" cx="0" cy="0" r="1" gradientUnits="userSpaceOnUse" gradientTransform="translate(43.6313 3.67844) scale(43.6313 3.67844)">
<stop stop-color="#00EB9A"/>
<stop offset="1"/>
</radialGradient>
<radialGradient id="paint6_radial_6007_308" cx="0" cy="0" r="1" gradientUnits="userSpaceOnUse" gradientTransform="translate(43.6313 3.67844) scale(43.6313 3.67844)">
<stop stop-color="#00EB9A"/>
<stop offset="1"/>
</radialGradient>
<radialGradient id="paint7_radial_6007_308" cx="0" cy="0" r="1" gradientUnits="userSpaceOnUse" gradientTransform="translate(42.5567 3.84874) scale(42.5567 3.84874)">
<stop stop-color="#00EB9A"/>
<stop offset="1"/>
</radialGradient>
<radialGradient id="paint8_radial_6007_308" cx="0" cy="0" r="1" gradientUnits="userSpaceOnUse" gradientTransform="translate(42.5567 3.84874) scale(42.5567 3.84874)">
<stop stop-color="#00EB9A"/>
<stop offset="1"/>
</radialGradient>
<linearGradient id="paint9_linear_6007_308" x1="998.037" y1="285.786" x2="1008.81" y2="181.319" gradientUnits="userSpaceOnUse">
<stop stop-color="#00EB9A" stop-opacity="0.43"/>
<stop offset="0.255" stop-color="#00EB9A"/>
<stop offset="0.805" stop-color="#00EB9A"/>
<stop offset="1" stop-color="#00EB9A" stop-opacity="0.57"/>
</linearGradient>
<linearGradient id="paint10_linear_6007_308" x1="998.037" y1="244.335" x2="1003.33" y2="170.932" gradientUnits="userSpaceOnUse">
<stop stop-color="#00EB9A" stop-opacity="0.43"/>
<stop offset="0.255" stop-color="#00EB9A"/>
<stop offset="0.805" stop-color="#00EB9A"/>
<stop offset="1" stop-color="#00EB9A" stop-opacity="0.57"/>
</linearGradient>
<linearGradient id="paint11_linear_6007_308" x1="998.037" y1="200.535" x2="999.613" y2="160.405" gradientUnits="userSpaceOnUse">
<stop stop-color="#00EB9A" stop-opacity="0.43"/>
<stop offset="0.255" stop-color="#00EB9A"/>
<stop offset="0.805" stop-color="#00EB9A"/>
<stop offset="1" stop-color="#00EB9A" stop-opacity="0.57"/>
</linearGradient>
<radialGradient id="paint12_radial_6007_308" cx="0" cy="0" r="1" gradientUnits="userSpaceOnUse" gradientTransform="translate(43.6313 3.67844) scale(43.6313 3.67844)">
<stop stop-color="#00EB9A"/>
<stop offset="1"/>
</radialGradient>
<radialGradient id="paint13_radial_6007_308" cx="0" cy="0" r="1" gradientUnits="userSpaceOnUse" gradientTransform="translate(43.6313 3.67844) scale(43.6313 3.67844)">
<stop stop-color="#00EB9A"/>
<stop offset="1"/>
</radialGradient>
<radialGradient id="paint14_radial_6007_308" cx="0" cy="0" r="1" gradientUnits="userSpaceOnUse" gradientTransform="translate(43.6313 3.67844) scale(43.6313 3.67844)">
<stop stop-color="#00EB9A"/>
<stop offset="1"/>
</radialGradient>
<radialGradient id="paint15_radial_6007_308" cx="0" cy="0" r="1" gradientUnits="userSpaceOnUse" gradientTransform="translate(43.6313 3.67844) scale(43.6313 3.67844)">
<stop stop-color="#00EB9A"/>
<stop offset="1"/>
</radialGradient>
<linearGradient id="paint16_linear_6007_308" x1="477.275" y1="-3.55023" x2="467.283" y2="101.074" gradientUnits="userSpaceOnUse">
<stop stop-color="#00EB9A" stop-opacity="0.43"/>
<stop offset="0.255" stop-color="#00EB9A"/>
<stop offset="0.805" stop-color="#00EB9A"/>
<stop offset="1" stop-color="#00EB9A" stop-opacity="0.57"/>
</linearGradient>
<radialGradient id="paint17_radial_6007_308" cx="0" cy="0" r="1" gradientUnits="userSpaceOnUse" gradientTransform="translate(497.883 3.86497) scale(47.1175 3.67844)">
<stop stop-color="#00EB9A"/>
<stop offset="1"/>
</radialGradient>
<radialGradient id="paint18_radial_6007_308" cx="0" cy="0" r="1" gradientUnits="userSpaceOnUse" gradientTransform="translate(497.883 3.86497) scale(47.1175 3.67844)">
<stop stop-color="#00EB9A"/>
<stop offset="1"/>
</radialGradient>
<linearGradient id="paint19_linear_6007_308" x1="477.275" y1="37.9018" x2="472.373" y2="111.359" gradientUnits="userSpaceOnUse">
<stop stop-color="#00EB9A" stop-opacity="0.43"/>
<stop offset="0.255" stop-color="#00EB9A"/>
<stop offset="0.805" stop-color="#00EB9A"/>
<stop offset="1" stop-color="#00EB9A" stop-opacity="0.57"/>
</linearGradient>
<linearGradient id="paint20_linear_6007_308" x1="477.275" y1="81.699" x2="475.816" y2="121.838" gradientUnits="userSpaceOnUse">
<stop stop-color="#00EB9A" stop-opacity="0.43"/>
<stop offset="0.255" stop-color="#00EB9A"/>
<stop offset="0.805" stop-color="#00EB9A"/>
<stop offset="1" stop-color="#00EB9A" stop-opacity="0.57"/>
</linearGradient>
<radialGradient id="paint21_radial_6007_308" cx="0" cy="0" r="1" gradientUnits="userSpaceOnUse" gradientTransform="translate(573.569 43.2405) scale(47.1175 3.67844)">
<stop stop-color="#00EB9A"/>
<stop offset="1"/>
</radialGradient>
<radialGradient id="paint22_radial_6007_308" cx="0" cy="0" r="1" gradientUnits="userSpaceOnUse" gradientTransform="translate(573.569 43.2405) scale(47.1175 3.67844)">
<stop stop-color="#53FF87"/>
<stop offset="1"/>
</radialGradient>
<radialGradient id="paint23_radial_6007_308" cx="0" cy="0" r="1" gradientUnits="userSpaceOnUse" gradientTransform="translate(45.7799 3.90522) scale(45.7799 3.90522)">
<stop stop-color="#00EB9A"/>
<stop offset="1"/>
</radialGradient>
<radialGradient id="paint24_radial_6007_308" cx="0" cy="0" r="1" gradientUnits="userSpaceOnUse" gradientTransform="translate(45.7799 3.90522) scale(45.7799 3.90522)">
<stop stop-color="#00EB9A"/>
<stop offset="1"/>
</radialGradient>
<linearGradient id="paint25_linear_6007_308" x1="477.275" y1="285.786" x2="467.283" y2="181.162" gradientUnits="userSpaceOnUse">
<stop stop-color="#00EB9A" stop-opacity="0.43"/>
<stop offset="0.255" stop-color="#00EB9A"/>
<stop offset="0.805" stop-color="#00EB9A"/>
<stop offset="1" stop-color="#00EB9A" stop-opacity="0.57"/>
</linearGradient>
<linearGradient id="paint26_linear_6007_308" x1="477.275" y1="244.335" x2="472.373" y2="170.878" gradientUnits="userSpaceOnUse">
<stop stop-color="#00EB9A" stop-opacity="0.43"/>
<stop offset="0.255" stop-color="#00EB9A"/>
<stop offset="0.805" stop-color="#00EB9A"/>
<stop offset="1" stop-color="#00EB9A" stop-opacity="0.57"/>
</linearGradient>
<linearGradient id="paint27_linear_6007_308" x1="477.275" y1="200.535" x2="475.816" y2="160.397" gradientUnits="userSpaceOnUse">
<stop stop-color="#00EB9A" stop-opacity="0.43"/>
<stop offset="0.255" stop-color="#00EB9A"/>
<stop offset="0.805" stop-color="#00EB9A"/>
<stop offset="1" stop-color="#00EB9A" stop-opacity="0.57"/>
</linearGradient>
<radialGradient id="paint28_radial_6007_308" cx="0" cy="0" r="1" gradientUnits="userSpaceOnUse" gradientTransform="translate(497.883 197.604) scale(47.1175 3.67844)">
<stop stop-color="#00EB9A"/>
<stop offset="1"/>
</radialGradient>
<radialGradient id="paint29_radial_6007_308" cx="0" cy="0" r="1" gradientUnits="userSpaceOnUse" gradientTransform="translate(497.883 197.604) scale(47.1175 3.67844)">
<stop stop-color="#00EB9A"/>
<stop offset="1"/>
</radialGradient>
<radialGradient id="paint30_radial_6007_308" cx="0" cy="0" r="1" gradientUnits="userSpaceOnUse" gradientTransform="translate(594.716 238.965) scale(47.1175 3.67844)">
<stop stop-color="#00EB9A"/>
<stop offset="1"/>
</radialGradient>
<radialGradient id="paint31_radial_6007_308" cx="0" cy="0" r="1" gradientUnits="userSpaceOnUse" gradientTransform="translate(594.716 238.965) scale(47.1175 3.67844)">
<stop stop-color="#00EB9A"/>
<stop offset="1"/>
</radialGradient>
</defs>
</svg>
