<svg width="127" height="24" viewBox="0 0 127 24" fill="none" xmlns="http://www.w3.org/2000/svg">
<path d="M0.688 24V0.671999H5.808L16.752 18.24H16.944L16.784 10.624V0.671999H20.848V24H15.984L5.072 6.72H4.848L4.976 13.696V24H0.688ZM26.2193 24V0.671999H42.8593V4.32H29.5153L30.4433 3.392V11.328L29.5153 10.4H41.2913V13.824H29.5153L30.4433 12.896V21.28L29.5153 20.352H42.9233V24H26.2193ZM44.564 24L52.596 0.671999H58.548L66.58 24H62.196L60.436 18.88H50.708L48.98 24H44.564ZM51.732 15.616H59.444L57.14 9.056L55.668 4.544H55.508L54.004 9.056L51.732 15.616ZM69.3443 24V0.671999H80.5443C81.8456 0.671999 82.9869 0.821332 83.9683 1.12C84.9709 1.39733 85.8029 1.824 86.4643 2.4C87.1256 2.95467 87.6163 3.63733 87.9363 4.448C88.2776 5.23733 88.4483 6.16533 88.4483 7.232C88.4483 8.61867 88.0856 9.81333 87.3603 10.816C86.6563 11.8187 85.6643 12.4907 84.3843 12.832V13.056C85.6003 13.2907 86.4856 13.7813 87.0403 14.528C87.6163 15.2747 87.9043 16.2987 87.9043 17.6V21.376C87.9043 21.8027 87.9149 22.24 87.9363 22.688C87.9789 23.1147 88.0963 23.552 88.2883 24H84.0323C83.9043 23.7013 83.8083 23.328 83.7443 22.88C83.6803 22.432 83.6483 21.92 83.6483 21.344V18.336C83.6483 17.6107 83.5416 17.0027 83.3283 16.512C83.1149 16.0213 82.7309 15.648 82.1763 15.392C81.6216 15.1147 80.8323 14.976 79.8083 14.976H73.5683V24H69.3443ZM73.5683 11.584H79.9363C81.4509 11.584 82.5283 11.232 83.1683 10.528C83.8083 9.824 84.1283 8.91733 84.1283 7.808C84.1283 6.93333 83.9469 6.24 83.5843 5.728C83.2429 5.19467 82.7523 4.81067 82.1123 4.576C81.4936 4.32 80.7683 4.192 79.9363 4.192H73.5683V11.584ZM91.571 24V20.16H95.443V24H91.571ZM97.189 24L105.221 0.671999H111.173L119.205 24H114.821L113.061 18.88H103.333L101.605 24H97.189ZM104.357 15.616H112.069L109.765 9.056L108.293 4.544H108.133L106.629 9.056L104.357 15.616ZM121.969 24V0.671999H126.193V24H121.969Z" fill="white"/>
</svg>
