<svg width="45" height="45" viewBox="0 0 45 45" fill="none" xmlns="http://www.w3.org/2000/svg">
<path d="M33.588 11.252C29.0739 11.1732 23.9258 13.4692 20.6672 17.0309C17.5531 17.0881 14.5209 18.3304 12.2884 20.5026C12.1583 20.6273 12.1121 20.8139 12.1689 20.9826C12.2267 21.1523 12.3771 21.2752 12.5582 21.3005L16.2716 21.818L15.813 22.3177C15.6424 22.5033 15.6511 22.7855 15.8322 22.9618L22.0248 28.9873C22.1182 29.0783 22.2416 29.1242 22.3659 29.1242C22.4805 29.1242 22.5952 29.0848 22.6867 29.0051L23.2003 28.5589L23.7321 32.1721C23.7582 32.3484 23.9008 32.4778 24.0732 32.534C24.1176 32.5481 24.1638 32.5546 24.211 32.5546C24.3478 32.5546 24.4875 32.4965 24.5839 32.4037C26.7855 30.2614 28.0622 27.311 28.121 24.2809C31.7852 21.1036 34.1642 16.0962 34.0592 11.7095C34.0524 11.4601 33.8453 11.2585 33.588 11.252ZM29.1481 19.3448C28.6789 19.8013 28.0622 20.0301 27.4446 20.0301C26.827 20.0301 26.2103 19.8013 25.7411 19.3448C24.8026 18.4307 24.8026 16.9437 25.7411 16.0296C26.6805 15.1155 28.2087 15.1155 29.1481 16.0296C30.0875 16.9437 30.0875 18.4316 29.1481 19.3448Z" fill="#00EB9A"/>
<path d="M13.5622 27.0982C12.5312 28.1013 11.1158 32.6334 10.9578 33.1462C10.9067 33.3112 10.9539 33.4903 11.0782 33.6122C11.1707 33.7022 11.2931 33.75 11.4193 33.75C11.4656 33.75 11.5118 33.7434 11.5581 33.7303C12.0851 33.5766 16.7428 32.1993 17.7737 31.1962C18.9348 30.0664 18.9348 28.2279 17.7737 27.0982C16.6117 25.9685 14.7232 25.9694 13.5622 27.0982Z" fill="#00EB9A"/>
</svg>
