<svg  viewBox="0 0 28 44" fill="none" xmlns="http://www.w3.org/2000/svg">
<path d="M14.0247 40.2844C10.93 40.2844 8.34568 39.7956 6.27161 38.8178C4.19753 37.84 2.63374 36.4711 1.58025 34.7111C0.559671 32.9511 0.0329218 30.9467 0 28.6978H6.61728C6.65021 30.0341 6.93004 31.2074 7.45679 32.2178C8.01646 33.2281 8.85597 34.0104 9.97531 34.5644C11.0947 35.0859 12.5267 35.3467 14.2716 35.3467C16.3786 35.3467 18.0576 34.9393 19.3086 34.1244C20.5926 33.3096 21.2346 32.0548 21.2346 30.36C21.2346 29.4148 21.0864 28.6163 20.7901 27.9644C20.5267 27.3126 20.0658 26.7748 19.4074 26.3511C18.749 25.9274 17.8765 25.5689 16.7901 25.2756C15.7037 24.9822 14.3704 24.7052 12.7901 24.4444C10.9136 24.0859 9.23457 23.6785 7.75309 23.2222C6.30453 22.7333 5.0535 22.0978 4 21.3156C2.9465 20.5333 2.13992 19.5719 1.58025 18.4311C1.02058 17.2904 0.740741 15.9052 0.740741 14.2756C0.740741 12.1244 1.26749 10.2667 2.32099 8.70222C3.40741 7.13778 4.92181 5.93185 6.8642 5.08445C8.83951 4.20445 11.1934 3.76445 13.9259 3.76445C16.6255 3.76445 18.93 4.20445 20.8395 5.08445C22.7819 5.96445 24.2798 7.20296 25.3333 8.8C26.3868 10.3644 26.9136 12.1896 26.9136 14.2756H20.3951C20.3292 12.9719 20 11.9126 19.4074 11.0978C18.8148 10.283 18.0412 9.68 17.0864 9.28889C16.1317 8.86519 15.0123 8.65333 13.7284 8.65333C12.4444 8.65333 11.3251 8.86519 10.3704 9.28889C9.44856 9.68 8.74074 10.2341 8.24691 10.9511C7.75309 11.6356 7.50617 12.4667 7.50617 13.4444C7.50617 14.6504 7.78601 15.5793 8.34568 16.2311C8.90535 16.8504 9.8107 17.3393 11.0617 17.6978C12.3128 18.0563 13.9753 18.4148 16.0494 18.7733C17.5638 19.0341 19.0288 19.36 20.4444 19.7511C21.8601 20.1422 23.144 20.7289 24.2963 21.5111C25.4486 22.2607 26.3539 23.3037 27.0123 24.64C27.6708 25.9763 28 27.6874 28 29.7733C28 31.8593 27.4732 33.7007 26.4198 35.2978C25.3663 36.8622 23.8025 38.0844 21.7284 38.9644C19.6872 39.8444 17.1193 40.2844 14.0247 40.2844ZM12.0988 44V37.8889H15.9506V44H12.0988ZM12.0988 6.40445V0H15.9506V6.40445H12.0988Z" fill="#00EB9A"/>
</svg>
