<svg  viewBox="0 0 50 50" fill="none" xmlns="http://www.w3.org/2000/svg">
<circle cx="25" cy="25" r="23" fill="#121212"/>
<circle cx="25" cy="25" r="24" stroke="url(#paint0_linear_4195_657)" stroke-opacity="0.4" stroke-width="2"/>
<path d="M38.1592 23.0015C38.6996 22.8084 39.0625 22.2924 39.0625 21.7188C39.0625 21.1451 38.6996 20.6291 38.1614 20.436L35.6868 19.5439C34.4829 19.112 33.3895 18.419 32.4851 17.5146C31.5806 16.6102 30.8876 15.5169 30.4557 14.313L29.5635 11.8385C29.468 11.5753 29.294 11.3477 29.065 11.1865C28.836 11.0254 28.563 10.9385 28.2829 10.9375C27.7103 10.9375 27.1943 11.2992 26.999 11.8385L26.1079 14.313C25.6761 15.5171 24.983 16.6106 24.0783 17.515C23.1737 18.4195 22.0799 19.1123 20.8757 19.5439L18.4033 20.436C17.8629 20.6302 17.5 21.1451 17.5 21.7188C17.5 22.2924 17.8629 22.8073 18.4011 23.0015L20.8757 23.8936C22.0797 24.3254 23.1732 25.0183 24.0776 25.9227C24.9821 26.8271 25.675 27.9205 26.1068 29.1245L26.999 31.6001C27.1932 32.1383 27.7092 32.5 28.2818 32.5C28.8544 32.5 29.3704 32.1371 29.5635 31.599L30.4557 29.1245C30.8876 27.9206 31.5806 26.8273 32.4851 25.9229C33.3895 25.0185 34.4829 24.3255 35.6868 23.8936L38.1592 23.0015Z" fill="#00EB9A"/>
<path d="M22.5641 34.5086C22.8697 34.3994 23.0748 34.1077 23.0748 33.7833C23.0748 33.4589 22.8697 33.1671 22.5653 33.0579L21.1661 32.5535C20.4853 32.3093 19.867 31.9174 19.3556 31.406C18.8442 30.8947 18.4523 30.2764 18.2081 29.5957L17.7036 28.1965C17.6496 28.0476 17.5513 27.9189 17.4217 27.8278C17.2922 27.7367 17.1379 27.6876 16.9795 27.687C16.6557 27.687 16.364 27.8916 16.2535 28.1965L15.7497 29.5957C15.5055 30.2766 15.1136 30.8949 14.602 31.4063C14.0905 31.9177 13.472 32.3095 12.7911 32.5535L11.3931 33.0579C11.0875 33.1677 10.8823 33.4589 10.8823 33.7833C10.8823 34.1077 11.0875 34.3988 11.3918 34.5086L12.7911 35.0131C13.4719 35.2572 14.0902 35.649 14.6016 36.1604C15.113 36.6718 15.5049 37.2901 15.749 37.9708L16.2535 39.3707C16.3633 39.675 16.6551 39.8795 16.9789 39.8795C17.3027 39.8795 17.5944 39.6744 17.7036 39.37L18.2081 37.9708C18.4523 37.2901 18.8442 36.6719 19.3556 36.1605C19.867 35.6491 20.4853 35.2573 21.1661 35.0131L22.5641 34.5086Z" fill="#00EB9A"/>
<defs>
<linearGradient id="paint0_linear_4195_657" x1="25" y1="50" x2="25" y2="2" gradientUnits="userSpaceOnUse">
<stop stop-color="#00EB9A"/>
<stop offset="1" stop-color="#00EB9A" stop-opacity="0"/>
</linearGradient>
</defs>
</svg>
