<svg  viewBox="0 0 50 50" fill="none" xmlns="http://www.w3.org/2000/svg">
<circle cx="25" cy="25" r="23" fill="#121212"/>
<circle cx="25" cy="25" r="24" stroke="url(#paint0_linear_4195_809)" stroke-opacity="0.4" stroke-width="2"/>
<path d="M31.2212 13.231C28.7984 11.2513 25.6642 10.5378 22.5967 11.2974C19.0402 12.1491 16.1728 15.0725 15.3059 18.7327C14.439 22.4157 15.4392 26.1448 17.9954 28.746C18.9068 29.6898 19.4403 31.1707 19.4403 32.69V32.9432C19.4403 33.5877 19.9293 34.0942 20.5517 34.0942H29.443C30.0654 34.0942 30.5544 33.5877 30.5544 32.9432V32.69C30.5544 31.1937 31.1101 29.6668 32.0881 28.6769C33.9554 26.7203 35 24.1192 35 21.3569C35 18.1802 33.6219 15.2106 31.2212 13.231ZM24.9973 17.904C23.3206 17.904 22.1 19.0558 21.7803 20.3891C21.6349 20.9955 21.0457 21.3826 20.4334 21.2299C19.8386 21.077 19.475 20.4521 19.6227 19.8361C20.1733 17.5342 22.2611 15.602 24.9973 15.602C25.6117 15.602 26.1087 16.1168 26.1087 16.753C26.1087 17.3892 25.6117 17.904 24.9973 17.904ZM20.5517 36.3961V37.5471C20.5517 39.4511 22.0474 41 23.8859 41H26.1087C27.9473 41 29.443 39.4511 29.443 37.5471V36.3961H20.5517Z" fill="#00EB9A"/>
<defs>
<linearGradient id="paint0_linear_4195_809" x1="25" y1="50" x2="25" y2="2" gradientUnits="userSpaceOnUse">
<stop stop-color="#00EB9A"/>
<stop offset="1" stop-color="#00EB9A" stop-opacity="0"/>
</linearGradient>
</defs>
</svg>
