<svg  viewBox="0 0 50 50" fill="none" xmlns="http://www.w3.org/2000/svg">
<circle cx="25" cy="25" r="23" fill="#121212"/>
<circle cx="25" cy="25" r="24" stroke="url(#paint0_linear_4195_646)" stroke-opacity="0.4" stroke-width="2"/>
<path d="M36.0346 23.3551C35.9634 19.6459 35.4459 16.9067 35.4534 16.9047C35.2287 16.4709 34.8543 16.1333 34.3997 15.9544C31.3701 14.7794 28.391 13.658 25.4867 12.7011C25.1925 12.6032 24.8745 12.6032 24.5803 12.7011C21.6765 13.655 18.6974 14.7744 15.6684 15.9478C15.2668 16.1056 14.9264 16.3879 14.6969 16.7532C14.7136 16.7557 14.0743 18.7527 13.9653 23.1658C13.9006 27.5733 14.45 28.8957 14.4318 28.8972C14.7292 29.8661 15.2851 30.8528 16.0829 31.8556C16.9741 32.976 18.1774 34.1323 19.6331 35.2699C22.0411 37.1598 24.2945 38.2893 24.389 38.3292C24.5892 38.4285 24.8097 38.4802 25.0333 38.4802C25.2568 38.4802 25.4773 38.4285 25.6775 38.3292C25.7725 38.2893 28.0285 37.1563 30.4355 35.2668C31.8902 34.1287 33.0949 32.972 33.9866 31.8525C34.84 30.7775 35.4186 29.7238 35.6983 28.6887C35.6867 28.6871 36.0907 27.0683 36.0346 23.3551Z" fill="#00EB9A"/>
<path d="M26.4075 26.2532V28.7515C26.4002 29.085 26.2526 29.4025 25.9964 29.6359C25.7401 29.8693 25.3958 30 25.0371 30C24.6784 30 24.334 29.8693 24.0778 29.6359C23.8216 29.4025 23.6739 29.085 23.6666 28.7515V26.2886C23.0637 26.0104 22.5789 25.5518 22.2902 24.9865C22.0014 24.4212 21.9254 23.782 22.0745 23.1717C22.2236 22.5615 22.589 22.0155 23.1121 21.6217C23.6351 21.2278 24.2854 21.009 24.9583 21.0003C25.6313 20.9916 26.2878 21.1936 26.8225 21.5737C27.3571 21.9539 27.7387 22.4902 27.9059 23.0964C28.0731 23.7026 28.0163 24.3435 27.7446 24.9161C27.4728 25.4886 27.0019 25.9595 26.4075 26.2532Z" fill="black"/>
<defs>
<linearGradient id="paint0_linear_4195_646" x1="25" y1="50" x2="25" y2="2" gradientUnits="userSpaceOnUse">
<stop stop-color="#00EB9A"/>
<stop offset="1" stop-color="#00EB9A" stop-opacity="0"/>
</linearGradient>
</defs>
</svg>
