<svg  viewBox="0 0 50 50" fill="none" xmlns="http://www.w3.org/2000/svg">
<circle cx="25" cy="25" r="23" fill="#121212"/>
<circle cx="25" cy="25" r="24" stroke="url(#paint0_linear_4195_583)" stroke-opacity="0.4" stroke-width="2"/>
<g clip-path="url(#clip0_4195_583)">
<path d="M21.3606 13.7894C18.9626 14.6213 16.8946 16.2002 15.4603 18.2943C14.026 20.3883 13.301 22.8871 13.3919 25.4237C13.4827 27.9602 14.3846 30.4008 15.965 32.3869C17.5454 34.373 19.7211 35.7999 22.1724 36.4581C24.1598 36.9709 26.2419 36.9934 28.2399 36.5237C30.0499 36.1172 31.7233 35.2476 33.0962 34C34.5251 32.6619 35.5622 30.9596 36.0962 29.0762C36.6765 27.0281 36.7798 24.8742 36.3981 22.78H25.2381V27.4094H31.7012C31.572 28.1477 31.2952 28.8524 30.8873 29.4813C30.4795 30.1102 29.9489 30.6503 29.3274 31.0694C28.5382 31.5914 27.6485 31.9427 26.7156 32.1006C25.7798 32.2746 24.82 32.2746 23.8843 32.1006C22.9359 31.9045 22.0387 31.5131 21.2499 30.9512C19.9827 30.0542 19.0312 28.7799 18.5312 27.31C18.0227 25.8126 18.0227 24.1893 18.5312 22.6919C18.8871 21.6423 19.4755 20.6866 20.2524 19.8962C21.1415 18.9751 22.2672 18.3167 23.5058 17.9933C24.7445 17.6698 26.0484 17.6937 27.2743 18.0625C28.232 18.3565 29.1078 18.8701 29.8318 19.5625C30.5606 18.8375 31.2881 18.1106 32.0143 17.3819C32.3893 16.99 32.7981 16.6169 33.1674 16.2156C32.0622 15.1871 30.765 14.3869 29.3499 13.8606C26.7731 12.925 23.9536 12.8998 21.3606 13.7894Z" fill="white"/>
<path d="M21.3607 13.7894C23.9536 12.8992 26.7731 12.9237 29.3501 13.8587C30.7654 14.3885 32.062 15.1927 33.1657 16.225C32.7907 16.6262 32.3951 17.0012 32.0126 17.3912C31.2851 18.1175 30.5582 18.8412 29.832 19.5625C29.1079 18.8701 28.2321 18.3565 27.2745 18.0625C26.0489 17.6924 24.7451 17.6671 23.5061 17.9893C22.2671 18.3114 21.1408 18.9686 20.2507 19.8887C19.4738 20.6791 18.8854 21.6348 18.5295 22.6844L14.6426 19.675C16.0338 16.916 18.4427 14.8057 21.3607 13.7894Z" fill="#E33629"/>
<path d="M13.6112 22.6562C13.8201 21.6209 14.1669 20.6182 14.6424 19.675L18.5293 22.6919C18.0208 24.1892 18.0208 25.8126 18.5293 27.31C17.2343 28.31 15.9387 29.315 14.6424 30.325C13.4521 27.9556 13.089 25.2559 13.6112 22.6562Z" fill="#F8BD00"/>
<path d="M25.2381 22.7781H36.3981C36.7799 24.8724 36.6766 27.0263 36.0963 29.0744C35.5623 30.9578 34.5252 32.66 33.0963 33.9981C31.8419 33.0194 30.5819 32.0481 29.3275 31.0694C29.9494 30.6499 30.4802 30.1092 30.8881 29.4796C31.296 28.8501 31.5726 28.1447 31.7013 27.4056H25.2381C25.2363 25.8644 25.2381 24.3213 25.2381 22.7781Z" fill="#587DBD"/>
<path d="M14.6406 30.325C15.9369 29.325 17.2325 28.32 18.5275 27.31C19.0285 28.7804 19.9814 30.0548 21.25 30.9512C22.0413 31.5105 22.9404 31.8987 23.89 32.0912C24.8257 32.2652 25.7855 32.2652 26.7213 32.0912C27.6542 31.9333 28.5439 31.5821 29.3331 31.06C30.5875 32.0387 31.8475 33.01 33.1019 33.9887C31.7292 35.237 30.0558 36.1073 28.2456 36.5144C26.2476 36.9841 24.1655 36.9616 22.1781 36.4487C20.6063 36.0291 19.1381 35.2892 17.8656 34.2756C16.5187 33.2063 15.4187 31.8587 14.6406 30.325Z" fill="#319F43"/>
</g>
<defs>
<linearGradient id="paint0_linear_4195_583" x1="25" y1="50" x2="25" y2="2" gradientUnits="userSpaceOnUse">
<stop stop-color="#00EB9A"/>
<stop offset="1" stop-color="#00EB9A" stop-opacity="0"/>
</linearGradient>
<clipPath id="clip0_4195_583">
<rect width="24" height="24" fill="white" transform="translate(13 13)"/>
</clipPath>
</defs>
</svg>
