<svg  viewBox="0 0 50 50" fill="none" xmlns="http://www.w3.org/2000/svg">
<circle cx="25" cy="25" r="23" fill="#121212"/>
<circle cx="25" cy="25" r="24" stroke="url(#paint0_linear_4195_761)" stroke-opacity="0.4" stroke-width="2"/>
<path d="M25 10C16.7294 10 10 16.7294 10 25C10 33.2706 16.7294 40 25 40C33.2706 40 40 33.2706 40 25C40 16.7294 33.2706 10 25 10ZM17.5 21.25C17.5 20.2169 18.3419 19.375 19.375 19.375C20.4081 19.375 21.25 20.2169 21.25 21.25C21.25 22.2831 20.4081 23.125 19.375 23.125C18.3419 23.125 17.5 22.2831 17.5 21.25ZM31.6281 32.8225C31.4444 33.0063 31.2044 33.0963 30.9644 33.0963C30.7244 33.0963 30.4844 33.0044 30.3006 32.8225C27.4656 29.9875 22.5269 29.9875 19.6938 32.8225C19.3281 33.1881 18.7337 33.1881 18.3681 32.8225C18.0025 32.4569 18.0025 31.8625 18.3681 31.4969C20.1419 29.7269 22.495 28.75 25 28.75C27.505 28.75 29.8581 29.7269 31.6281 31.4969C31.9937 31.8625 31.9937 32.4569 31.6281 32.8225ZM30.625 23.125C29.5919 23.125 28.75 22.2831 28.75 21.25C28.75 20.2169 29.5919 19.375 30.625 19.375C31.6581 19.375 32.5 20.2169 32.5 21.25C32.5 22.2831 31.6581 23.125 30.625 23.125Z" fill="#00EB9A"/>
<defs>
<linearGradient id="paint0_linear_4195_761" x1="25" y1="50" x2="25" y2="2" gradientUnits="userSpaceOnUse">
<stop stop-color="#00EB9A"/>
<stop offset="1" stop-color="#00EB9A" stop-opacity="0"/>
</linearGradient>
</defs>
</svg>
