<svg  viewBox="0 0 2290 2181" fill="none" xmlns="http://www.w3.org/2000/svg">
<g opacity="0.5" filter="url(#filter0_dddddd_6014_348)">
<path d="M1227.94 1017.04L1229.35 1018.47L1232.18 1022.17L1235.86 1027.88L1238.68 1033.02L1242.08 1039.58L1245.19 1046.43L1250.84 1060.69L1254.52 1070.68L1256.5 1077.24L1257.91 1083.8L1258.48 1086.94L1263.28 1084.09L1268.09 1081.8L1274.03 1079.81L1281.1 1078.38L1283.64 1078.09H1293.26L1300.33 1079.24L1306.26 1080.95L1310.51 1082.66L1315.03 1084.94L1319.27 1087.79L1323.23 1090.93L1328.32 1096.07L1331.71 1100.63L1333.41 1103.2L1333.13 1103.77L1330.02 1100.06L1327.19 1097.21L1324.08 1094.64L1319.55 1091.5L1314.18 1088.65L1306.55 1086.08L1301.17 1084.94L1295.24 1084.37H1292.41L1287.88 1084.94L1284.49 1086.65L1283.08 1088.08L1281.38 1090.65L1280.25 1093.79L1279.12 1100.06L1277.42 1108.91L1274.88 1119.18L1271.48 1131.16L1268.94 1138.58L1265.83 1146L1263.28 1151.42L1259.61 1157.98L1256.78 1162.83L1253.67 1167.39L1250.28 1171.96L1247.17 1175.95L1243.49 1180.23L1239.25 1184.8L1235.57 1188.51L1233.31 1190.5L1229.07 1194.21L1224.26 1197.92L1219.17 1201.63L1213.8 1205.05L1207.3 1208.76L1199.94 1212.47L1191.74 1215.9L1181.56 1219.32L1173.65 1221.32L1164.32 1223.03L1157.25 1223.88L1153.29 1224.17H1136.32L1127.56 1223.31L1119.07 1221.89L1111.44 1220.17L1102.95 1217.61L1095.89 1215.04L1089.38 1212.19L1083.44 1209.33L1076.94 1205.62L1070.72 1201.63L1065.63 1197.92L1061.67 1194.78L1057.99 1191.64L1055.73 1189.65L1052.34 1186.51L1047.25 1181.37L1045.27 1179.09L1041.88 1175.1L1038.2 1170.25L1034.52 1165.11L1030.85 1159.12L1028.3 1154.56L1024.91 1147.99L1021.8 1140.86L1018.69 1132.3L1015.86 1122.32L1012.75 1110.33L1011.05 1102.06L1009.64 1093.79L1008.23 1090.08L1006.53 1087.79L1004.55 1086.08L1001.72 1084.94L997.199 1084.37L990.978 1084.66L985.606 1085.51L979.385 1087.22L974.012 1089.51L969.771 1091.79L965.812 1094.64L962.136 1097.78L958.46 1101.49L957.046 1103.2V1102.34L959.874 1098.35L962.419 1095.21L967.226 1090.36L970.902 1087.51L974.861 1084.94L981.93 1081.52L988.151 1079.52L994.089 1078.38L996.634 1078.09H1006.53L1013.6 1079.24L1019.54 1080.95L1025.48 1083.51L1029.72 1085.8L1031.7 1086.94L1031.98 1083.51L1033.39 1076.95L1035.94 1068.68L1041.03 1055.27L1045.27 1045L1049.79 1035.58L1052.62 1030.16L1056.02 1024.74L1059.13 1020.18L1061.39 1017.32V1018.18L1057.71 1023.89L1054.32 1029.88L1051.77 1034.73L1048.66 1041.86L1045.55 1050.42L1043.29 1058.41L1041.59 1065.83L1040.18 1075.24L1039.61 1081.8V1095.78L1039.9 1098.64L1042.44 1094.64L1045.27 1091.5L1048.95 1088.65L1053.47 1086.37L1058.28 1084.94L1059.97 1084.66H1066.19L1069.87 1085.51L1073.26 1087.22L1076.09 1089.79L1077.79 1093.22L1078.64 1097.49V1100.35L1081.75 1098.92L1084.57 1098.35H1087.69L1091.93 1099.21L1096.17 1100.92L1099 1102.92L1102.11 1105.77L1104.93 1109.76L1107.2 1114.61L1105.22 1099.49L1104.09 1092.36L1103.8 1089.22V1085.8H1104.09L1105.22 1094.07L1107.48 1105.77L1108.33 1113.47L1108.61 1118.04V1123.46L1108.33 1128.31L1108.61 1128.02L1110.87 1124.6L1113.42 1121.75L1115.4 1119.75L1118.51 1117.75L1121.9 1116.04L1123.6 1115.47H1125.01L1123.88 1108.62V1098.64L1124.44 1098.07L1125.86 1111.19L1126.99 1118.61V1122.89L1126.14 1128.88L1124.16 1136.01L1122.47 1142.86L1121.05 1151.13L1120.2 1159.98V1171.39L1120.77 1177.66L1121.9 1183.66L1123.88 1189.65L1126.99 1195.64L1129.25 1198.78L1132.65 1202.77L1135.47 1205.34L1139.43 1208.19L1143.39 1210.47L1147.07 1212.19L1145.94 1211.62L1141.13 1209.05L1138.02 1206.77L1135.19 1204.2L1132.36 1201.34L1129.53 1197.35L1127.27 1193.07L1125.58 1187.94L1124.44 1182.23L1123.88 1176.81V1167.68L1124.73 1161.12L1126.14 1154.84L1127.84 1149.13L1130.1 1143.14L1133.78 1134.58L1136.32 1126.6L1138.3 1118.32L1138.87 1116.04L1139.15 1117.18L1138.02 1123.74L1136.32 1131.16L1133.78 1138.86L1130.95 1146.28L1128.97 1152.84L1127.56 1159.12L1126.71 1165.68V1175.1L1127.56 1181.94L1128.69 1186.79L1130.38 1191.07L1132.36 1194.78L1135.19 1198.49L1138.87 1202.2L1143.11 1205.34L1149.05 1208.48L1154.98 1210.47L1159.23 1211.33L1161.77 1211.62H1169.4L1171.95 1211.33L1175.06 1209.62L1177.61 1207.62L1180.15 1205.34L1182.69 1201.92L1185.24 1197.07L1186.65 1192.79L1187.5 1187.36L1187.22 1182.51L1186.09 1178.24L1184.11 1173.39L1181.28 1168.53L1177.89 1163.97L1174.78 1160.26L1171.67 1156.84L1168.84 1153.41L1167.14 1150.28L1166.29 1147.71V1142.86L1167.43 1139.43V1138.86L1166.01 1141.43L1165.45 1144.28V1147.14L1166.29 1151.42L1167.71 1154.84L1169.97 1158.83L1175.06 1166.54L1177.32 1171.1L1178.74 1175.95L1179.3 1179.66V1185.37L1178.45 1189.36L1177.32 1192.21L1174.78 1195.92L1172.23 1198.21L1168.84 1199.92L1166.58 1200.49H1160.64L1156.11 1199.35L1151.59 1197.07L1147.91 1194.5L1145.37 1191.93L1142.82 1187.94L1141.13 1183.66L1140 1178.52L1139.71 1176.24V1163.97L1140.85 1157.41L1142.26 1152.56L1145.09 1145.71L1148.2 1139.72L1150.46 1136.58L1154.42 1131.45L1157.81 1125.74L1160.64 1119.18L1162.9 1112.33L1164.6 1104.63L1165.45 1098.92L1166.01 1098.35V1108.34L1165.16 1113.47L1164.6 1115.18L1167.71 1116.04L1172.23 1118.32L1175.34 1120.6L1178.17 1123.46L1180.15 1126.31L1181.28 1128.31V1117.47L1181.85 1109.76L1182.98 1102.34L1185.24 1090.36L1185.52 1088.36H1185.81V1092.07L1183.54 1107.48L1182.69 1114.61L1183.83 1111.76L1186.09 1108.05L1188.63 1104.91L1191.46 1102.34L1194.85 1100.35L1199.1 1098.92L1202.21 1098.35H1205.03L1208.99 1099.21L1211.25 1100.35V1097.21L1212.1 1092.93L1213.8 1089.79L1215.78 1087.79L1218.61 1086.08L1222.28 1084.94L1223.7 1084.66H1229.63L1233.88 1085.51L1237.55 1086.94L1241.23 1088.94L1243.77 1090.93L1246.03 1092.93L1248.58 1096.35L1249.71 1098.35V1098.92H1250.28V1082.37L1249.43 1073.24L1248.01 1064.97L1246.03 1056.41L1243.49 1048.14L1240.66 1040.72L1237.55 1033.87L1233.59 1026.17L1229.63 1019.89L1227.94 1017.61V1017.04Z" fill="#00EB9A"/>
<path d="M1140 956.555H1149.61L1160.92 957.411L1171.38 959.123L1178.74 960.835L1188.07 963.688L1196.27 966.826L1203.05 969.964L1210.12 973.673L1215.78 977.097L1219.17 979.379L1223.98 982.803L1229.07 986.797L1233.31 990.506L1236.99 993.93L1242.64 999.636L1244.62 1001.92L1248.01 1005.91L1251.69 1010.76L1255.08 1015.61L1259.04 1021.89L1261.3 1025.88L1261.02 1026.45L1257.35 1023.6L1252.26 1019.89L1245.75 1015.61L1240.1 1012.19L1234.16 1008.77L1227.09 1005.06L1217.76 1000.78L1207.86 996.783L1197.4 993.074L1187.22 989.936L1188.35 990.506L1192.31 992.218L1194.29 993.93L1195.42 996.498V998.495L1197.12 999.065L1200.79 1001.63L1203.34 1003.92L1206.45 1007.91L1208.99 1011.9L1211.25 1016.18L1214.08 1023.6L1215.5 1029.31L1216.06 1033.02L1216.34 1039.01L1215.78 1044.14L1214.65 1048.42L1213.23 1051.85L1211.25 1055.27L1208.14 1058.69L1205.6 1060.98L1201.36 1063.54L1195.99 1065.54L1193.16 1066.11H1185.81L1183.54 1065.83L1178.74 1068.39L1174.21 1070.11L1169.69 1071.25H1165.16L1160.36 1070.39L1154.42 1068.68L1150.18 1066.97L1151.31 1066.68L1156.96 1068.39L1160.64 1068.96L1158.94 1066.4L1157.81 1063.26L1157.53 1059.83L1158.09 1057.55L1159.51 1055.27L1162.05 1053.84L1163.47 1053.27L1162.05 1051.85L1163.47 1052.42L1167.71 1054.7L1169.4 1056.13L1171.1 1058.98L1171.95 1060.69V1061.26L1173.36 1061.83L1175.63 1061.55L1177.89 1060.98L1176.47 1060.41L1175.91 1058.98L1174.49 1058.41L1172.52 1054.7L1168.56 1052.42L1168.27 1051.85L1169.97 1052.42L1173.65 1053.84L1179.87 1055.27L1183.54 1056.7L1184.11 1056.98L1183.54 1058.69L1182.41 1059.83H1181.85V1060.41L1184.96 1059.83L1186.37 1058.98L1186.94 1058.12L1189.48 1058.69L1189.76 1057.84V1055.27L1189.48 1052.7H1186.65L1185.81 1052.13V1050.99L1189.48 1051.85L1188.63 1047.57L1187.22 1049.56L1184.96 1049.85L1182.69 1048.14L1179.58 1047.57L1177.89 1046.43L1177.04 1044.71L1178.45 1045.28L1182.13 1046.71L1181.28 1044.43L1171.67 1037.58L1168.27 1035.3L1164.88 1031.59L1161.2 1028.74L1157.25 1026.17L1154.42 1023.89L1152.72 1021.6L1151.59 1019.61L1151.87 1021.89L1153.57 1025.31L1155.83 1027.31L1158.66 1029.31L1160.36 1030.73L1160.64 1032.45L1159.23 1033.02L1155.55 1031.88L1150.18 1030.16L1144.52 1029.02L1142.26 1028.74L1129.53 1028.45L1125.86 1027.6L1123.31 1026.17L1124.44 1027.6L1127.84 1029.59L1130.38 1030.45L1133.78 1031.02L1141.41 1031.3L1146.78 1031.88L1150.18 1033.02L1153.29 1035.01L1154.42 1036.44V1038.15L1153 1039.29L1145.09 1041L1141.69 1042.43L1143.96 1043.57V1044.71L1137.17 1047.28L1135.19 1048.42L1137.73 1049.28L1138.02 1050.42L1136.04 1051.85L1131.23 1054.13L1129.25 1055.56L1128.97 1056.13L1130.38 1056.41L1131.51 1057.55L1131.23 1058.98L1126.14 1062.69L1121.33 1066.11L1120.2 1066.68L1121.62 1067.54L1121.9 1068.68L1120.77 1069.53L1117.94 1070.39H1113.42L1110.02 1068.68L1106.91 1066.4L1105.5 1065.83L1104.09 1066.11H1097.02L1093.06 1065.26L1088.53 1063.54L1084.86 1061.26L1082.03 1058.98L1079.2 1056.13L1076.37 1051.56L1074.68 1047L1073.83 1042.72L1073.55 1040.15V1035.3L1074.39 1029.02L1076.09 1022.75L1078.35 1016.75L1081.46 1010.76L1084.29 1006.77L1086.84 1003.92L1089.66 1001.06L1093.62 998.495L1094.19 998.209L1095.04 994.786L1096.73 992.789L1100.69 990.791L1102.67 989.936L1092.49 993.074L1083.44 996.212L1075.53 999.351L1068.46 1002.49L1061.39 1005.91L1055.17 1009.05L1048.66 1012.76L1041.88 1017.04L1035.66 1021.32L1030.28 1025.31L1028.59 1026.45L1029.15 1024.74L1031.98 1019.89L1035.37 1014.76L1038.2 1010.76L1041.03 1007.05L1044.14 1003.34L1046.68 1000.49L1048.66 998.209L1055.17 991.647L1057.43 989.65L1061.39 986.227L1067.04 981.947L1072.42 978.238L1078.35 974.529L1084.57 971.106L1091.64 967.682L1100.98 963.973L1109.18 961.405L1117.09 959.408L1126.99 957.696L1135.19 956.84L1140 956.555Z" fill="#00EB9A"/>
</g>
<g filter="url(#filter1_f_6014_348)">
<path d="M1242.34 1074.7L1244.01 1075.88L1247.34 1078.93L1251.68 1083.64L1255.02 1087.88L1259.02 1093.29L1262.69 1098.94L1269.36 1110.7L1273.7 1118.94L1276.03 1124.35L1277.7 1129.76L1278.37 1132.35L1284.04 1129.99L1289.71 1128.11L1296.71 1126.46L1305.05 1125.29L1308.06 1125.05H1319.4L1327.74 1125.99L1334.74 1127.41L1339.75 1128.82L1345.08 1130.7L1350.09 1133.05L1354.76 1135.64L1360.76 1139.88L1364.77 1143.64L1366.77 1145.76L1366.43 1146.23L1362.76 1143.17L1359.43 1140.82L1355.76 1138.7L1350.42 1136.11L1344.08 1133.76L1335.08 1131.64L1328.74 1130.7L1321.73 1130.23H1318.4L1313.06 1130.7L1309.06 1132.11L1307.39 1133.29L1305.39 1135.41L1304.05 1137.99L1302.72 1143.17L1300.72 1150.47L1297.72 1158.94L1293.71 1168.82L1290.71 1174.94L1287.04 1181.05L1284.04 1185.52L1279.7 1190.94L1276.37 1194.94L1272.7 1198.7L1268.69 1202.47L1265.02 1205.76L1260.69 1209.29L1255.68 1213.05L1251.35 1216.11L1248.68 1217.76L1243.67 1220.82L1238 1223.88L1232 1226.94L1225.66 1229.76L1217.99 1232.82L1209.32 1235.88L1199.64 1238.7L1187.63 1241.53L1178.29 1243.17L1167.28 1244.58L1158.94 1245.29L1154.27 1245.53H1134.26L1123.92 1244.82L1113.91 1243.64L1104.9 1242.23L1094.9 1240.11L1086.56 1238L1078.88 1235.64L1071.88 1233.29L1064.21 1230.23L1056.87 1226.94L1050.86 1223.88L1046.19 1221.29L1041.86 1218.7L1039.19 1217.05L1035.18 1214.47L1029.18 1210.23L1026.85 1208.35L1022.84 1205.05L1018.51 1201.05L1014.17 1196.82L1009.83 1191.88L1006.83 1188.11L1002.83 1182.7L999.158 1176.82L995.488 1169.76L992.153 1161.52L988.483 1151.64L986.482 1144.82L984.814 1137.99L983.146 1134.94L981.144 1133.05L978.809 1131.64L975.473 1130.7L970.136 1130.23L962.797 1130.47L956.459 1131.17L949.12 1132.58L942.782 1134.47L937.778 1136.35L933.108 1138.7L928.772 1141.29L924.435 1144.35L922.767 1145.76V1145.05L926.103 1141.76L929.105 1139.17L934.776 1135.17L939.113 1132.82L943.783 1130.7L952.122 1127.88L959.461 1126.23L966.467 1125.29L969.469 1125.05H981.144L989.484 1125.99L996.489 1127.41L1003.49 1129.52L1008.5 1131.41L1010.83 1132.35L1011.17 1129.52L1012.83 1124.11L1015.84 1117.29L1021.84 1106.23L1026.85 1097.76L1032.18 1089.99L1035.52 1085.52L1039.52 1081.05L1043.19 1077.29L1045.86 1074.93V1075.64L1041.52 1080.35L1037.52 1085.29L1034.52 1089.29L1030.85 1095.17L1027.18 1102.23L1024.51 1108.82L1022.51 1114.94L1020.84 1122.7L1020.17 1128.11V1139.64L1020.51 1141.99L1023.51 1138.7L1026.85 1136.11L1031.18 1133.76L1036.52 1131.88L1042.19 1130.7L1044.19 1130.47H1051.53L1055.87 1131.17L1059.87 1132.58L1063.21 1134.7L1065.21 1137.52L1066.21 1141.05V1143.41L1069.88 1142.23L1073.21 1141.76H1076.88L1081.89 1142.47L1086.89 1143.88L1090.23 1145.52L1093.9 1147.88L1097.23 1151.17L1099.9 1155.17L1097.56 1142.7L1096.23 1136.82L1095.9 1134.23V1131.41H1096.23L1097.56 1138.23L1100.23 1147.88L1101.23 1154.23L1101.57 1157.99V1162.47L1101.23 1166.47L1101.57 1166.23L1104.24 1163.41L1107.24 1161.05L1109.57 1159.41L1113.24 1157.76L1117.25 1156.35L1119.25 1155.88H1120.92L1119.58 1150.23V1141.99L1120.25 1141.52L1121.92 1152.35L1123.25 1158.47V1162L1122.25 1166.94L1119.92 1172.82L1117.91 1178.47L1116.25 1185.29L1115.24 1192.58V1202L1115.91 1207.17L1117.25 1212.11L1119.58 1217.05L1123.25 1222L1125.92 1224.58L1129.92 1227.88L1133.26 1230L1137.93 1232.35L1142.6 1234.23L1146.94 1235.64L1145.6 1235.17L1139.93 1233.06L1136.26 1231.17L1132.92 1229.06L1129.59 1226.7L1126.25 1223.41L1123.58 1219.88L1121.58 1215.64L1120.25 1210.94L1119.58 1206.47V1198.94L1120.58 1193.53L1122.25 1188.35L1124.25 1183.64L1126.92 1178.7L1131.26 1171.64L1134.26 1165.05L1136.59 1158.23L1137.26 1156.35L1137.6 1157.29L1136.26 1162.7L1134.26 1168.82L1131.26 1175.17L1127.92 1181.29L1125.59 1186.7L1123.92 1191.88L1122.92 1197.29V1205.05L1123.92 1210.7L1125.25 1214.7L1127.25 1218.23L1129.59 1221.29L1132.92 1224.35L1137.26 1227.41L1142.27 1230L1149.27 1232.58L1156.28 1234.23L1161.28 1234.94L1164.28 1235.17H1173.29L1176.29 1234.94L1179.96 1233.53L1182.96 1231.88L1185.96 1230L1188.97 1227.17L1191.97 1223.17L1193.64 1219.64L1194.64 1215.17L1194.3 1211.17L1192.97 1207.64L1190.63 1203.64L1187.3 1199.64L1183.3 1195.88L1179.63 1192.82L1175.96 1190L1172.62 1187.17L1170.62 1184.58L1169.62 1182.47V1178.47L1170.95 1175.64V1175.17L1169.29 1177.29L1168.62 1179.64V1182L1169.62 1185.52L1171.29 1188.35L1173.96 1191.64L1179.96 1198L1182.63 1201.76L1184.3 1205.76L1184.96 1208.82V1213.53L1183.96 1216.82L1182.63 1219.17L1179.63 1222.23L1176.62 1224.11L1172.62 1225.53L1169.95 1226H1162.95L1157.61 1225.06L1152.27 1223.17L1147.94 1221.06L1144.93 1218.94L1141.93 1215.64L1139.93 1212.11L1138.6 1207.88L1138.26 1206V1195.88L1139.6 1190.47L1141.26 1186.47L1144.6 1180.82L1148.27 1175.88L1150.94 1173.29L1155.61 1169.05L1159.61 1164.35L1162.95 1158.94L1165.62 1153.29L1167.62 1146.94L1168.62 1142.23L1169.29 1141.76V1149.99L1168.28 1154.23L1167.62 1155.64L1171.29 1156.35L1176.62 1158.23L1180.29 1160.11L1183.63 1162.47L1185.96 1164.82L1187.3 1166.47V1157.52L1187.97 1151.17L1189.3 1145.05L1191.97 1135.17L1192.3 1133.52H1192.64V1136.58L1189.97 1149.29L1188.97 1155.17L1190.3 1152.82L1192.97 1149.76L1195.97 1147.17L1199.31 1145.05L1203.31 1143.41L1208.31 1142.23L1211.98 1141.76H1215.32L1219.99 1142.47L1222.66 1143.41V1140.82L1223.66 1137.29L1225.66 1134.7L1228 1133.05L1231.33 1131.64L1235.67 1130.7L1237.34 1130.47H1244.34L1249.35 1131.17L1253.68 1132.35L1258.02 1133.99L1261.02 1135.64L1263.69 1137.29L1266.69 1140.11L1268.03 1141.76V1142.23H1268.69V1128.58L1267.69 1121.05L1266.02 1114.23L1263.69 1107.17L1260.69 1100.35L1257.35 1094.23L1253.68 1088.58L1249.01 1082.23L1244.34 1077.05L1242.34 1075.17V1074.7Z" fill="url(#paint0_linear_6014_348)"/>
<path d="M1138.6 1024.82H1149.94L1163.28 1025.52L1175.62 1026.93L1184.3 1028.35L1195.31 1030.7L1204.98 1033.29L1212.99 1035.87L1221.32 1038.93L1228 1041.76L1232 1043.64L1237.67 1046.46L1243.67 1049.76L1248.68 1052.82L1253.02 1055.64L1259.69 1060.35L1262.02 1062.23L1266.02 1065.52L1270.36 1069.52L1274.36 1073.52L1279.03 1078.7L1281.7 1081.99L1281.37 1082.46L1277.03 1080.11L1271.03 1077.05L1263.36 1073.52L1256.68 1070.7L1249.68 1067.88L1241.34 1064.82L1230.33 1061.29L1218.66 1057.99L1206.31 1054.93L1194.3 1052.35L1195.64 1052.82L1200.31 1054.23L1202.64 1055.64L1203.98 1057.76V1059.4L1205.98 1059.88L1210.32 1061.99L1213.32 1063.88L1216.99 1067.17L1219.99 1070.46L1222.66 1073.99L1225.99 1080.11L1227.66 1084.82L1228.33 1087.88L1228.66 1092.82L1228 1097.05L1226.66 1100.58L1224.99 1103.41L1222.66 1106.23L1218.99 1109.05L1215.99 1110.94L1210.98 1113.05L1204.65 1114.7L1201.31 1115.17H1192.64L1189.97 1114.94L1184.3 1117.05L1178.96 1118.46L1173.62 1119.41H1168.28L1162.61 1118.7L1155.61 1117.29L1150.6 1115.88L1151.94 1115.64L1158.61 1117.05L1162.95 1117.52L1160.95 1115.41L1159.61 1112.82L1159.28 1109.99L1159.95 1108.11L1161.61 1106.23L1164.62 1105.05L1166.28 1104.58L1164.62 1103.41L1166.28 1103.88L1171.29 1105.76L1173.29 1106.94L1175.29 1109.29L1176.29 1110.7V1111.17L1177.96 1111.64L1180.63 1111.41L1183.3 1110.94L1181.63 1110.46L1180.96 1109.29L1179.29 1108.82L1176.96 1105.76L1172.29 1103.88L1171.95 1103.41L1173.96 1103.88L1178.29 1105.05L1185.63 1106.23L1189.97 1107.41L1190.63 1107.64L1189.97 1109.05L1188.63 1109.99H1187.97V1110.46L1191.64 1109.99L1193.3 1109.29L1193.97 1108.58L1196.97 1109.05L1197.31 1108.35V1106.23L1196.97 1104.11H1193.64L1192.64 1103.64V1102.7L1196.97 1103.41L1195.97 1099.88L1194.3 1101.52L1191.64 1101.76L1188.97 1100.35L1185.3 1099.88L1183.3 1098.94L1182.3 1097.52L1183.96 1097.99L1188.3 1099.17L1187.3 1097.29L1175.96 1091.64L1171.95 1089.76L1167.95 1086.7L1163.61 1084.35L1158.94 1082.23L1155.61 1080.35L1153.61 1078.46L1152.27 1076.82L1152.61 1078.7L1154.61 1081.52L1157.28 1083.17L1160.61 1084.82L1162.61 1085.99L1162.95 1087.41L1161.28 1087.88L1156.94 1086.93L1150.6 1085.52L1143.93 1084.58L1141.26 1084.35L1126.25 1084.11L1121.92 1083.41L1118.91 1082.23L1120.25 1083.41L1124.25 1085.05L1127.25 1085.76L1131.26 1086.23L1140.26 1086.46L1146.6 1086.93L1150.6 1087.88L1154.27 1089.52L1155.61 1090.7V1092.11L1153.94 1093.05L1144.6 1094.46L1140.6 1095.64L1143.27 1096.58V1097.52L1135.26 1099.64L1132.92 1100.58L1135.93 1101.29L1136.26 1102.23L1133.93 1103.41L1128.25 1105.29L1125.92 1106.46L1125.59 1106.94L1127.25 1107.17L1128.59 1108.11L1128.25 1109.29L1122.25 1112.35L1116.58 1115.17L1115.24 1115.64L1116.91 1116.35L1117.25 1117.29L1115.91 1117.99L1112.58 1118.7H1107.24L1103.24 1117.29L1099.57 1115.41L1097.9 1114.94L1096.23 1115.17H1087.89L1083.22 1114.46L1077.88 1113.05L1073.55 1111.17L1070.21 1109.29L1066.88 1106.94L1063.54 1103.17L1061.54 1099.41L1060.54 1095.88L1060.2 1093.76V1089.76L1061.2 1084.58L1063.21 1079.41L1065.87 1074.46L1069.54 1069.52L1072.88 1066.23L1075.88 1063.88L1079.22 1061.52L1083.89 1059.4L1084.56 1059.17L1085.56 1056.35L1087.56 1054.7L1092.23 1053.05L1094.56 1052.35L1082.55 1054.93L1071.88 1057.52L1062.54 1060.11L1054.2 1062.7L1045.86 1065.52L1038.52 1068.11L1030.85 1071.17L1022.84 1074.7L1015.5 1078.23L1009.17 1081.52L1007.16 1082.46L1007.83 1081.05L1011.17 1077.05L1015.17 1072.82L1018.51 1069.52L1021.84 1066.46L1025.51 1063.4L1028.51 1061.05L1030.85 1059.17L1038.52 1053.76L1041.19 1052.11L1045.86 1049.29L1052.53 1045.76L1058.87 1042.7L1065.87 1039.64L1073.21 1036.82L1081.55 1033.99L1092.56 1030.93L1102.24 1028.82L1111.58 1027.17L1123.25 1025.76L1132.92 1025.05L1138.6 1024.82Z" fill="url(#paint1_linear_6014_348)"/>
</g>
<g filter="url(#filter2_f_6014_348)">
<path d="M1227.94 1063.43L1229.35 1064.85L1232.18 1068.56L1235.86 1074.27L1238.68 1079.4L1242.08 1085.96L1245.19 1092.81L1250.84 1107.08L1254.52 1117.06L1256.5 1123.62L1257.91 1130.19L1258.48 1133.32L1263.28 1130.47L1268.09 1128.19L1274.03 1126.19L1281.1 1124.77L1283.64 1124.48H1293.26L1300.33 1125.62L1306.26 1127.33L1310.51 1129.05L1315.03 1131.33L1319.27 1134.18L1323.23 1137.32L1328.32 1142.45L1331.71 1147.02L1333.41 1149.59L1333.13 1150.16L1330.02 1146.45L1327.19 1143.6L1324.08 1141.03L1319.55 1137.89L1314.18 1135.04L1306.55 1132.47L1301.18 1131.33L1295.24 1130.76H1292.41L1287.88 1131.33L1284.49 1133.04L1283.08 1134.47L1281.38 1137.03L1280.25 1140.17L1279.12 1146.45L1277.42 1155.29L1274.88 1165.56L1271.48 1177.55L1268.94 1184.96L1265.83 1192.38L1263.28 1197.8L1259.61 1204.36L1256.78 1209.22L1253.67 1213.78L1250.28 1218.34L1247.17 1222.34L1243.49 1226.62L1239.25 1231.18L1235.57 1234.89L1233.31 1236.89L1229.07 1240.6L1224.26 1244.31L1219.17 1248.02L1213.8 1251.44L1207.3 1255.15L1199.94 1258.86L1191.74 1262.28L1181.56 1265.7L1173.65 1267.7L1164.32 1269.41L1157.25 1270.27L1153.29 1270.56H1136.32L1127.56 1269.7L1119.07 1268.27L1111.44 1266.56L1102.95 1263.99L1095.89 1261.43L1089.38 1258.57L1083.44 1255.72L1076.94 1252.01L1070.72 1248.02L1065.63 1244.31L1061.67 1241.17L1057.99 1238.03L1055.73 1236.03L1052.34 1232.9L1047.25 1227.76L1045.27 1225.48L1041.88 1221.48L1038.2 1216.63L1034.53 1211.5L1030.85 1205.51L1028.3 1200.94L1024.91 1194.38L1021.8 1187.25L1018.69 1178.69L1015.86 1168.7L1012.75 1156.72L1011.06 1148.45L1009.64 1140.17L1008.23 1136.46L1006.53 1134.18L1004.55 1132.47L1001.72 1131.33L997.2 1130.76L990.979 1131.04L985.606 1131.9L979.386 1133.61L974.013 1135.89L969.771 1138.17L965.813 1141.03L962.137 1144.17L958.461 1147.88L957.047 1149.59V1148.73L959.875 1144.74L962.419 1141.6L967.227 1136.75L970.902 1133.9L974.861 1131.33L981.93 1127.9L988.151 1125.91L994.089 1124.77L996.634 1124.48H1006.53L1013.6 1125.62L1019.54 1127.33L1025.48 1129.9L1029.72 1132.18L1031.7 1133.32L1031.98 1129.9L1033.39 1123.34L1035.94 1115.07L1041.03 1101.66L1045.27 1091.39L1049.79 1081.97L1052.62 1076.55L1056.02 1071.13L1059.13 1066.56L1061.39 1063.71V1064.57L1057.71 1070.27L1054.32 1076.26L1051.77 1081.11L1048.66 1088.25L1045.55 1096.81L1043.29 1104.79L1041.59 1112.21L1040.18 1121.63L1039.62 1128.19V1142.17L1039.9 1145.02L1042.44 1141.03L1045.27 1137.89L1048.95 1135.04L1053.47 1132.75L1058.28 1131.33L1059.97 1131.04H1066.2L1069.87 1131.9L1073.26 1133.61L1076.09 1136.18L1077.79 1139.6L1078.64 1143.88V1146.73L1081.75 1145.31L1084.58 1144.74H1087.69L1091.93 1145.59L1096.17 1147.3L1099 1149.3L1102.11 1152.15L1104.93 1156.15L1107.2 1161L1105.22 1145.88L1104.09 1138.75L1103.8 1135.61V1132.18H1104.09L1105.22 1140.46L1107.48 1152.15L1108.33 1159.86L1108.61 1164.42V1169.84L1108.33 1174.69L1108.61 1174.41L1110.87 1170.98L1113.42 1168.13L1115.4 1166.13L1118.51 1164.14L1121.9 1162.43L1123.6 1161.85H1125.01L1123.88 1155.01V1145.02L1124.45 1144.45L1125.86 1157.58L1126.99 1164.99V1169.27L1126.14 1175.26L1124.16 1182.4L1122.47 1189.24L1121.05 1197.52L1120.2 1206.36V1217.77L1120.77 1224.05L1121.9 1230.04L1123.88 1236.03L1126.99 1242.02L1129.25 1245.16L1132.65 1249.16L1135.47 1251.73L1139.43 1254.58L1143.39 1256.86L1147.07 1258.57L1145.94 1258L1141.13 1255.43L1138.02 1253.15L1135.19 1250.58L1132.36 1247.73L1129.54 1243.74L1127.27 1239.46L1125.58 1234.32L1124.45 1228.62L1123.88 1223.19V1214.07L1124.73 1207.5L1126.14 1201.23L1127.84 1195.52L1130.1 1189.53L1133.78 1180.97L1136.32 1172.98L1138.3 1164.71L1138.87 1162.43L1139.15 1163.57L1138.02 1170.13L1136.32 1177.55L1133.78 1185.25L1130.95 1192.67L1128.97 1199.23L1127.56 1205.51L1126.71 1212.07V1221.48L1127.56 1228.33L1128.69 1233.18L1130.38 1237.46L1132.36 1241.17L1135.19 1244.88L1138.87 1248.59L1143.11 1251.73L1149.05 1254.86L1154.98 1256.86L1159.23 1257.72L1161.77 1258H1169.41L1171.95 1257.72L1175.06 1256L1177.61 1254.01L1180.15 1251.73L1182.7 1248.3L1185.24 1243.45L1186.65 1239.17L1187.5 1233.75L1187.22 1228.9L1186.09 1224.62L1184.11 1219.77L1181.28 1214.92L1177.89 1210.36L1174.78 1206.65L1171.67 1203.22L1168.84 1199.8L1167.14 1196.66L1166.29 1194.09V1189.24L1167.43 1185.82V1185.25L1166.01 1187.82L1165.45 1190.67V1193.52L1166.29 1197.8L1167.71 1201.23L1169.97 1205.22L1175.06 1212.92L1177.32 1217.49L1178.74 1222.34L1179.3 1226.05V1231.75L1178.45 1235.75L1177.32 1238.6L1174.78 1242.31L1172.23 1244.59L1168.84 1246.3L1166.58 1246.87H1160.64L1156.12 1245.73L1151.59 1243.45L1147.91 1240.88L1145.37 1238.32L1142.83 1234.32L1141.13 1230.04L1140 1224.91L1139.71 1222.62V1210.36L1140.85 1203.79L1142.26 1198.94L1145.09 1192.1L1148.2 1186.11L1150.46 1182.97L1154.42 1177.83L1157.81 1172.13L1160.64 1165.56L1162.9 1158.72L1164.6 1151.01L1165.45 1145.31L1166.01 1144.74V1154.72L1165.16 1159.86L1164.6 1161.57L1167.71 1162.43L1172.23 1164.71L1175.34 1166.99L1178.17 1169.84L1180.15 1172.7L1181.28 1174.69V1163.85L1181.85 1156.15L1182.98 1148.73L1185.24 1136.75L1185.52 1134.75H1185.81V1138.46L1183.54 1153.87L1182.7 1161L1183.83 1158.15L1186.09 1154.44L1188.63 1151.3L1191.46 1148.73L1194.85 1146.73L1199.1 1145.31L1202.21 1144.74H1205.03L1208.99 1145.59L1211.25 1146.73V1143.6L1212.1 1139.32L1213.8 1136.18L1215.78 1134.18L1218.61 1132.47L1222.28 1131.33L1223.7 1131.04H1229.63L1233.88 1131.9L1237.55 1133.32L1241.23 1135.32L1243.77 1137.32L1246.04 1139.32L1248.58 1142.74L1249.71 1144.74V1145.31H1250.28V1128.76L1249.43 1119.63L1248.01 1111.36L1246.04 1102.8L1243.49 1094.52L1240.66 1087.11L1237.55 1080.26L1233.59 1072.56L1229.63 1066.28L1227.94 1064V1063.43Z" fill="#00EB9A"/>
<path d="M1140 1002.94H1149.61L1160.92 1003.8L1171.38 1005.51L1178.74 1007.22L1188.07 1010.07L1196.27 1013.21L1203.05 1016.35L1210.12 1020.06L1215.78 1023.48L1219.17 1025.77L1223.98 1029.19L1229.07 1033.18L1233.31 1036.89L1236.99 1040.32L1242.64 1046.02L1244.62 1048.3L1248.01 1052.3L1251.69 1057.15L1255.08 1062L1259.04 1068.28L1261.3 1072.27L1261.02 1072.84L1257.35 1069.99L1252.26 1066.28L1245.75 1062L1240.1 1058.58L1234.16 1055.15L1227.09 1051.44L1217.76 1047.16L1207.86 1043.17L1197.4 1039.46L1187.22 1036.32L1188.35 1036.89L1192.31 1038.6L1194.29 1040.32L1195.42 1042.88V1044.88L1197.12 1045.45L1200.79 1048.02L1203.34 1050.3L1206.45 1054.3L1208.99 1058.29L1211.25 1062.57L1214.08 1069.99L1215.5 1075.69L1216.06 1079.4L1216.34 1085.39L1215.78 1090.53L1214.65 1094.81L1213.23 1098.23L1211.25 1101.66L1208.14 1105.08L1205.6 1107.36L1201.36 1109.93L1195.99 1111.93L1193.16 1112.5H1185.81L1183.54 1112.21L1178.74 1114.78L1174.21 1116.49L1169.69 1117.63H1165.16L1160.36 1116.78L1154.42 1115.07L1150.18 1113.35L1151.31 1113.07L1156.96 1114.78L1160.64 1115.35L1158.94 1112.78L1157.81 1109.64L1157.53 1106.22L1158.09 1103.94L1159.51 1101.66L1162.05 1100.23L1163.47 1099.66L1162.05 1098.23L1163.47 1098.8L1167.71 1101.09L1169.41 1102.51L1171.1 1105.36L1171.95 1107.08V1107.65L1173.36 1108.22L1175.63 1107.93L1177.89 1107.36L1176.47 1106.79L1175.91 1105.36L1174.5 1104.79L1172.52 1101.09L1168.56 1098.8L1168.27 1098.23L1169.97 1098.8L1173.65 1100.23L1179.87 1101.66L1183.54 1103.08L1184.11 1103.37L1183.54 1105.08L1182.41 1106.22H1181.85V1106.79L1184.96 1106.22L1186.37 1105.36L1186.94 1104.51L1189.48 1105.08L1189.76 1104.22V1101.66L1189.48 1099.09H1186.65L1185.81 1098.52V1097.38L1189.48 1098.23L1188.63 1093.95L1187.22 1095.95L1184.96 1096.24L1182.7 1094.52L1179.58 1093.95L1177.89 1092.81L1177.04 1091.1L1178.45 1091.67L1182.13 1093.1L1181.28 1090.81L1171.67 1083.97L1168.27 1081.68L1164.88 1077.98L1161.21 1075.12L1157.25 1072.56L1154.42 1070.27L1152.72 1067.99L1151.59 1065.99L1151.87 1068.28L1153.57 1071.7L1155.83 1073.7L1158.66 1075.69L1160.36 1077.12L1160.64 1078.83L1159.23 1079.4L1155.55 1078.26L1150.18 1076.55L1144.52 1075.41L1142.26 1075.12L1129.54 1074.84L1125.86 1073.98L1123.31 1072.56L1124.45 1073.98L1127.84 1075.98L1130.38 1076.83L1133.78 1077.41L1141.41 1077.69L1146.78 1078.26L1150.18 1079.4L1153.29 1081.4L1154.42 1082.83V1084.54L1153 1085.68L1145.09 1087.39L1141.69 1088.82L1143.96 1089.96V1091.1L1137.17 1093.67L1135.19 1094.81L1137.74 1095.66L1138.02 1096.81L1136.04 1098.23L1131.23 1100.51L1129.25 1101.94L1128.97 1102.51L1130.38 1102.8L1131.51 1103.94L1131.23 1105.36L1126.14 1109.07L1121.33 1112.5L1120.2 1113.07L1121.62 1113.92L1121.9 1115.07L1120.77 1115.92L1117.94 1116.78H1113.42L1110.02 1115.07L1106.91 1112.78L1105.5 1112.21L1104.09 1112.5H1097.02L1093.06 1111.64L1088.53 1109.93L1084.86 1107.65L1082.03 1105.36L1079.2 1102.51L1076.37 1097.95L1074.68 1093.38L1073.83 1089.1L1073.55 1086.54V1081.68L1074.4 1075.41L1076.09 1069.13L1078.35 1063.14L1081.46 1057.15L1084.29 1053.15L1086.84 1050.3L1089.66 1047.45L1093.62 1044.88L1094.19 1044.6L1095.04 1041.17L1096.73 1039.17L1100.69 1037.18L1102.67 1036.32L1092.49 1039.46L1083.44 1042.6L1075.53 1045.74L1068.46 1048.88L1061.39 1052.3L1055.17 1055.44L1048.66 1059.15L1041.88 1063.43L1035.66 1067.71L1030.28 1071.7L1028.59 1072.84L1029.15 1071.13L1031.98 1066.28L1035.37 1061.14L1038.2 1057.15L1041.03 1053.44L1044.14 1049.73L1046.68 1046.88L1048.66 1044.6L1055.17 1038.03L1057.43 1036.04L1061.39 1032.61L1067.04 1028.33L1072.42 1024.62L1078.35 1020.92L1084.58 1017.49L1091.64 1014.07L1100.98 1010.36L1109.18 1007.79L1117.09 1005.79L1126.99 1004.08L1135.19 1003.23L1140 1002.94Z" fill="#00EB9A"/>
</g>
<defs>
<filter id="filter0_dddddd_6014_348" x="0.773682" y="0.282471" width="2288.91" height="2180.16" filterUnits="userSpaceOnUse" color-interpolation-filters="sRGB">
<feFlood flood-opacity="0" result="BackgroundImageFix"/>
<feColorMatrix in="SourceAlpha" type="matrix" values="0 0 0 0 0 0 0 0 0 0 0 0 0 0 0 0 0 0 127 0" result="hardAlpha"/>
<feOffset/>
<feGaussianBlur stdDeviation="11.3842"/>
<feColorMatrix type="matrix" values="0 0 0 0 0 0 0 0 0 0.921569 0 0 0 0 0.603922 0 0 0 1 0"/>
<feBlend mode="normal" in2="BackgroundImageFix" result="effect1_dropShadow_6014_348"/>
<feColorMatrix in="SourceAlpha" type="matrix" values="0 0 0 0 0 0 0 0 0 0 0 0 0 0 0 0 0 0 127 0" result="hardAlpha"/>
<feOffset/>
<feGaussianBlur stdDeviation="22.7684"/>
<feColorMatrix type="matrix" values="0 0 0 0 0 0 0 0 0 0.921569 0 0 0 0 0.603922 0 0 0 1 0"/>
<feBlend mode="normal" in2="effect1_dropShadow_6014_348" result="effect2_dropShadow_6014_348"/>
<feColorMatrix in="SourceAlpha" type="matrix" values="0 0 0 0 0 0 0 0 0 0 0 0 0 0 0 0 0 0 127 0" result="hardAlpha"/>
<feOffset/>
<feGaussianBlur stdDeviation="79.6894"/>
<feColorMatrix type="matrix" values="0 0 0 0 0 0 0 0 0 0.921569 0 0 0 0 0.603922 0 0 0 1 0"/>
<feBlend mode="normal" in2="effect2_dropShadow_6014_348" result="effect3_dropShadow_6014_348"/>
<feColorMatrix in="SourceAlpha" type="matrix" values="0 0 0 0 0 0 0 0 0 0 0 0 0 0 0 0 0 0 127 0" result="hardAlpha"/>
<feOffset/>
<feGaussianBlur stdDeviation="159.379"/>
<feColorMatrix type="matrix" values="0 0 0 0 0 0 0 0 0 0.921569 0 0 0 0 0.603922 0 0 0 1 0"/>
<feBlend mode="normal" in2="effect3_dropShadow_6014_348" result="effect4_dropShadow_6014_348"/>
<feColorMatrix in="SourceAlpha" type="matrix" values="0 0 0 0 0 0 0 0 0 0 0 0 0 0 0 0 0 0 127 0" result="hardAlpha"/>
<feOffset/>
<feGaussianBlur stdDeviation="273.221"/>
<feColorMatrix type="matrix" values="0 0 0 0 0 0 0 0 0 0.921569 0 0 0 0 0.603922 0 0 0 1 0"/>
<feBlend mode="normal" in2="effect4_dropShadow_6014_348" result="effect5_dropShadow_6014_348"/>
<feColorMatrix in="SourceAlpha" type="matrix" values="0 0 0 0 0 0 0 0 0 0 0 0 0 0 0 0 0 0 127 0" result="hardAlpha"/>
<feOffset/>
<feGaussianBlur stdDeviation="478.136"/>
<feColorMatrix type="matrix" values="0 0 0 0 0 0 0 0 0 0.921569 0 0 0 0 0.603922 0 0 0 1 0"/>
<feBlend mode="normal" in2="effect5_dropShadow_6014_348" result="effect6_dropShadow_6014_348"/>
<feBlend mode="normal" in="SourceGraphic" in2="effect6_dropShadow_6014_348" result="shape"/>
</filter>
<filter id="filter1_f_6014_348" x="876.485" y="978.534" width="536.565" height="313.275" filterUnits="userSpaceOnUse" color-interpolation-filters="sRGB">
<feFlood flood-opacity="0" result="BackgroundImageFix"/>
<feBlend mode="normal" in="SourceGraphic" in2="BackgroundImageFix" result="shape"/>
<feGaussianBlur stdDeviation="23.1412" result="effect1_foregroundBlur_6014_348"/>
</filter>
<filter id="filter2_f_6014_348" x="710.208" y="756.102" width="870.042" height="761.292" filterUnits="userSpaceOnUse" color-interpolation-filters="sRGB">
<feFlood flood-opacity="0" result="BackgroundImageFix"/>
<feBlend mode="normal" in="SourceGraphic" in2="BackgroundImageFix" result="shape"/>
<feGaussianBlur stdDeviation="123.42" result="effect1_foregroundBlur_6014_348"/>
</filter>
<linearGradient id="paint0_linear_6014_348" x1="1143.63" y1="1083.98" x2="1143.63" y2="1357.02" gradientUnits="userSpaceOnUse">
<stop stop-color="#00EB9A"/>
<stop offset="0.675291" stop-color="#00D58C" stop-opacity="0.973099"/>
<stop offset="1" stop-opacity="0.71"/>
</linearGradient>
<linearGradient id="paint1_linear_6014_348" x1="1143.63" y1="1083.98" x2="1143.63" y2="1357.02" gradientUnits="userSpaceOnUse">
<stop stop-color="#00EB9A"/>
<stop offset="0.675291" stop-color="#00D58C" stop-opacity="0.973099"/>
<stop offset="1" stop-opacity="0.71"/>
</linearGradient>
</defs>
</svg>
