<svg width="117" height="116" viewBox="0 0 117 116" fill="none" xmlns="http://www.w3.org/2000/svg">
<circle cx="58.5867" cy="57.9671" r="57.7693" transform="rotate(45 58.5867 57.9671)" fill="url(#paint0_linear_4195_781)" fill-opacity="0.4"/>
<path d="M84.2078 31.9752C73.7768 31.7933 61.8807 37.0988 54.3508 45.3291C47.1548 45.4613 40.1481 48.3318 34.9893 53.3514C34.6887 53.6395 34.5819 54.0707 34.7132 54.4606C34.8468 54.8527 35.1942 55.1365 35.6127 55.195L44.1936 56.3909L43.1338 57.5456C42.7397 57.9746 42.7597 58.6267 43.1783 59.0339L57.4879 72.9576C57.7038 73.1677 57.9888 73.2739 58.276 73.2739C58.541 73.2739 58.8059 73.1829 59.0175 72.9987L60.2042 71.9675L61.4332 80.3169C61.4933 80.7242 61.8228 81.0232 62.2213 81.1532C62.3238 81.1857 62.4306 81.2009 62.5397 81.2009C62.8559 81.2009 63.1787 81.0665 63.4014 80.8521C68.4889 75.9018 71.439 69.084 71.5748 62.0821C80.0421 54.7401 85.5392 43.1692 85.2965 33.0325C85.281 32.4562 84.8023 31.9904 84.2078 31.9752ZM73.9482 50.6759C72.8639 51.7309 71.439 52.2595 70.0118 52.2595C68.5846 52.2595 67.1597 51.7309 66.0754 50.6759C63.9068 48.5636 63.9068 45.1276 66.0754 43.0154C68.2462 40.9031 71.7774 40.9031 73.9482 43.0154C76.119 45.1276 76.119 48.5658 73.9482 50.6759Z" fill="white"/>
<path d="M37.9327 68.5922C35.5504 70.9103 32.2797 81.3828 31.9146 82.5679C31.7966 82.9492 31.9057 83.3629 32.1929 83.6446C32.4066 83.8526 32.6894 83.9631 32.981 83.9631C33.0879 83.9631 33.1948 83.9479 33.3017 83.9176C34.5195 83.5623 45.2823 80.3798 47.6646 78.0617C50.3476 75.4511 50.3476 71.2028 47.6646 68.5922C44.9795 65.9817 40.6156 65.9839 37.9327 68.5922Z" fill="white"/>
<defs>
<linearGradient id="paint0_linear_4195_781" x1="89.2398" y1="83.9044" x2="-71.0995" y2="-84.6876" gradientUnits="userSpaceOnUse">
<stop stop-color="#53FF87" stop-opacity="0"/>
<stop offset="1" stop-color="#53FF87"/>
</linearGradient>
</defs>
</svg>
