<svg width="71" height="71" viewBox="0 0 71 71" fill="none" xmlns="http://www.w3.org/2000/svg">
<circle cx="35.3025" cy="35.3027" r="35" transform="rotate(45 35.3025 35.3027)" fill="url(#paint0_linear_4195_799)" fill-opacity="0.4"/>
<path d="M47.7583 44.5793C51.301 40.8979 53.4646 37.7263 53.4739 37.7317C53.6775 37.0904 53.6417 36.3971 53.3731 35.7801C51.5671 31.6856 49.758 27.6925 47.8615 23.9323C47.6704 23.5505 47.3608 23.2408 46.9789 23.0497C43.2222 21.1507 39.231 19.3397 35.1385 17.5327C34.5938 17.2953 33.9874 17.2386 33.4081 17.3709C33.4219 17.3896 30.8547 18.7118 26.4509 22.9032C22.0958 27.1324 21.343 28.9552 21.3238 28.9389C20.6698 30.1722 20.2504 31.6743 20.0507 33.4278C19.8275 35.3868 19.8732 37.6845 20.183 40.21C20.6875 44.3954 21.7821 47.6899 21.8352 47.8207C21.9335 48.1124 22.0979 48.3775 22.3156 48.5952C22.5332 48.8128 22.7983 48.9773 23.09 49.0756C23.2213 49.1291 26.5217 50.2227 30.7057 50.7267C33.2306 51.035 35.5303 51.0817 37.4888 50.86C39.3667 50.6441 40.9564 50.1814 42.2368 49.4458C42.227 49.433 44.1968 48.25 47.7583 44.5793Z" fill="white"/>
<path d="M35.3931 37.8527L33.1032 40.1426C32.7913 40.442 32.3744 40.6072 31.9421 40.6028C31.5098 40.5983 31.0965 40.4246 30.7908 40.1189C30.4851 39.8132 30.3114 39.3999 30.3069 38.9675C30.3025 38.5352 30.4677 38.1184 30.767 37.8065L33.0245 35.5491C32.7656 34.7802 32.7727 33.9467 33.0448 33.1825C33.3168 32.4182 33.8379 31.7676 34.5244 31.3353C35.2108 30.903 36.0226 30.7141 36.8294 30.7989C37.6362 30.8837 38.391 31.2373 38.9726 31.8029C39.5541 32.3685 39.9285 33.1132 40.0357 33.9173C40.1429 34.7214 39.9766 35.5382 39.5635 36.2364C39.1504 36.9346 38.5146 37.4735 37.7582 37.7667C37.0018 38.0599 36.1688 38.0902 35.3931 37.8527Z" fill="black"/>
<defs>
<linearGradient id="paint0_linear_4195_799" x1="53.8739" y1="51.0169" x2="-43.2689" y2="-51.1259" gradientUnits="userSpaceOnUse">
<stop stop-color="#53FF87" stop-opacity="0"/>
<stop offset="1" stop-color="#53FF87"/>
</linearGradient>
</defs>
</svg>
